<?xml version="1.0" encoding="UTF-8"?>
<svg xmlns="http://www.w3.org/2000/svg" xmlns:xlink="http://www.w3.org/1999/xlink" version="1.1" width="228.6mm" height="101.6mm" viewBox="0 0 228.6 101.6" style="stroke:black;fill:black" stroke-width="0.5">
<g stroke="#F2F2F2" fill="#F5F5F5">
  <path d="M 16.29 5 L 109.3 5 109.3 84.6 16.29 84.6 z" />
  <g stroke="#FFFFFF" stroke-width="0.3">
    <path d="M84.73,5 L 84.73 84.6" />
    <path d="M18.92,5 L 18.92 84.6" />
    <path d="M40.86,5 L 40.86 84.6" />
    <path d="M62.8,5 L 62.8 84.6" />
    <path d="M106.67,5 L 106.67 84.6" />
  </g>
  <g stroke="#FFFFFF" stroke-width="0.3">
    <path d="M16.29,37.29 L 109.3 37.29" />
    <path d="M16.29,7.25 L 109.3 7.25" />
    <path d="M16.29,82.35 L 109.3 82.35" />
    <path d="M16.29,22.27 L 109.3 22.27" />
    <path d="M16.29,52.31 L 109.3 52.31" />
    <path d="M16.29,67.33 L 109.3 67.33" />
  </g>
</g>
<g stroke="none" stroke-width="0.3">
  <g fill="#4682B4" stroke="#0F5D8C" class="color_group_RGB(0.27450980392156865,0.5098039215686274,0.7058823529411765)">
    <circle cx="43.05" cy="29.78" r="0.5" />
    <circle cx="38.67" cy="37.29" r="0.5" />
    <circle cx="34.28" cy="34.29" r="0.5" />
    <circle cx="32.09" cy="35.79" r="0.5" />
    <circle cx="40.86" cy="28.28" r="0.5" />
    <circle cx="49.63" cy="23.77" r="0.5" />
    <circle cx="32.09" cy="31.28" r="0.5" />
    <circle cx="40.86" cy="31.28" r="0.5" />
    <circle cx="27.7" cy="38.79" r="0.5" />
    <circle cx="38.67" cy="35.79" r="0.5" />
    <circle cx="49.63" cy="26.78" r="0.5" />
    <circle cx="36.47" cy="31.28" r="0.5" />
    <circle cx="36.47" cy="37.29" r="0.5" />
    <circle cx="25.5" cy="37.29" r="0.5" />
    <circle cx="58.41" cy="22.27" r="0.5" />
    <circle cx="56.22" cy="16.26" r="0.5" />
    <circle cx="49.63" cy="23.77" r="0.5" />
    <circle cx="43.05" cy="29.78" r="0.5" />
    <circle cx="56.22" cy="25.28" r="0.5" />
    <circle cx="43.05" cy="25.28" r="0.5" />
    <circle cx="49.63" cy="31.28" r="0.5" />
    <circle cx="43.05" cy="26.78" r="0.5" />
    <circle cx="32.09" cy="28.28" r="0.5" />
    <circle cx="43.05" cy="32.79" r="0.5" />
    <circle cx="36.47" cy="31.28" r="0.5" />
    <circle cx="40.86" cy="37.29" r="0.5" />
    <circle cx="40.86" cy="31.28" r="0.5" />
    <circle cx="45.25" cy="29.78" r="0.5" />
    <circle cx="45.25" cy="31.28" r="0.5" />
    <circle cx="34.28" cy="34.29" r="0.5" />
    <circle cx="36.47" cy="35.79" r="0.5" />
    <circle cx="49.63" cy="31.28" r="0.5" />
    <circle cx="45.25" cy="20.77" r="0.5" />
    <circle cx="51.83" cy="19.27" r="0.5" />
    <circle cx="38.67" cy="35.79" r="0.5" />
    <circle cx="40.86" cy="34.29" r="0.5" />
    <circle cx="51.83" cy="29.78" r="0.5" />
    <circle cx="38.67" cy="28.28" r="0.5" />
    <circle cx="27.7" cy="37.29" r="0.5" />
    <circle cx="43.05" cy="31.28" r="0.5" />
    <circle cx="40.86" cy="29.78" r="0.5" />
    <circle cx="29.89" cy="47.81" r="0.5" />
    <circle cx="27.7" cy="34.29" r="0.5" />
    <circle cx="40.86" cy="29.78" r="0.5" />
    <circle cx="43.05" cy="25.28" r="0.5" />
    <circle cx="36.47" cy="37.29" r="0.5" />
    <circle cx="43.05" cy="25.28" r="0.5" />
    <circle cx="32.09" cy="34.29" r="0.5" />
    <circle cx="47.44" cy="26.78" r="0.5" />
    <circle cx="40.86" cy="32.79" r="0.5" />
    <circle cx="84.73" cy="34.29" r="0.5" />
    <circle cx="71.57" cy="34.29" r="0.5" />
    <circle cx="82.54" cy="35.79" r="0.5" />
    <circle cx="51.83" cy="47.81" r="0.5" />
    <circle cx="73.76" cy="40.3" r="0.5" />
    <circle cx="56.22" cy="40.3" r="0.5" />
    <circle cx="69.38" cy="32.79" r="0.5" />
    <circle cx="38.67" cy="46.3" r="0.5" />
    <circle cx="75.96" cy="38.79" r="0.5" />
    <circle cx="45.25" cy="41.8" r="0.5" />
    <circle cx="40.86" cy="52.31" r="0.5" />
    <circle cx="60.6" cy="37.29" r="0.5" />
    <circle cx="62.8" cy="49.31" r="0.5" />
    <circle cx="64.99" cy="38.79" r="0.5" />
    <circle cx="54.02" cy="38.79" r="0.5" />
    <circle cx="78.15" cy="35.79" r="0.5" />
    <circle cx="54.02" cy="37.29" r="0.5" />
    <circle cx="58.41" cy="41.8" r="0.5" />
    <circle cx="67.18" cy="49.31" r="0.5" />
    <circle cx="54.02" cy="44.8" r="0.5" />
    <circle cx="60.6" cy="34.29" r="0.5" />
    <circle cx="64.99" cy="40.3" r="0.5" />
    <circle cx="69.38" cy="44.8" r="0.5" />
    <circle cx="64.99" cy="40.3" r="0.5" />
    <circle cx="71.57" cy="38.79" r="0.5" />
    <circle cx="75.96" cy="37.29" r="0.5" />
    <circle cx="80.34" cy="40.3" r="0.5" />
    <circle cx="78.15" cy="37.29" r="0.5" />
    <circle cx="62.8" cy="38.79" r="0.5" />
    <circle cx="56.22" cy="43.3" r="0.5" />
    <circle cx="51.83" cy="46.3" r="0.5" />
    <circle cx="51.83" cy="46.3" r="0.5" />
    <circle cx="58.41" cy="41.8" r="0.5" />
    <circle cx="62.8" cy="41.8" r="0.5" />
    <circle cx="49.63" cy="37.29" r="0.5" />
    <circle cx="62.8" cy="31.28" r="0.5" />
    <circle cx="78.15" cy="35.79" r="0.5" />
    <circle cx="69.38" cy="47.81" r="0.5" />
    <circle cx="54.02" cy="37.29" r="0.5" />
    <circle cx="51.83" cy="44.8" r="0.5" />
    <circle cx="51.83" cy="43.3" r="0.5" />
    <circle cx="64.99" cy="37.29" r="0.5" />
    <circle cx="58.41" cy="43.3" r="0.5" />
    <circle cx="40.86" cy="47.81" r="0.5" />
    <circle cx="54.02" cy="41.8" r="0.5" />
    <circle cx="56.22" cy="37.29" r="0.5" />
    <circle cx="56.22" cy="38.79" r="0.5" />
    <circle cx="67.18" cy="38.79" r="0.5" />
    <circle cx="43.05" cy="44.8" r="0.5" />
    <circle cx="56.22" cy="40.3" r="0.5" />
    <circle cx="69.38" cy="32.79" r="0.5" />
    <circle cx="58.41" cy="41.8" r="0.5" />
    <circle cx="86.93" cy="37.29" r="0.5" />
    <circle cx="69.38" cy="38.79" r="0.5" />
    <circle cx="73.76" cy="37.29" r="0.5" />
    <circle cx="97.89" cy="37.29" r="0.5" />
    <circle cx="38.67" cy="44.8" r="0.5" />
    <circle cx="91.31" cy="38.79" r="0.5" />
    <circle cx="78.15" cy="44.8" r="0.5" />
    <circle cx="89.12" cy="28.28" r="0.5" />
    <circle cx="73.76" cy="34.29" r="0.5" />
    <circle cx="71.57" cy="41.8" r="0.5" />
    <circle cx="80.34" cy="37.29" r="0.5" />
    <circle cx="56.22" cy="44.8" r="0.5" />
    <circle cx="58.41" cy="40.3" r="0.5" />
    <circle cx="71.57" cy="34.29" r="0.5" />
    <circle cx="73.76" cy="37.29" r="0.5" />
    <circle cx="100.09" cy="25.28" r="0.5" />
    <circle cx="100.09" cy="43.3" r="0.5" />
    <circle cx="62.8" cy="49.31" r="0.5" />
    <circle cx="82.54" cy="34.29" r="0.5" />
    <circle cx="54.02" cy="40.3" r="0.5" />
    <circle cx="100.09" cy="40.3" r="0.5" />
    <circle cx="69.38" cy="41.8" r="0.5" />
    <circle cx="78.15" cy="32.79" r="0.5" />
    <circle cx="89.12" cy="34.29" r="0.5" />
    <circle cx="67.18" cy="40.3" r="0.5" />
    <circle cx="64.99" cy="37.29" r="0.5" />
    <circle cx="71.57" cy="40.3" r="0.5" />
    <circle cx="89.12" cy="37.29" r="0.5" />
    <circle cx="93.51" cy="40.3" r="0.5" />
    <circle cx="104.47" cy="25.28" r="0.5" />
    <circle cx="71.57" cy="40.3" r="0.5" />
    <circle cx="69.38" cy="40.3" r="0.5" />
    <circle cx="64.99" cy="43.3" r="0.5" />
    <circle cx="100.09" cy="37.29" r="0.5" />
    <circle cx="69.38" cy="31.28" r="0.5" />
    <circle cx="71.57" cy="35.79" r="0.5" />
    <circle cx="62.8" cy="37.29" r="0.5" />
    <circle cx="82.54" cy="35.79" r="0.5" />
    <circle cx="78.15" cy="35.79" r="0.5" />
    <circle cx="82.54" cy="35.79" r="0.5" />
    <circle cx="58.41" cy="41.8" r="0.5" />
    <circle cx="80.34" cy="34.29" r="0.5" />
    <circle cx="78.15" cy="32.79" r="0.5" />
    <circle cx="78.15" cy="37.29" r="0.5" />
    <circle cx="69.38" cy="44.8" r="0.5" />
    <circle cx="73.76" cy="37.29" r="0.5" />
    <circle cx="67.18" cy="31.28" r="0.5" />
    <circle cx="60.6" cy="37.29" r="0.5" />
  </g>
</g>
<g stroke="none" fill="#4C404B" font-family="PT Sans Caption" font-size="3.18">
  <text x="84.73" y="88.07" text-anchor="middle">7</text>
  <text x="18.92" y="88.07" text-anchor="middle">4</text>
  <text x="40.86" y="88.07" text-anchor="middle">5</text>
  <text x="62.8" y="88.07" text-anchor="middle">6</text>
  <text x="106.67" y="88.07" text-anchor="middle">8</text>
</g>
<g stroke="none" fill="#362A35" font-family="PT Sans" font-size="3.88">
  <text x="62.8" y="94.6" text-anchor="middle">Sepal.Length</text>
</g>
<g stroke="none" fill="#362A35" font-family="PT Sans" font-size="3.88">
  <text x="8.76" y="44.8" text-anchor="middle" style="dominant-baseline:central" transform="rotate(-90, 8.76, 44.8)">Sepal.Width</text>
</g>
<g stroke="none" fill="#4C404B" font-family="PT Sans Caption" font-size="3.18">
  <text x="15.29" y="37.29" text-anchor="end" style="dominant-baseline:central">3</text>
  <text x="15.29" y="7.25" text-anchor="end" style="dominant-baseline:central">5</text>
  <text x="15.29" y="82.35" text-anchor="end" style="dominant-baseline:central">0</text>
  <text x="15.29" y="22.27" text-anchor="end" style="dominant-baseline:central">4</text>
  <text x="15.29" y="52.31" text-anchor="end" style="dominant-baseline:central">2</text>
  <text x="15.29" y="67.33" text-anchor="end" style="dominant-baseline:central">1</text>
</g>
<g stroke="#F2F2F2" fill="#F5F5F5">
  <path d="M 124.83 5 L 223.6 5 223.6 84.6 124.83 84.6 z" />
  <g stroke="#FFFFFF" stroke-width="0.3">
    <path d="M220.8,5 L 220.8 84.6" />
    <path d="M146.26,5 L 146.26 84.6" />
    <path d="M127.62,5 L 127.62 84.6" />
    <path d="M202.17,5 L 202.17 84.6" />
    <path d="M183.53,5 L 183.53 84.6" />
    <path d="M164.9,5 L 164.9 84.6" />
  </g>
  <g stroke="#FFFFFF" stroke-width="0.3">
    <path d="M124.83,37.29 L 223.6 37.29" />
    <path d="M124.83,52.31 L 223.6 52.31" />
    <path d="M124.83,82.35 L 223.6 82.35" />
    <path d="M124.83,7.25 L 223.6 7.25" />
    <path d="M124.83,67.33 L 223.6 67.33" />
    <path d="M124.83,22.27 L 223.6 22.27" />
  </g>
</g>
<g fill="#4682B4" stroke="none">
  <path d="M 132.54 82.35 L 140.59 82.35 140.59 76.34 132.54 76.34 z" />
  <path d="M 141.49 82.35 L 149.54 82.35 149.54 71.84 141.49 71.84 z" />
  <path d="M 150.43 82.35 L 158.48 82.35 158.48 49.31 150.43 49.31 z" />
  <path d="M 159.38 82.35 L 167.43 82.35 167.43 46.3 159.38 46.3 z" />
  <path d="M 168.32 82.35 L 176.38 82.35 176.38 7.25 168.32 7.25 z" />
  <path d="M 177.27 82.35 L 185.32 82.35 185.32 55.31 177.27 55.31 z" />
  <path d="M 186.22 82.35 L 194.27 82.35 194.27 67.33 186.22 67.33 z" />
  <path d="M 195.16 82.35 L 203.21 82.35 203.21 65.83 195.16 65.83 z" />
  <path d="M 204.11 82.35 L 212.16 82.35 212.16 79.35 204.11 79.35 z" />
  <path d="M 213.05 82.35 L 221.1 82.35 221.1 80.85 213.05 80.85 z" />
</g>
<g stroke="none" fill="#4C404B" font-family="PT Sans Caption" font-size="3.18">
  <text x="220.8" y="88.07" text-anchor="middle">2.5</text>
  <text x="146.26" y="88.07" text-anchor="middle">0.5</text>
  <text x="127.62" y="88.07" text-anchor="middle">0</text>
  <text x="202.17" y="88.07" text-anchor="middle">2</text>
  <text x="183.53" y="88.07" text-anchor="middle">1.5</text>
  <text x="164.9" y="88.07" text-anchor="middle">1</text>
</g>
<g stroke="none" fill="#362A35" font-family="PT Sans" font-size="3.88">
  <text x="174.21" y="94.6" text-anchor="middle">Sepal.Width</text>
</g>
<g stroke="none" fill="#4C404B" font-family="PT Sans Caption" font-size="3.18">
  <text x="123.83" y="37.29" text-anchor="end" style="dominant-baseline:central">30</text>
  <text x="123.83" y="52.31" text-anchor="end" style="dominant-baseline:central">20</text>
  <text x="123.83" y="82.35" text-anchor="end" style="dominant-baseline:central">0</text>
  <text x="123.83" y="7.25" text-anchor="end" style="dominant-baseline:central">50</text>
  <text x="123.83" y="67.33" text-anchor="end" style="dominant-baseline:central">10</text>
  <text x="123.83" y="22.27" text-anchor="end" style="dominant-baseline:central">40</text>
</g>
</svg>
