<?xml version="1.0" encoding="UTF-8"?>
<svg xmlns="http://www.w3.org/2000/svg" xmlns:xlink="http://www.w3.org/1999/xlink" version="1.1" width="228.6mm" height="101.6mm" viewBox="0 0 228.6 101.6" style="stroke:black;fill:black" stroke-width="0.5">
<g stroke="#F2F2F2" fill="#F5F5F5">
  <path d="M 16.29 5 L 202.26 5 202.26 85.31 16.29 85.31 z" />
  <g stroke="#FFFFFF" stroke-width="0.3">
    <path d="M109.27,5 L 109.27 85.31" />
    <path d="M158.01,5 L 158.01 85.31" />
    <path d="M50.79,5 L 50.79 85.31" />
    <path d="M41.05,5 L 41.05 85.31" />
    <path d="M99.53,5 L 99.53 85.31" />
    <path d="M70.29,5 L 70.29 85.31" />
    <path d="M21.55,5 L 21.55 85.31" />
    <path d="M89.78,5 L 89.78 85.31" />
    <path d="M167.75,5 L 167.75 85.31" />
    <path d="M60.54,5 L 60.54 85.31" />
    <path d="M128.77,5 L 128.77 85.31" />
    <path d="M177.5,5 L 177.5 85.31" />
    <path d="M196.99,5 L 196.99 85.31" />
    <path d="M119.02,5 L 119.02 85.31" />
    <path d="M148.26,5 L 148.26 85.31" />
    <path d="M80.03,5 L 80.03 85.31" />
    <path d="M138.51,5 L 138.51 85.31" />
    <path d="M31.3,5 L 31.3 85.31" />
    <path d="M187.25,5 L 187.25 85.31" />
  </g>
  <g stroke="#FFFFFF" stroke-width="0.3">
    <path d="M16.29,7.27 L 202.26 7.27" />
    <path d="M16.29,64.09 L 202.26 64.09" />
    <path d="M16.29,45.15 L 202.26 45.15" />
    <path d="M16.29,26.21 L 202.26 26.21" />
    <path d="M16.29,83.04 L 202.26 83.04" />
  </g>
</g>
<g stroke="none" stroke-width="0.3">
  <g fill="#B8AE46" stroke="#8D861D" class="color_group_GERMANY">
    <circle cx="21.55" cy="65.67" r="0.5" />
    <circle cx="31.3" cy="66.27" r="0.5" />
    <circle cx="41.05" cy="66.53" r="0.5" />
    <circle cx="50.79" cy="66.96" r="0.5" />
    <circle cx="60.54" cy="66.58" r="0.5" />
    <circle cx="70.29" cy="66.73" r="0.5" />
    <circle cx="80.03" cy="66.35" r="0.5" />
    <circle cx="89.78" cy="66.46" r="0.5" />
    <circle cx="99.53" cy="66.19" r="0.5" />
    <circle cx="109.27" cy="66" r="0.5" />
    <circle cx="119.02" cy="65.94" r="0.5" />
    <circle cx="128.77" cy="65.38" r="0.5" />
    <circle cx="138.51" cy="65.38" r="0.5" />
    <circle cx="148.26" cy="65.53" r="0.5" />
    <circle cx="158.01" cy="66.21" r="0.5" />
    <circle cx="167.75" cy="65.57" r="0.5" />
    <circle cx="177.5" cy="66.06" r="0.5" />
    <circle cx="187.25" cy="66.07" r="0.5" />
    <circle cx="196.99" cy="66.29" r="0.5" />
  </g>
  <g fill="#FF8B6E" stroke="#D1634A" class="color_group_CANADA">
    <circle cx="21.55" cy="47.9" r="0.5" />
    <circle cx="31.3" cy="48.44" r="0.5" />
    <circle cx="41.05" cy="47.99" r="0.5" />
    <circle cx="50.79" cy="48.22" r="0.5" />
    <circle cx="60.54" cy="48.19" r="0.5" />
    <circle cx="70.29" cy="47.98" r="0.5" />
    <circle cx="80.03" cy="47.6" r="0.5" />
    <circle cx="89.78" cy="47.95" r="0.5" />
    <circle cx="99.53" cy="47.64" r="0.5" />
    <circle cx="109.27" cy="47.72" r="0.5" />
    <circle cx="119.02" cy="47.06" r="0.5" />
    <circle cx="128.77" cy="47.14" r="0.5" />
    <circle cx="138.51" cy="47.25" r="0.5" />
    <circle cx="148.26" cy="47.05" r="0.5" />
    <circle cx="158.01" cy="47.21" r="0.5" />
    <circle cx="167.75" cy="47.27" r="0.5" />
    <circle cx="177.5" cy="48.23" r="0.5" />
    <circle cx="187.25" cy="48.73" r="0.5" />
    <circle cx="196.99" cy="47.88" r="0.5" />
  </g>
  <g fill="#73ABFF" stroke="#4184E0" class="color_group_SWITZERL">
    <circle cx="21.55" cy="56.56" r="0.5" />
    <circle cx="31.3" cy="55.74" r="0.5" />
    <circle cx="41.05" cy="58.66" r="0.5" />
    <circle cx="50.79" cy="58.18" r="0.5" />
    <circle cx="60.54" cy="58.16" r="0.5" />
    <circle cx="70.29" cy="58.63" r="0.5" />
    <circle cx="80.03" cy="59.05" r="0.5" />
    <circle cx="89.78" cy="59.06" r="0.5" />
    <circle cx="99.53" cy="59.97" r="0.5" />
    <circle cx="109.27" cy="60.09" r="0.5" />
    <circle cx="119.02" cy="59.83" r="0.5" />
    <circle cx="128.77" cy="58.78" r="0.5" />
    <circle cx="138.51" cy="59.19" r="0.5" />
    <circle cx="148.26" cy="59.74" r="0.5" />
    <circle cx="158.01" cy="60.94" r="0.5" />
    <circle cx="167.75" cy="61.81" r="0.5" />
    <circle cx="177.5" cy="62.59" r="0.5" />
    <circle cx="187.25" cy="62.19" r="0.5" />
    <circle cx="196.99" cy="63.15" r="0.5" />
  </g>
  <g fill="#FF81AD" stroke="#D65886" class="color_group_AUSTRIA">
    <circle cx="21.55" cy="60.81" r="0.5" />
    <circle cx="31.3" cy="62.18" r="0.5" />
    <circle cx="41.05" cy="62.71" r="0.5" />
    <circle cx="50.79" cy="62.97" r="0.5" />
    <circle cx="60.54" cy="63.38" r="0.5" />
    <circle cx="70.29" cy="63.45" r="0.5" />
    <circle cx="80.03" cy="63.19" r="0.5" />
    <circle cx="89.78" cy="63.09" r="0.5" />
    <circle cx="99.53" cy="63.23" r="0.5" />
    <circle cx="109.27" cy="63.22" r="0.5" />
    <circle cx="119.02" cy="62.56" r="0.5" />
    <circle cx="128.77" cy="62.07" r="0.5" />
    <circle cx="138.51" cy="61.67" r="0.5" />
    <circle cx="148.26" cy="60.32" r="0.5" />
    <circle cx="158.01" cy="63.74" r="0.5" />
    <circle cx="167.75" cy="63.55" r="0.5" />
    <circle cx="177.5" cy="64.37" r="0.5" />
    <circle cx="187.25" cy="65.39" r="0.5" />
    <circle cx="196.99" cy="65.56" r="0.5" />
  </g>
  <g fill="#F486CE" stroke="#C85EA5" class="color_group_U.S.A.">
    <circle cx="21.55" cy="48.49" r="0.5" />
    <circle cx="31.3" cy="49.01" r="0.5" />
    <circle cx="41.05" cy="48.96" r="0.5" />
    <circle cx="50.79" cy="49.17" r="0.5" />
    <circle cx="60.54" cy="48.79" r="0.5" />
    <circle cx="70.29" cy="48.83" r="0.5" />
    <circle cx="80.03" cy="48.8" r="0.5" />
    <circle cx="89.78" cy="48.93" r="0.5" />
    <circle cx="99.53" cy="48.3" r="0.5" />
    <circle cx="109.27" cy="48.16" r="0.5" />
    <circle cx="119.02" cy="48.02" r="0.5" />
    <circle cx="128.77" cy="47.8" r="0.5" />
    <circle cx="138.51" cy="47.92" r="0.5" />
    <circle cx="148.26" cy="48.06" r="0.5" />
    <circle cx="158.01" cy="48.97" r="0.5" />
    <circle cx="167.75" cy="48.85" r="0.5" />
    <circle cx="177.5" cy="48.66" r="0.5" />
    <circle cx="187.25" cy="48.73" r="0.5" />
    <circle cx="196.99" cy="48.59" r="0.5" />
  </g>
  <g fill="#00C3AA" stroke="#009A82" class="color_group_JAPAN">
    <circle cx="21.55" cy="26.3" r="0.5" />
    <circle cx="31.3" cy="30.79" r="0.5" />
    <circle cx="41.05" cy="33" r="0.5" />
    <circle cx="50.79" cy="35.53" r="0.5" />
    <circle cx="60.54" cy="39.94" r="0.5" />
    <circle cx="70.29" cy="42.77" r="0.5" />
    <circle cx="80.03" cy="45.14" r="0.5" />
    <circle cx="89.78" cy="47.9" r="0.5" />
    <circle cx="99.53" cy="51.13" r="0.5" />
    <circle cx="109.27" cy="54.28" r="0.5" />
    <circle cx="119.02" cy="56.49" r="0.5" />
    <circle cx="128.77" cy="58.31" r="0.5" />
    <circle cx="138.51" cy="59.87" r="0.5" />
    <circle cx="148.26" cy="62.32" r="0.5" />
    <circle cx="158.01" cy="63.94" r="0.5" />
    <circle cx="167.75" cy="64.17" r="0.5" />
    <circle cx="177.5" cy="64.32" r="0.5" />
    <circle cx="187.25" cy="64.76" r="0.5" />
    <circle cx="196.99" cy="65.07" r="0.5" />
  </g>
  <g fill="#00B5FF" stroke="#008DE0" class="color_group_SWEDEN">
    <circle cx="21.55" cy="62.9" r="0.5" />
    <circle cx="31.3" cy="62.92" r="0.5" />
    <circle cx="41.05" cy="63.97" r="0.5" />
    <circle cx="50.79" cy="64.04" r="0.5" />
    <circle cx="60.54" cy="63.62" r="0.5" />
    <circle cx="70.29" cy="63.8" r="0.5" />
    <circle cx="80.03" cy="64.05" r="0.5" />
    <circle cx="89.78" cy="64.15" r="0.5" />
    <circle cx="99.53" cy="64.14" r="0.5" />
    <circle cx="109.27" cy="64.25" r="0.5" />
    <circle cx="119.02" cy="64.3" r="0.5" />
    <circle cx="128.77" cy="64.43" r="0.5" />
    <circle cx="138.51" cy="64.47" r="0.5" />
    <circle cx="148.26" cy="63.52" r="0.5" />
    <circle cx="158.01" cy="65.74" r="0.5" />
    <circle cx="167.75" cy="64.59" r="0.5" />
    <circle cx="177.5" cy="64.4" r="0.5" />
    <circle cx="187.25" cy="63.51" r="0.5" />
    <circle cx="196.99" cy="62.82" r="0.5" />
  </g>
  <g fill="#00BDFF" stroke="#0094D4" class="color_group_SPAIN">
    <circle cx="21.55" cy="49.9" r="0.5" />
    <circle cx="31.3" cy="52.93" r="0.5" />
    <circle cx="41.05" cy="55.97" r="0.5" />
    <circle cx="50.79" cy="57.53" r="0.5" />
    <circle cx="60.54" cy="58.4" r="0.5" />
    <circle cx="70.29" cy="59.98" r="0.5" />
    <circle cx="80.03" cy="61.94" r="0.5" />
    <circle cx="89.78" cy="62.46" r="0.5" />
    <circle cx="99.53" cy="63.26" r="0.5" />
    <circle cx="109.27" cy="64.21" r="0.5" />
    <circle cx="119.02" cy="64.74" r="0.5" />
    <circle cx="128.77" cy="65.85" r="0.5" />
    <circle cx="138.51" cy="66.16" r="0.5" />
    <circle cx="148.26" cy="65.75" r="0.5" />
    <circle cx="158.01" cy="68.48" r="0.5" />
    <circle cx="167.75" cy="68.78" r="0.5" />
    <circle cx="177.5" cy="69.57" r="0.5" />
    <circle cx="187.25" cy="70.71" r="0.5" />
    <circle cx="196.99" cy="71.28" r="0.5" />
  </g>
  <g fill="#FF838C" stroke="#D95A66" class="color_group_BELGIUM">
    <circle cx="21.55" cy="60.99" r="0.5" />
    <circle cx="31.3" cy="61.74" r="0.5" />
    <circle cx="41.05" cy="62.66" r="0.5" />
    <circle cx="50.79" cy="64.07" r="0.5" />
    <circle cx="60.54" cy="64.2" r="0.5" />
    <circle cx="70.29" cy="65.01" r="0.5" />
    <circle cx="80.03" cy="67.49" r="0.5" />
    <circle cx="89.78" cy="65.86" r="0.5" />
    <circle cx="99.53" cy="67.34" r="0.5" />
    <circle cx="109.27" cy="66.85" r="0.5" />
    <circle cx="119.02" cy="66.55" r="0.5" />
    <circle cx="128.77" cy="66.51" r="0.5" />
    <circle cx="138.51" cy="65.89" r="0.5" />
    <circle cx="148.26" cy="66.06" r="0.5" />
    <circle cx="158.01" cy="67.54" r="0.5" />
    <circle cx="167.75" cy="66.41" r="0.5" />
    <circle cx="177.5" cy="66.67" r="0.5" />
    <circle cx="187.25" cy="66.85" r="0.5" />
    <circle cx="196.99" cy="67.07" r="0.5" />
  </g>
  <g fill="#00C4CB" stroke="#009AA2" class="color_group_NETHERLA">
    <circle cx="21.55" cy="51.85" r="0.5" />
    <circle cx="31.3" cy="53.49" r="0.5" />
    <circle cx="41.05" cy="55.16" r="0.5" />
    <circle cx="50.79" cy="56.94" r="0.5" />
    <circle cx="60.54" cy="58.04" r="0.5" />
    <circle cx="70.29" cy="59.68" r="0.5" />
    <circle cx="80.03" cy="60.91" r="0.5" />
    <circle cx="89.78" cy="61.84" r="0.5" />
    <circle cx="99.53" cy="62.76" r="0.5" />
    <circle cx="109.27" cy="64.33" r="0.5" />
    <circle cx="119.02" cy="64.92" r="0.5" />
    <circle cx="128.77" cy="65.08" r="0.5" />
    <circle cx="138.51" cy="65.7" r="0.5" />
    <circle cx="148.26" cy="66.36" r="0.5" />
    <circle cx="158.01" cy="69.56" r="0.5" />
    <circle cx="167.75" cy="69.43" r="0.5" />
    <circle cx="177.5" cy="68.19" r="0.5" />
    <circle cx="187.25" cy="68.32" r="0.5" />
    <circle cx="196.99" cy="66.32" r="0.5" />
  </g>
  <g fill="#D5A347" stroke="#A97C20" class="color_group_FRANCE">
    <circle cx="21.55" cy="65.84" r="0.5" />
    <circle cx="31.3" cy="66.26" r="0.5" />
    <circle cx="41.05" cy="67.43" r="0.5" />
    <circle cx="50.79" cy="68.09" r="0.5" />
    <circle cx="60.54" cy="68.51" r="0.5" />
    <circle cx="70.29" cy="68.63" r="0.5" />
    <circle cx="80.03" cy="68.84" r="0.5" />
    <circle cx="89.78" cy="68.48" r="0.5" />
    <circle cx="99.53" cy="68.3" r="0.5" />
    <circle cx="109.27" cy="68.39" r="0.5" />
    <circle cx="119.02" cy="67.85" r="0.5" />
    <circle cx="128.77" cy="67.39" r="0.5" />
    <circle cx="138.51" cy="67" r="0.5" />
    <circle cx="148.26" cy="66.27" r="0.5" />
    <circle cx="158.01" cy="67.73" r="0.5" />
    <circle cx="167.75" cy="67.72" r="0.5" />
    <circle cx="177.5" cy="65.84" r="0.5" />
    <circle cx="187.25" cy="67.65" r="0.5" />
    <circle cx="196.99" cy="68.09" r="0.5" />
  </g>
  <g fill="#EE9656" stroke="#C06F31" class="color_group_DENMARK">
    <circle cx="21.55" cy="54.59" r="0.5" />
    <circle cx="31.3" cy="54.95" r="0.5" />
    <circle cx="41.05" cy="56.79" r="0.5" />
    <circle cx="50.79" cy="57.39" r="0.5" />
    <circle cx="60.54" cy="57.91" r="0.5" />
    <circle cx="70.29" cy="59.37" r="0.5" />
    <circle cx="80.03" cy="59.67" r="0.5" />
    <circle cx="89.78" cy="60.24" r="0.5" />
    <circle cx="99.53" cy="61.03" r="0.5" />
    <circle cx="109.27" cy="60.81" r="0.5" />
    <circle cx="119.02" cy="61.66" r="0.5" />
    <circle cx="128.77" cy="62.14" r="0.5" />
    <circle cx="138.51" cy="62.53" r="0.5" />
    <circle cx="148.26" cy="61.49" r="0.5" />
    <circle cx="158.01" cy="64.09" r="0.5" />
    <circle cx="167.75" cy="63.47" r="0.5" />
    <circle cx="177.5" cy="63.95" r="0.5" />
    <circle cx="187.25" cy="63.99" r="0.5" />
    <circle cx="196.99" cy="63.4" r="0.5" />
  </g>
  <g fill="#00C1E9" stroke="#0098BF" class="color_group_NORWAY">
    <circle cx="21.55" cy="55.85" r="0.5" />
    <circle cx="31.3" cy="57.79" r="0.5" />
    <circle cx="41.05" cy="59.66" r="0.5" />
    <circle cx="50.79" cy="60" r="0.5" />
    <circle cx="60.54" cy="60.98" r="0.5" />
    <circle cx="70.29" cy="61.6" r="0.5" />
    <circle cx="80.03" cy="62.49" r="0.5" />
    <circle cx="89.78" cy="62.88" r="0.5" />
    <circle cx="99.53" cy="62.13" r="0.5" />
    <circle cx="109.27" cy="62.45" r="0.5" />
    <circle cx="119.02" cy="62.41" r="0.5" />
    <circle cx="128.77" cy="62.6" r="0.5" />
    <circle cx="138.51" cy="62.63" r="0.5" />
    <circle cx="148.26" cy="62.93" r="0.5" />
    <circle cx="158.01" cy="64.85" r="0.5" />
    <circle cx="167.75" cy="64.17" r="0.5" />
    <circle cx="177.5" cy="64.51" r="0.5" />
    <circle cx="187.25" cy="64.31" r="0.5" />
    <circle cx="196.99" cy="64.05" r="0.5" />
  </g>
  <g fill="#AD9EFF" stroke="#8477D5" class="color_group_TURKEY">
    <circle cx="21.55" cy="23.76" r="0.5" />
    <circle cx="31.3" cy="24.2" r="0.5" />
    <circle cx="41.05" cy="24.61" r="0.5" />
    <circle cx="50.79" cy="24.79" r="0.5" />
    <circle cx="60.54" cy="24.99" r="0.5" />
    <circle cx="70.29" cy="29.57" r="0.5" />
    <circle cx="80.03" cy="23.25" r="0.5" />
    <circle cx="89.78" cy="25.37" r="0.5" />
    <circle cx="99.53" cy="24.76" r="0.5" />
    <circle cx="109.27" cy="31.5" r="0.5" />
    <circle cx="119.02" cy="31.48" r="0.5" />
    <circle cx="128.77" cy="32.47" r="0.5" />
    <circle cx="138.51" cy="34.19" r="0.5" />
    <circle cx="148.26" cy="32.15" r="0.5" />
    <circle cx="158.01" cy="37.05" r="0.5" />
    <circle cx="167.75" cy="37.07" r="0.5" />
    <circle cx="177.5" cy="39.23" r="0.5" />
    <circle cx="187.25" cy="39.22" r="0.5" />
    <circle cx="196.99" cy="42.48" r="0.5" />
  </g>
  <g fill="#96B752" stroke="#6D8E2C" class="color_group_GREECE">
    <circle cx="21.55" cy="44.45" r="0.5" />
    <circle cx="31.3" cy="37.93" r="0.5" />
    <circle cx="41.05" cy="41.59" r="0.5" />
    <circle cx="50.79" cy="43.57" r="0.5" />
    <circle cx="60.54" cy="41.77" r="0.5" />
    <circle cx="70.29" cy="44.87" r="0.5" />
    <circle cx="80.03" cy="44.24" r="0.5" />
    <circle cx="89.78" cy="45.61" r="0.5" />
    <circle cx="99.53" cy="46.21" r="0.5" />
    <circle cx="109.27" cy="47.15" r="0.5" />
    <circle cx="119.02" cy="47.96" r="0.5" />
    <circle cx="128.77" cy="48.72" r="0.5" />
    <circle cx="138.51" cy="49.02" r="0.5" />
    <circle cx="148.26" cy="49.54" r="0.5" />
    <circle cx="158.01" cy="52.2" r="0.5" />
    <circle cx="167.75" cy="53.09" r="0.5" />
    <circle cx="177.5" cy="55" r="0.5" />
    <circle cx="187.25" cy="54.92" r="0.5" />
    <circle cx="196.99" cy="53.75" r="0.5" />
  </g>
  <g fill="#6DBD6A" stroke="#449444" class="color_group_IRELAND">
    <circle cx="21.55" cy="58.97" r="0.5" />
    <circle cx="31.3" cy="59.26" r="0.5" />
    <circle cx="41.05" cy="60.15" r="0.5" />
    <circle cx="50.79" cy="60.75" r="0.5" />
    <circle cx="60.54" cy="60.57" r="0.5" />
    <circle cx="70.29" cy="60.97" r="0.5" />
    <circle cx="80.03" cy="60.91" r="0.5" />
    <circle cx="89.78" cy="60.52" r="0.5" />
    <circle cx="99.53" cy="60.66" r="0.5" />
    <circle cx="109.27" cy="60.14" r="0.5" />
    <circle cx="119.02" cy="59.36" r="0.5" />
    <circle cx="128.77" cy="59.04" r="0.5" />
    <circle cx="138.51" cy="58.97" r="0.5" />
    <circle cx="148.26" cy="59.29" r="0.5" />
    <circle cx="158.01" cy="57.93" r="0.5" />
    <circle cx="167.75" cy="59.39" r="0.5" />
    <circle cx="177.5" cy="59.91" r="0.5" />
    <circle cx="187.25" cy="59.52" r="0.5" />
    <circle cx="196.99" cy="60.33" r="0.5" />
  </g>
  <g fill="#D791EB" stroke="#AD6AC0" class="color_group_U.K.">
    <circle cx="21.55" cy="62.2" r="0.5" />
    <circle cx="31.3" cy="62.42" r="0.5" />
    <circle cx="41.05" cy="63.18" r="0.5" />
    <circle cx="50.79" cy="64.37" r="0.5" />
    <circle cx="60.54" cy="64.53" r="0.5" />
    <circle cx="70.29" cy="64.69" r="0.5" />
    <circle cx="80.03" cy="64.91" r="0.5" />
    <circle cx="89.78" cy="65.16" r="0.5" />
    <circle cx="99.53" cy="64.98" r="0.5" />
    <circle cx="109.27" cy="65.08" r="0.5" />
    <circle cx="119.02" cy="64.48" r="0.5" />
    <circle cx="128.77" cy="64.4" r="0.5" />
    <circle cx="138.51" cy="64.23" r="0.5" />
    <circle cx="148.26" cy="64.18" r="0.5" />
    <circle cx="158.01" cy="64.72" r="0.5" />
    <circle cx="167.75" cy="65.75" r="0.5" />
    <circle cx="177.5" cy="64.81" r="0.5" />
    <circle cx="187.25" cy="65.13" r="0.5" />
    <circle cx="196.99" cy="64.09" r="0.5" />
  </g>
  <g fill="#32C188" stroke="#009862" class="color_group_ITALY">
    <circle cx="21.55" cy="63.13" r="0.5" />
    <circle cx="31.3" cy="63.24" r="0.5" />
    <circle cx="41.05" cy="63.55" r="0.5" />
    <circle cx="50.79" cy="64.79" r="0.5" />
    <circle cx="60.54" cy="65.3" r="0.5" />
    <circle cx="70.29" cy="66.46" r="0.5" />
    <circle cx="80.03" cy="67.45" r="0.5" />
    <circle cx="89.78" cy="68.15" r="0.5" />
    <circle cx="99.53" cy="68.57" r="0.5" />
    <circle cx="109.27" cy="69.07" r="0.5" />
    <circle cx="119.02" cy="69.65" r="0.5" />
    <circle cx="128.77" cy="70.76" r="0.5" />
    <circle cx="138.51" cy="71.12" r="0.5" />
    <circle cx="148.26" cy="70.68" r="0.5" />
    <circle cx="158.01" cy="73.58" r="0.5" />
    <circle cx="167.75" cy="73.27" r="0.5" />
    <circle cx="177.5" cy="74.94" r="0.5" />
    <circle cx="187.25" cy="75.83" r="0.5" />
    <circle cx="196.99" cy="75.56" r="0.5" />
  </g>
</g>
<g fill="none" stroke-width="0.4">
  <g stroke="#B8AE46" class="color_group_GERMANY">
    <path d="M21.55,65.67 L 31.3 66.27 41.05 66.53 50.79 66.96 60.54 66.58 70.29 66.73 80.03 66.35 89.78 66.46 99.53 66.19 109.27 66 119.02 65.94 128.77 65.38 138.51 65.38 148.26 65.53 158.01 66.21 167.75 65.57 177.5 66.06 187.25 66.07 196.99 66.29" />
  </g>
  <g stroke="#FF8B6E" class="color_group_CANADA">
    <path d="M21.55,47.9 L 31.3 48.44 41.05 47.99 50.79 48.22 60.54 48.19 70.29 47.98 80.03 47.6 89.78 47.95 99.53 47.64 109.27 47.72 119.02 47.06 128.77 47.14 138.51 47.25 148.26 47.05 158.01 47.21 167.75 47.27 177.5 48.23 187.25 48.73 196.99 47.88" />
  </g>
  <g stroke="#73ABFF" class="color_group_SWITZERL">
    <path d="M21.55,56.56 L 31.3 55.74 41.05 58.66 50.79 58.18 60.54 58.16 70.29 58.63 80.03 59.05 89.78 59.06 99.53 59.97 109.27 60.09 119.02 59.83 128.77 58.78 138.51 59.19 148.26 59.74 158.01 60.94 167.75 61.81 177.5 62.59 187.25 62.19 196.99 63.15" />
  </g>
  <g stroke="#FF81AD" class="color_group_AUSTRIA">
    <path d="M21.55,60.81 L 31.3 62.18 41.05 62.71 50.79 62.97 60.54 63.38 70.29 63.45 80.03 63.19 89.78 63.09 99.53 63.23 109.27 63.22 119.02 62.56 128.77 62.07 138.51 61.67 148.26 60.32 158.01 63.74 167.75 63.55 177.5 64.37 187.25 65.39 196.99 65.56" />
  </g>
  <g stroke="#F486CE" class="color_group_U.S.A.">
    <path d="M21.55,48.49 L 31.3 49.01 41.05 48.96 50.79 49.17 60.54 48.79 70.29 48.83 80.03 48.8 89.78 48.93 99.53 48.3 109.27 48.16 119.02 48.02 128.77 47.8 138.51 47.92 148.26 48.06 158.01 48.97 167.75 48.85 177.5 48.66 187.25 48.73 196.99 48.59" />
  </g>
  <g stroke="#00C3AA" class="color_group_JAPAN">
    <path d="M21.55,26.3 L 31.3 30.79 41.05 33 50.79 35.53 60.54 39.94 70.29 42.77 80.03 45.14 89.78 47.9 99.53 51.13 109.27 54.28 119.02 56.49 128.77 58.31 138.51 59.87 148.26 62.32 158.01 63.94 167.75 64.17 177.5 64.32 187.25 64.76 196.99 65.07" />
  </g>
  <g stroke="#00B5FF" class="color_group_SWEDEN">
    <path d="M21.55,62.9 L 31.3 62.92 41.05 63.97 50.79 64.04 60.54 63.62 70.29 63.8 80.03 64.05 89.78 64.15 99.53 64.14 109.27 64.25 119.02 64.3 128.77 64.43 138.51 64.47 148.26 63.52 158.01 65.74 167.75 64.59 177.5 64.4 187.25 63.51 196.99 62.82" />
  </g>
  <g stroke="#00BDFF" class="color_group_SPAIN">
    <path d="M21.55,49.9 L 31.3 52.93 41.05 55.97 50.79 57.53 60.54 58.4 70.29 59.98 80.03 61.94 89.78 62.46 99.53 63.26 109.27 64.21 119.02 64.74 128.77 65.85 138.51 66.16 148.26 65.75 158.01 68.48 167.75 68.78 177.5 69.57 187.25 70.71 196.99 71.28" />
  </g>
  <g stroke="#FF838C" class="color_group_BELGIUM">
    <path d="M21.55,60.99 L 31.3 61.74 41.05 62.66 50.79 64.07 60.54 64.2 70.29 65.01 80.03 67.49 89.78 65.86 99.53 67.34 109.27 66.85 119.02 66.55 128.77 66.51 138.51 65.89 148.26 66.06 158.01 67.54 167.75 66.41 177.5 66.67 187.25 66.85 196.99 67.07" />
  </g>
  <g stroke="#00C4CB" class="color_group_NETHERLA">
    <path d="M21.55,51.85 L 31.3 53.49 41.05 55.16 50.79 56.94 60.54 58.04 70.29 59.68 80.03 60.91 89.78 61.84 99.53 62.76 109.27 64.33 119.02 64.92 128.77 65.08 138.51 65.7 148.26 66.36 158.01 69.56 167.75 69.43 177.5 68.19 187.25 68.32 196.99 66.32" />
  </g>
  <g stroke="#D5A347" class="color_group_FRANCE">
    <path d="M21.55,65.84 L 31.3 66.26 41.05 67.43 50.79 68.09 60.54 68.51 70.29 68.63 80.03 68.84 89.78 68.48 99.53 68.3 109.27 68.39 119.02 67.85 128.77 67.39 138.51 67 148.26 66.27 158.01 67.73 167.75 67.72 177.5 65.84 187.25 67.65 196.99 68.09" />
  </g>
  <g stroke="#EE9656" class="color_group_DENMARK">
    <path d="M21.55,54.59 L 31.3 54.95 41.05 56.79 50.79 57.39 60.54 57.91 70.29 59.37 80.03 59.67 89.78 60.24 99.53 61.03 109.27 60.81 119.02 61.66 128.77 62.14 138.51 62.53 148.26 61.49 158.01 64.09 167.75 63.47 177.5 63.95 187.25 63.99 196.99 63.4" />
  </g>
  <g stroke="#00C1E9" class="color_group_NORWAY">
    <path d="M21.55,55.85 L 31.3 57.79 41.05 59.66 50.79 60 60.54 60.98 70.29 61.6 80.03 62.49 89.78 62.88 99.53 62.13 109.27 62.45 119.02 62.41 128.77 62.6 138.51 62.63 148.26 62.93 158.01 64.85 167.75 64.17 177.5 64.51 187.25 64.31 196.99 64.05" />
  </g>
  <g stroke="#AD9EFF" class="color_group_TURKEY">
    <path d="M21.55,23.76 L 31.3 24.2 41.05 24.61 50.79 24.79 60.54 24.99 70.29 29.57 80.03 23.25 89.78 25.37 99.53 24.76 109.27 31.5 119.02 31.48 128.77 32.47 138.51 34.19 148.26 32.15 158.01 37.05 167.75 37.07 177.5 39.23 187.25 39.22 196.99 42.48" />
  </g>
  <g stroke="#96B752" class="color_group_GREECE">
    <path d="M21.55,44.45 L 31.3 37.93 41.05 41.59 50.79 43.57 60.54 41.77 70.29 44.87 80.03 44.24 89.78 45.61 99.53 46.21 109.27 47.15 119.02 47.96 128.77 48.72 138.51 49.02 148.26 49.54 158.01 52.2 167.75 53.09 177.5 55 187.25 54.92 196.99 53.75" />
  </g>
  <g stroke="#6DBD6A" class="color_group_IRELAND">
    <path d="M21.55,58.97 L 31.3 59.26 41.05 60.15 50.79 60.75 60.54 60.57 70.29 60.97 80.03 60.91 89.78 60.52 99.53 60.66 109.27 60.14 119.02 59.36 128.77 59.04 138.51 58.97 148.26 59.29 158.01 57.93 167.75 59.39 177.5 59.91 187.25 59.52 196.99 60.33" />
  </g>
  <g stroke="#D791EB" class="color_group_U.K.">
    <path d="M21.55,62.2 L 31.3 62.42 41.05 63.18 50.79 64.37 60.54 64.53 70.29 64.69 80.03 64.91 89.78 65.16 99.53 64.98 109.27 65.08 119.02 64.48 128.77 64.4 138.51 64.23 148.26 64.18 158.01 64.72 167.75 65.75 177.5 64.81 187.25 65.13 196.99 64.09" />
  </g>
  <g stroke="#32C188" class="color_group_ITALY">
    <path d="M21.55,63.13 L 31.3 63.24 41.05 63.55 50.79 64.79 60.54 65.3 70.29 66.46 80.03 67.45 89.78 68.15 99.53 68.57 109.27 69.07 119.02 69.65 128.77 70.76 138.51 71.12 148.26 70.68 158.01 73.58 167.75 73.27 177.5 74.94 187.25 75.83 196.99 75.56" />
  </g>
</g>
<g font-family="PT Sans Caption" font-size="3.18">
  <a xlink:href="#"><g id="color_key_U.K." onclick="js_chunk_2eb6af41353ad3b9(evt)">
    <g fill="#D791EB" stroke="#AD6AC0" stroke-width="0.3">
      <path d="M 204.26 74.03 L 206.73 74.03 206.73 76.5 204.26 76.5 z" />
    </g>
    <g stroke="none" fill="#4C404B">
      <text x="207.73" y="75.26" style="dominant-baseline:central">U.K.</text>
    </g>
  </g></a>
  <a xlink:href="#"><g id="color_key_SWITZERL" onclick="js_chunk_876041c0668df042(evt)">
    <g fill="#73ABFF" stroke="#4184E0" stroke-width="0.3">
      <path d="M 204.26 67.09 L 206.73 67.09 206.73 69.56 204.26 69.56 z" />
    </g>
    <g stroke="none" fill="#4C404B">
      <text x="207.73" y="68.32" style="dominant-baseline:central">SWITZERL</text>
    </g>
  </g></a>
  <a xlink:href="#"><g id="color_key_SPAIN" onclick="js_chunk_c61bed256405d63f(evt)">
    <g fill="#00BDFF" stroke="#0094D4" stroke-width="0.3">
      <path d="M 204.26 60.15 L 206.73 60.15 206.73 62.62 204.26 62.62 z" />
    </g>
    <g stroke="none" fill="#4C404B">
      <text x="207.73" y="61.38" style="dominant-baseline:central">SPAIN</text>
    </g>
  </g></a>
  <a xlink:href="#"><g id="color_key_NETHERLA" onclick="js_chunk_1fb6331e173a4e97(evt)">
    <g fill="#00C4CB" stroke="#009AA2" stroke-width="0.3">
      <path d="M 204.26 53.21 L 206.73 53.21 206.73 55.68 204.26 55.68 z" />
    </g>
    <g stroke="none" fill="#4C404B">
      <text x="207.73" y="54.45" style="dominant-baseline:central">NETHERLA</text>
    </g>
  </g></a>
  <a xlink:href="#"><g id="color_key_ITALY" onclick="js_chunk_c0d79a62597d033d(evt)">
    <g fill="#32C188" stroke="#009862" stroke-width="0.3">
      <path d="M 204.26 46.27 L 206.73 46.27 206.73 48.74 204.26 48.74 z" />
    </g>
    <g stroke="none" fill="#4C404B">
      <text x="207.73" y="47.51" style="dominant-baseline:central">ITALY</text>
    </g>
  </g></a>
  <a xlink:href="#"><g id="color_key_GREECE" onclick="js_chunk_b56d915bc2ac255c(evt)">
    <g fill="#96B752" stroke="#6D8E2C" stroke-width="0.3">
      <path d="M 204.26 39.33 L 206.73 39.33 206.73 41.8 204.26 41.8 z" />
    </g>
    <g stroke="none" fill="#4C404B">
      <text x="207.73" y="40.57" style="dominant-baseline:central">GREECE</text>
    </g>
  </g></a>
  <a xlink:href="#"><g id="color_key_FRANCE" onclick="js_chunk_f1eeaddebbae504d(evt)">
    <g fill="#D5A347" stroke="#A97C20" stroke-width="0.3">
      <path d="M 204.26 32.39 L 206.73 32.39 206.73 34.86 204.26 34.86 z" />
    </g>
    <g stroke="none" fill="#4C404B">
      <text x="207.73" y="33.63" style="dominant-baseline:central">FRANCE</text>
    </g>
  </g></a>
  <a xlink:href="#"><g id="color_key_CANADA" onclick="js_chunk_966120e5049322b7(evt)">
    <g fill="#FF8B6E" stroke="#D1634A" stroke-width="0.3">
      <path d="M 204.26 25.46 L 206.73 25.46 206.73 27.92 204.26 27.92 z" />
    </g>
    <g stroke="none" fill="#4C404B">
      <text x="207.73" y="26.69" style="dominant-baseline:central">CANADA</text>
    </g>
  </g></a>
  <a xlink:href="#"><g id="color_key_AUSTRIA" onclick="js_chunk_72d639b33d7d4600(evt)">
    <g fill="#FF81AD" stroke="#D65886" stroke-width="0.3">
      <path d="M 204.26 18.52 L 206.73 18.52 206.73 20.99 204.26 20.99 z" />
    </g>
    <g stroke="none" fill="#4C404B">
      <text x="207.73" y="19.75" style="dominant-baseline:central">AUSTRIA</text>
    </g>
  </g></a>
  <a xlink:href="#"><g id="color_key_BELGIUM" onclick="js_chunk_f65fed5e4490b1c4(evt)">
    <g fill="#FF838C" stroke="#D95A66" stroke-width="0.3">
      <path d="M 204.26 21.99 L 206.73 21.99 206.73 24.46 204.26 24.46 z" />
    </g>
    <g stroke="none" fill="#4C404B">
      <text x="207.73" y="23.22" style="dominant-baseline:central">BELGIUM</text>
    </g>
  </g></a>
  <a xlink:href="#"><g id="color_key_DENMARK" onclick="js_chunk_3bec7cec4fa9e4a3(evt)">
    <g fill="#EE9656" stroke="#C06F31" stroke-width="0.3">
      <path d="M 204.26 28.92 L 206.73 28.92 206.73 31.39 204.26 31.39 z" />
    </g>
    <g stroke="none" fill="#4C404B">
      <text x="207.73" y="30.16" style="dominant-baseline:central">DENMARK</text>
    </g>
  </g></a>
  <a xlink:href="#"><g id="color_key_GERMANY" onclick="js_chunk_eaa435612d1963c2(evt)">
    <g fill="#B8AE46" stroke="#8D861D" stroke-width="0.3">
      <path d="M 204.26 35.86 L 206.73 35.86 206.73 38.33 204.26 38.33 z" />
    </g>
    <g stroke="none" fill="#4C404B">
      <text x="207.73" y="37.1" style="dominant-baseline:central">GERMANY</text>
    </g>
  </g></a>
  <a xlink:href="#"><g id="color_key_IRELAND" onclick="js_chunk_22cb4fe49d646460(evt)">
    <g fill="#6DBD6A" stroke="#449444" stroke-width="0.3">
      <path d="M 204.26 42.8 L 206.73 42.8 206.73 45.27 204.26 45.27 z" />
    </g>
    <g stroke="none" fill="#4C404B">
      <text x="207.73" y="44.04" style="dominant-baseline:central">IRELAND</text>
    </g>
  </g></a>
  <a xlink:href="#"><g id="color_key_JAPAN" onclick="js_chunk_40d43632d9763f48(evt)">
    <g fill="#00C3AA" stroke="#009A82" stroke-width="0.3">
      <path d="M 204.26 49.74 L 206.73 49.74 206.73 52.21 204.26 52.21 z" />
    </g>
    <g stroke="none" fill="#4C404B">
      <text x="207.73" y="50.98" style="dominant-baseline:central">JAPAN</text>
    </g>
  </g></a>
  <a xlink:href="#"><g id="color_key_NORWAY" onclick="js_chunk_2a7234bfacb25b82(evt)">
    <g fill="#00C1E9" stroke="#0098BF" stroke-width="0.3">
      <path d="M 204.26 56.68 L 206.73 56.68 206.73 59.15 204.26 59.15 z" />
    </g>
    <g stroke="none" fill="#4C404B">
      <text x="207.73" y="57.92" style="dominant-baseline:central">NORWAY</text>
    </g>
  </g></a>
  <a xlink:href="#"><g id="color_key_SWEDEN" onclick="js_chunk_64e6682aa19ad62f(evt)">
    <g fill="#00B5FF" stroke="#008DE0" stroke-width="0.3">
      <path d="M 204.26 63.62 L 206.73 63.62 206.73 66.09 204.26 66.09 z" />
    </g>
    <g stroke="none" fill="#4C404B">
      <text x="207.73" y="64.85" style="dominant-baseline:central">SWEDEN</text>
    </g>
  </g></a>
  <a xlink:href="#"><g id="color_key_TURKEY" onclick="js_chunk_8e6e70c174aa5838(evt)">
    <g fill="#AD9EFF" stroke="#8477D5" stroke-width="0.3">
      <path d="M 204.26 70.56 L 206.73 70.56 206.73 73.03 204.26 73.03 z" />
    </g>
    <g stroke="none" fill="#4C404B">
      <text x="207.73" y="71.79" style="dominant-baseline:central">TURKEY</text>
    </g>
  </g></a>
  <a xlink:href="#"><g id="color_key_U.S.A." onclick="js_chunk_dbdf03bb0f8b81c6(evt)">
    <g fill="#F486CE" stroke="#C85EA5" stroke-width="0.3">
      <path d="M 204.26 77.5 L 206.73 77.5 206.73 79.97 204.26 79.97 z" />
    </g>
    <g stroke="none" fill="#4C404B">
      <text x="207.73" y="78.73" style="dominant-baseline:central">U.S.A.</text>
    </g>
  </g></a>
</g>
<g stroke="none" font-family="PT Sans" font-size="3.88" fill="#362A35">
  <text x="212.93" y="16.52" text-anchor="middle">country</text>
</g>
<g stroke="none" fill="#4C404B" font-family="PT Sans Caption" font-size="3.18">
  <text x="109.27" y="88.78" text-anchor="middle">1969</text>
  <text x="158.01" y="88.78" text-anchor="middle">1974</text>
  <text x="50.79" y="88.78" text-anchor="middle">1963</text>
  <text x="41.05" y="88.78" text-anchor="middle">1962</text>
  <text x="99.53" y="88.78" text-anchor="middle">1968</text>
  <text x="70.29" y="88.78" text-anchor="middle">1965</text>
  <text x="21.55" y="88.78" text-anchor="middle">1960</text>
  <text x="89.78" y="88.78" text-anchor="middle">1967</text>
  <text x="167.75" y="88.78" text-anchor="middle">1975</text>
  <text x="60.54" y="88.78" text-anchor="middle">1964</text>
  <text x="128.77" y="88.78" text-anchor="middle">1971</text>
  <text x="177.5" y="88.78" text-anchor="middle">1976</text>
  <text x="196.99" y="88.78" text-anchor="middle">1978</text>
  <text x="119.02" y="88.78" text-anchor="middle">1970</text>
  <text x="148.26" y="88.78" text-anchor="middle">1973</text>
  <text x="80.03" y="88.78" text-anchor="middle">1966</text>
  <text x="138.51" y="88.78" text-anchor="middle">1972</text>
  <text x="31.3" y="88.78" text-anchor="middle">1961</text>
  <text x="187.25" y="88.78" text-anchor="middle">1977</text>
</g>
<g stroke="none" fill="#362A35" font-family="PT Sans" font-size="3.88">
  <text x="109.27" y="94.6" text-anchor="middle">year</text>
</g>
<g stroke="none" fill="#362A35" font-family="PT Sans" font-size="3.88">
  <text x="8.76" y="45.15" text-anchor="middle" style="dominant-baseline:central" transform="rotate(-90, 8.76, 45.15)">lgaspcar</text>
</g>
<g stroke="none" fill="#4C404B" font-family="PT Sans Caption" font-size="3.18">
  <text x="15.29" y="7.27" text-anchor="end" style="dominant-baseline:central">7</text>
  <text x="15.29" y="64.09" text-anchor="end" style="dominant-baseline:central">4</text>
  <text x="15.29" y="45.15" text-anchor="end" style="dominant-baseline:central">5</text>
  <text x="15.29" y="26.21" text-anchor="end" style="dominant-baseline:central">6</text>
  <text x="15.29" y="83.04" text-anchor="end" style="dominant-baseline:central">3</text>
</g>
<script type="application/ecmascript"><![CDATA[
function js_chunk_2eb6af41353ad3b9(evt) {
  geoms = document.getElementsByClassName('color_group_U.K.');
                        entry = document.getElementById('color_key_U.K.');
                        state = geoms[0].getAttribute('visibility');
                        if (!state || state == 'visible') {
                            for (i = 0; i < geoms.length; ++i) {
                                geoms[i].setAttribute('visibility', 'hidden');
                            }
                            entry.setAttribute('opacity', 0.5);
                        } else {
                            for (i = 0; i < geoms.length; ++i) {
                                geoms[i].setAttribute('visibility', 'visible');
                            }
                            entry.setAttribute('opacity', 1.0);
                        }
}

function js_chunk_40d43632d9763f48(evt) {
  geoms = document.getElementsByClassName('color_group_JAPAN');
                        entry = document.getElementById('color_key_JAPAN');
                        state = geoms[0].getAttribute('visibility');
                        if (!state || state == 'visible') {
                            for (i = 0; i < geoms.length; ++i) {
                                geoms[i].setAttribute('visibility', 'hidden');
                            }
                            entry.setAttribute('opacity', 0.5);
                        } else {
                            for (i = 0; i < geoms.length; ++i) {
                                geoms[i].setAttribute('visibility', 'visible');
                            }
                            entry.setAttribute('opacity', 1.0);
                        }
}

function js_chunk_3bec7cec4fa9e4a3(evt) {
  geoms = document.getElementsByClassName('color_group_DENMARK');
                        entry = document.getElementById('color_key_DENMARK');
                        state = geoms[0].getAttribute('visibility');
                        if (!state || state == 'visible') {
                            for (i = 0; i < geoms.length; ++i) {
                                geoms[i].setAttribute('visibility', 'hidden');
                            }
                            entry.setAttribute('opacity', 0.5);
                        } else {
                            for (i = 0; i < geoms.length; ++i) {
                                geoms[i].setAttribute('visibility', 'visible');
                            }
                            entry.setAttribute('opacity', 1.0);
                        }
}

function js_chunk_dbdf03bb0f8b81c6(evt) {
  geoms = document.getElementsByClassName('color_group_U.S.A.');
                        entry = document.getElementById('color_key_U.S.A.');
                        state = geoms[0].getAttribute('visibility');
                        if (!state || state == 'visible') {
                            for (i = 0; i < geoms.length; ++i) {
                                geoms[i].setAttribute('visibility', 'hidden');
                            }
                            entry.setAttribute('opacity', 0.5);
                        } else {
                            for (i = 0; i < geoms.length; ++i) {
                                geoms[i].setAttribute('visibility', 'visible');
                            }
                            entry.setAttribute('opacity', 1.0);
                        }
}

function js_chunk_72d639b33d7d4600(evt) {
  geoms = document.getElementsByClassName('color_group_AUSTRIA');
                        entry = document.getElementById('color_key_AUSTRIA');
                        state = geoms[0].getAttribute('visibility');
                        if (!state || state == 'visible') {
                            for (i = 0; i < geoms.length; ++i) {
                                geoms[i].setAttribute('visibility', 'hidden');
                            }
                            entry.setAttribute('opacity', 0.5);
                        } else {
                            for (i = 0; i < geoms.length; ++i) {
                                geoms[i].setAttribute('visibility', 'visible');
                            }
                            entry.setAttribute('opacity', 1.0);
                        }
}

function js_chunk_876041c0668df042(evt) {
  geoms = document.getElementsByClassName('color_group_SWITZERL');
                        entry = document.getElementById('color_key_SWITZERL');
                        state = geoms[0].getAttribute('visibility');
                        if (!state || state == 'visible') {
                            for (i = 0; i < geoms.length; ++i) {
                                geoms[i].setAttribute('visibility', 'hidden');
                            }
                            entry.setAttribute('opacity', 0.5);
                        } else {
                            for (i = 0; i < geoms.length; ++i) {
                                geoms[i].setAttribute('visibility', 'visible');
                            }
                            entry.setAttribute('opacity', 1.0);
                        }
}

function js_chunk_966120e5049322b7(evt) {
  geoms = document.getElementsByClassName('color_group_CANADA');
                        entry = document.getElementById('color_key_CANADA');
                        state = geoms[0].getAttribute('visibility');
                        if (!state || state == 'visible') {
                            for (i = 0; i < geoms.length; ++i) {
                                geoms[i].setAttribute('visibility', 'hidden');
                            }
                            entry.setAttribute('opacity', 0.5);
                        } else {
                            for (i = 0; i < geoms.length; ++i) {
                                geoms[i].setAttribute('visibility', 'visible');
                            }
                            entry.setAttribute('opacity', 1.0);
                        }
}

function js_chunk_2a7234bfacb25b82(evt) {
  geoms = document.getElementsByClassName('color_group_NORWAY');
                        entry = document.getElementById('color_key_NORWAY');
                        state = geoms[0].getAttribute('visibility');
                        if (!state || state == 'visible') {
                            for (i = 0; i < geoms.length; ++i) {
                                geoms[i].setAttribute('visibility', 'hidden');
                            }
                            entry.setAttribute('opacity', 0.5);
                        } else {
                            for (i = 0; i < geoms.length; ++i) {
                                geoms[i].setAttribute('visibility', 'visible');
                            }
                            entry.setAttribute('opacity', 1.0);
                        }
}

function js_chunk_8e6e70c174aa5838(evt) {
  geoms = document.getElementsByClassName('color_group_TURKEY');
                        entry = document.getElementById('color_key_TURKEY');
                        state = geoms[0].getAttribute('visibility');
                        if (!state || state == 'visible') {
                            for (i = 0; i < geoms.length; ++i) {
                                geoms[i].setAttribute('visibility', 'hidden');
                            }
                            entry.setAttribute('opacity', 0.5);
                        } else {
                            for (i = 0; i < geoms.length; ++i) {
                                geoms[i].setAttribute('visibility', 'visible');
                            }
                            entry.setAttribute('opacity', 1.0);
                        }
}

function js_chunk_c61bed256405d63f(evt) {
  geoms = document.getElementsByClassName('color_group_SPAIN');
                        entry = document.getElementById('color_key_SPAIN');
                        state = geoms[0].getAttribute('visibility');
                        if (!state || state == 'visible') {
                            for (i = 0; i < geoms.length; ++i) {
                                geoms[i].setAttribute('visibility', 'hidden');
                            }
                            entry.setAttribute('opacity', 0.5);
                        } else {
                            for (i = 0; i < geoms.length; ++i) {
                                geoms[i].setAttribute('visibility', 'visible');
                            }
                            entry.setAttribute('opacity', 1.0);
                        }
}

function js_chunk_64e6682aa19ad62f(evt) {
  geoms = document.getElementsByClassName('color_group_SWEDEN');
                        entry = document.getElementById('color_key_SWEDEN');
                        state = geoms[0].getAttribute('visibility');
                        if (!state || state == 'visible') {
                            for (i = 0; i < geoms.length; ++i) {
                                geoms[i].setAttribute('visibility', 'hidden');
                            }
                            entry.setAttribute('opacity', 0.5);
                        } else {
                            for (i = 0; i < geoms.length; ++i) {
                                geoms[i].setAttribute('visibility', 'visible');
                            }
                            entry.setAttribute('opacity', 1.0);
                        }
}

function js_chunk_eaa435612d1963c2(evt) {
  geoms = document.getElementsByClassName('color_group_GERMANY');
                        entry = document.getElementById('color_key_GERMANY');
                        state = geoms[0].getAttribute('visibility');
                        if (!state || state == 'visible') {
                            for (i = 0; i < geoms.length; ++i) {
                                geoms[i].setAttribute('visibility', 'hidden');
                            }
                            entry.setAttribute('opacity', 0.5);
                        } else {
                            for (i = 0; i < geoms.length; ++i) {
                                geoms[i].setAttribute('visibility', 'visible');
                            }
                            entry.setAttribute('opacity', 1.0);
                        }
}

function js_chunk_f1eeaddebbae504d(evt) {
  geoms = document.getElementsByClassName('color_group_FRANCE');
                        entry = document.getElementById('color_key_FRANCE');
                        state = geoms[0].getAttribute('visibility');
                        if (!state || state == 'visible') {
                            for (i = 0; i < geoms.length; ++i) {
                                geoms[i].setAttribute('visibility', 'hidden');
                            }
                            entry.setAttribute('opacity', 0.5);
                        } else {
                            for (i = 0; i < geoms.length; ++i) {
                                geoms[i].setAttribute('visibility', 'visible');
                            }
                            entry.setAttribute('opacity', 1.0);
                        }
}

function js_chunk_c0d79a62597d033d(evt) {
  geoms = document.getElementsByClassName('color_group_ITALY');
                        entry = document.getElementById('color_key_ITALY');
                        state = geoms[0].getAttribute('visibility');
                        if (!state || state == 'visible') {
                            for (i = 0; i < geoms.length; ++i) {
                                geoms[i].setAttribute('visibility', 'hidden');
                            }
                            entry.setAttribute('opacity', 0.5);
                        } else {
                            for (i = 0; i < geoms.length; ++i) {
                                geoms[i].setAttribute('visibility', 'visible');
                            }
                            entry.setAttribute('opacity', 1.0);
                        }
}

function js_chunk_1fb6331e173a4e97(evt) {
  geoms = document.getElementsByClassName('color_group_NETHERLA');
                        entry = document.getElementById('color_key_NETHERLA');
                        state = geoms[0].getAttribute('visibility');
                        if (!state || state == 'visible') {
                            for (i = 0; i < geoms.length; ++i) {
                                geoms[i].setAttribute('visibility', 'hidden');
                            }
                            entry.setAttribute('opacity', 0.5);
                        } else {
                            for (i = 0; i < geoms.length; ++i) {
                                geoms[i].setAttribute('visibility', 'visible');
                            }
                            entry.setAttribute('opacity', 1.0);
                        }
}

function js_chunk_b56d915bc2ac255c(evt) {
  geoms = document.getElementsByClassName('color_group_GREECE');
                        entry = document.getElementById('color_key_GREECE');
                        state = geoms[0].getAttribute('visibility');
                        if (!state || state == 'visible') {
                            for (i = 0; i < geoms.length; ++i) {
                                geoms[i].setAttribute('visibility', 'hidden');
                            }
                            entry.setAttribute('opacity', 0.5);
                        } else {
                            for (i = 0; i < geoms.length; ++i) {
                                geoms[i].setAttribute('visibility', 'visible');
                            }
                            entry.setAttribute('opacity', 1.0);
                        }
}

function js_chunk_f65fed5e4490b1c4(evt) {
  geoms = document.getElementsByClassName('color_group_BELGIUM');
                        entry = document.getElementById('color_key_BELGIUM');
                        state = geoms[0].getAttribute('visibility');
                        if (!state || state == 'visible') {
                            for (i = 0; i < geoms.length; ++i) {
                                geoms[i].setAttribute('visibility', 'hidden');
                            }
                            entry.setAttribute('opacity', 0.5);
                        } else {
                            for (i = 0; i < geoms.length; ++i) {
                                geoms[i].setAttribute('visibility', 'visible');
                            }
                            entry.setAttribute('opacity', 1.0);
                        }
}

function js_chunk_22cb4fe49d646460(evt) {
  geoms = document.getElementsByClassName('color_group_IRELAND');
                        entry = document.getElementById('color_key_IRELAND');
                        state = geoms[0].getAttribute('visibility');
                        if (!state || state == 'visible') {
                            for (i = 0; i < geoms.length; ++i) {
                                geoms[i].setAttribute('visibility', 'hidden');
                            }
                            entry.setAttribute('opacity', 0.5);
                        } else {
                            for (i = 0; i < geoms.length; ++i) {
                                geoms[i].setAttribute('visibility', 'visible');
                            }
                            entry.setAttribute('opacity', 1.0);
                        }
}

]]></script></svg>
