<?xml version="1.0" encoding="UTF-8"?>
<svg xmlns="http://www.w3.org/2000/svg" xmlns:xlink="http://www.w3.org/1999/xlink" version="1.1" width="177.8mm" height="101.6mm" viewBox="0 0 177.8 101.6" style="stroke:black;fill:black" stroke-width="0.5">
<g stroke="none" fill="#F2F2F2">
  <path d="M 12.113889 2 L 175.8 2 175.8 95.130556 12.113889 95.130556 z" />
</g>
<g stroke="#FFFFFF">
  <path d="M140.283202,2 L 140.283202 95.130556" />
  <path d="M171.167374,2 L 171.167374 95.130556" />
  <path d="M47.630687,2 L 47.630687 95.130556" />
  <path d="M109.39903,2 L 109.39903 95.130556" />
  <path d="M78.514858,2 L 78.514858 95.130556" />
  <path d="M16.746515,2 L 16.746515 95.130556" />
</g>
<g stroke="#FFFFFF">
  <path d="M12.113889,26.600524 L 175.8 26.600524" />
  <path d="M12.113889,4.63577 L 175.8 4.63577" />
  <path d="M12.113889,70.530031 L 175.8 70.530031" />
  <path d="M12.113889,48.565278 L 175.8 48.565278" />
  <path d="M12.113889,92.494785 L 175.8 92.494785" />
</g>
<g fill="#4682B4" stroke="none">
  <path d="M 150.687404 92.494785 L 153.120235 92.494785 153.120235 92.483803 150.687404 92.483803 z" />
  <path d="M 147.984258 92.494785 L 150.417089 92.494785 150.417089 92.494785 147.984258 92.494785 z" />
  <path d="M 145.281112 92.494785 L 147.713943 92.494785 147.713943 92.47282 145.281112 92.47282 z" />
  <path d="M 142.577966 92.494785 L 145.010797 92.494785 145.010797 92.395944 142.577966 92.395944 z" />
  <path d="M 139.874819 92.494785 L 142.307651 92.494785 142.307651 92.373979 139.874819 92.373979 z" />
  <path d="M 137.171673 92.494785 L 139.604505 92.494785 139.604505 92.319067 137.171673 92.319067 z" />
  <path d="M 134.468527 92.494785 L 136.901359 92.494785 136.901359 92.088437 134.468527 92.088437 z" />
  <path d="M 131.765381 92.494785 L 134.198213 92.494785 134.198213 91.682089 131.765381 91.682089 z" />
  <path d="M 129.062235 92.494785 L 131.495067 92.494785 131.495067 91.429495 129.062235 91.429495 z" />
  <path d="M 126.359089 92.494785 L 128.79192 92.494785 128.79192 90.693675 126.359089 90.693675 z" />
  <path d="M 123.655943 92.494785 L 126.088774 92.494785 126.088774 89.452667 123.655943 89.452667 z" />
  <path d="M 120.952797 92.494785 L 123.385628 92.494785 123.385628 87.882187 120.952797 87.882187 z" />
  <path d="M 118.249651 92.494785 L 120.682482 92.494785 120.682482 86.026165 118.249651 86.026165 z" />
  <path d="M 115.546505 92.494785 L 117.979336 92.494785 117.979336 82.918153 115.546505 82.918153 z" />
  <path d="M 112.843358 92.494785 L 115.27619 92.494785 115.27619 79.129233 112.843358 79.129233 z" />
  <path d="M 110.140212 92.494785 L 112.573044 92.494785 112.573044 74.307969 110.140212 74.307969 z" />
  <path d="M 107.437066 92.494785 L 109.869898 92.494785 109.869898 69.113305 107.437066 69.113305 z" />
  <path d="M 104.73392 92.494785 L 107.166752 92.494785 107.166752 61.315817 104.73392 61.315817 z" />
  <path d="M 102.030774 92.494785 L 104.463606 92.494785 104.463606 53.924678 102.030774 53.924678 z" />
  <path d="M 99.327628 92.494785 L 101.760459 92.494785 101.760459 45.369406 99.327628 45.369406 z" />
  <path d="M 96.624482 92.494785 L 99.057313 92.494785 99.057313 37.538971 96.624482 37.538971 z" />
  <path d="M 93.921336 92.494785 L 96.354167 92.494785 96.354167 29.851308 93.921336 29.851308 z" />
  <path d="M 91.21819 92.494785 L 93.651021 92.494785 93.651021 23.053216 91.21819 23.053216 z" />
  <path d="M 88.515044 92.494785 L 90.947875 92.494785 90.947875 17.924446 88.515044 17.924446 z" />
  <path d="M 85.811897 92.494785 L 88.244729 92.494785 88.244729 18.49553 85.811897 18.49553 z" />
  <path d="M 83.108751 92.494785 L 85.541583 92.494785 85.541583 14.574821 83.108751 14.574821 z" />
  <path d="M 80.405605 92.494785 L 82.838437 92.494785 82.838437 19.077596 80.405605 19.077596 z" />
  <path d="M 77.702459 92.494785 L 80.135291 92.494785 80.135291 22.119714 77.702459 22.119714 z" />
  <path d="M 74.999313 92.494785 L 77.432145 92.494785 77.432145 27.259467 74.999313 27.259467 z" />
  <path d="M 72.296167 92.494785 L 74.728998 92.494785 74.728998 35.17776 72.296167 35.17776 z" />
  <path d="M 69.593021 92.494785 L 72.025852 92.494785 72.025852 43.096054 69.593021 43.096054 z" />
  <path d="M 66.889875 92.494785 L 69.322706 92.494785 69.322706 51.124172 66.889875 51.124172 z" />
  <path d="M 64.186729 92.494785 L 66.61956 92.494785 66.61956 58.339593 64.186729 58.339593 z" />
  <path d="M 61.483583 92.494785 L 63.916414 92.494785 63.916414 66.807006 61.483583 66.807006 z" />
  <path d="M 58.780437 92.494785 L 61.213268 92.494785 61.213268 71.518445 58.780437 71.518445 z" />
  <path d="M 56.07729 92.494785 L 58.510122 92.494785 58.510122 77.262228 56.07729 77.262228 z" />
  <path d="M 53.374144 92.494785 L 55.806976 92.494785 55.806976 81.765003 53.374144 81.765003 z" />
  <path d="M 50.670998 92.494785 L 53.10383 92.494785 53.10383 85.224452 50.670998 85.224452 z" />
  <path d="M 47.967852 92.494785 L 50.400684 92.494785 50.400684 87.486821 47.967852 87.486821 z" />
  <path d="M 45.264706 92.494785 L 47.697538 92.494785 47.697538 89.18909 45.264706 89.18909 z" />
  <path d="M 42.56156 92.494785 L 44.994391 92.494785 44.994391 90.342239 42.56156 90.342239 z" />
  <path d="M 39.858414 92.494785 L 42.291245 92.494785 42.291245 91.143953 39.858414 91.143953 z" />
  <path d="M 37.155268 92.494785 L 39.588099 92.494785 39.588099 91.693072 37.155268 91.693072 z" />
  <path d="M 34.452122 92.494785 L 36.884953 92.494785 36.884953 92.09942 34.452122 92.09942 z" />
  <path d="M 31.748976 92.494785 L 34.181807 92.494785 34.181807 92.253173 31.748976 92.253173 z" />
  <path d="M 29.045829 92.494785 L 31.478661 92.494785 31.478661 92.352014 29.045829 92.352014 z" />
  <path d="M 26.342683 92.494785 L 28.775515 92.494785 28.775515 92.439873 26.342683 92.439873 z" />
  <path d="M 23.639537 92.494785 L 26.072369 92.494785 26.072369 92.450856 23.639537 92.450856 z" />
  <path d="M 20.936391 92.494785 L 23.369223 92.494785 23.369223 92.494785 20.936391 92.494785 z" />
  <path d="M 18.233245 92.494785 L 20.666077 92.494785 20.666077 92.483803 18.233245 92.483803 z" />
</g>
<g stroke="none" fill="#4D4D4D" font-family="Questrial" font-size="3.527778">
  <text x="16.746515" y="98.6" text-anchor="middle">0</text>
  <text x="78.514858" y="98.6" text-anchor="middle">4</text>
  <text x="109.39903" y="98.6" text-anchor="middle">6</text>
  <text x="47.630687" y="98.6" text-anchor="middle">2</text>
  <text x="171.167374" y="98.6" text-anchor="middle">10</text>
  <text x="140.283202" y="98.6" text-anchor="middle">8</text>
</g>
<g stroke="none" fill="#4D4D4D" font-family="Questrial" font-size="3.527778">
  <text x="11.113889" y="92.494785" text-anchor="end" style="dominant-baseline:central">0</text>
  <text x="11.113889" y="48.565278" text-anchor="end" style="dominant-baseline:central">4000</text>
  <text x="11.113889" y="70.530031" text-anchor="end" style="dominant-baseline:central">2000</text>
  <text x="11.113889" y="4.63577" text-anchor="end" style="dominant-baseline:central">8000</text>
  <text x="11.113889" y="26.600524" text-anchor="end" style="dominant-baseline:central">6000</text>
</g>
</svg>
