<?xml version="1.0" encoding="UTF-8"?>
<svg xmlns="http://www.w3.org/2000/svg" xmlns:xlink="http://www.w3.org/1999/xlink" version="1.1" width="177.8mm" height="101.6mm" viewBox="0 0 177.8 101.6" style="stroke:black;fill:black" stroke-width="0.5">
<g stroke="none" fill="#F2F2F2">
  <path d="M 12.113889 2 L 175.8 2 175.8 95.130556 12.113889 95.130556 z" />
</g>
<g stroke="#FFFFFF">
  <path d="M171.167374,2 L 171.167374 95.130556" />
  <path d="M93.956944,2 L 93.956944 95.130556" />
  <path d="M16.746515,2 L 16.746515 95.130556" />
</g>
<g stroke="#FFFFFF">
  <path d="M12.113889,26.600524 L 175.8 26.600524" />
  <path d="M12.113889,4.63577 L 175.8 4.63577" />
  <path d="M12.113889,70.530031 L 175.8 70.530031" />
  <path d="M12.113889,48.565278 L 175.8 48.565278" />
  <path d="M12.113889,92.494785 L 175.8 92.494785" />
</g>
<g fill="#4682B4" stroke="none">
  <path d="M 148.016645 92.494785 L 150.400966 92.494785 150.400966 92.483803 148.016645 92.483803 z" />
  <path d="M 145.367399 92.494785 L 147.75172 92.494785 147.75172 92.483803 145.367399 92.483803 z" />
  <path d="M 142.718153 92.494785 L 145.102474 92.494785 145.102474 92.494785 142.718153 92.494785 z" />
  <path d="M 140.068907 92.494785 L 142.453229 92.494785 142.453229 92.439873 140.068907 92.439873 z" />
  <path d="M 137.419662 92.494785 L 139.803983 92.494785 139.803983 92.384961 137.419662 92.384961 z" />
  <path d="M 134.770416 92.494785 L 137.154737 92.494785 137.154737 92.28612 134.770416 92.28612 z" />
  <path d="M 132.12117 92.494785 L 134.505491 92.494785 134.505491 92.275138 132.12117 92.275138 z" />
  <path d="M 129.471924 92.494785 L 131.856245 92.494785 131.856245 92.154331 129.471924 92.154331 z" />
  <path d="M 126.822678 92.494785 L 129.207 92.494785 129.207 91.726019 126.822678 91.726019 z" />
  <path d="M 124.173432 92.494785 L 126.557754 92.494785 126.557754 91.341636 124.173432 91.341636 z" />
  <path d="M 121.524187 92.494785 L 123.908508 92.494785 123.908508 90.177504 121.524187 90.177504 z" />
  <path d="M 118.874941 92.494785 L 121.259262 92.494785 121.259262 89.496596 118.874941 89.496596 z" />
  <path d="M 116.225695 92.494785 L 118.610016 92.494785 118.610016 87.519768 116.225695 87.519768 z" />
  <path d="M 113.576449 92.494785 L 115.96077 92.494785 115.96077 85.081681 113.576449 85.081681 z" />
  <path d="M 110.927203 92.494785 L 113.311525 92.494785 113.311525 82.929135 110.927203 82.929135 z" />
  <path d="M 108.277958 92.494785 L 110.662279 92.494785 110.662279 78.382431 108.277958 78.382431 z" />
  <path d="M 105.628712 92.494785 L 108.013033 92.494785 108.013033 74.121269 105.628712 74.121269 z" />
  <path d="M 102.979466 92.494785 L 105.363787 92.494785 105.363787 68.432397 102.979466 68.432397 z" />
  <path d="M 100.33022 92.494785 L 102.714541 92.494785 102.714541 61.766095 100.33022 61.766095 z" />
  <path d="M 97.680974 92.494785 L 100.065296 92.494785 100.065296 53.672083 97.680974 53.672083 z" />
  <path d="M 95.031729 92.494785 L 97.41605 92.494785 97.41605 46.873992 95.031729 46.873992 z" />
  <path d="M 92.382483 92.494785 L 94.766804 92.494785 94.766804 38.736051 92.382483 38.736051 z" />
  <path d="M 89.733237 92.494785 L 92.117558 92.494785 92.117558 30.773827 89.733237 30.773827 z" />
  <path d="M 87.083991 92.494785 L 89.468312 92.494785 89.468312 25.436392 87.083991 25.436392 z" />
  <path d="M 84.434745 92.494785 L 86.819066 92.494785 86.819066 19.231349 84.434745 19.231349 z" />
  <path d="M 81.785499 92.494785 L 84.169821 92.494785 84.169821 18.704195 81.785499 18.704195 z" />
  <path d="M 79.136254 92.494785 L 81.520575 92.494785 81.520575 17.770693 79.136254 17.770693 z" />
  <path d="M 76.487008 92.494785 L 78.871329 92.494785 78.871329 20.626111 76.487008 20.626111 z" />
  <path d="M 73.837762 92.494785 L 76.222083 92.494785 76.222083 23.305811 73.837762 23.305811 z" />
  <path d="M 71.188516 92.494785 L 73.572837 92.494785 73.572837 26.875084 71.188516 26.875084 z" />
  <path d="M 68.53927 92.494785 L 70.923592 92.494785 70.923592 33.552369 68.53927 33.552369 z" />
  <path d="M 65.890025 92.494785 L 68.274346 92.494785 68.274346 43.546332 65.890025 43.546332 z" />
  <path d="M 63.240779 92.494785 L 65.6251 92.494785 65.6251 50.289511 63.240779 50.289511 z" />
  <path d="M 60.591533 92.494785 L 62.975854 92.494785 62.975854 57.340197 60.591533 57.340197 z" />
  <path d="M 57.942287 92.494785 L 60.326608 92.494785 60.326608 65.192596 57.942287 65.192596 z" />
  <path d="M 55.293041 92.494785 L 57.677363 92.494785 57.677363 71.452551 55.293041 71.452551 z" />
  <path d="M 52.643795 92.494785 L 55.028117 92.494785 55.028117 76.02122 52.643795 76.02122 z" />
  <path d="M 49.99455 92.494785 L 52.378871 92.494785 52.378871 81.435532 49.99455 81.435532 z" />
  <path d="M 47.345304 92.494785 L 49.729625 92.494785 49.729625 84.620421 47.345304 84.620421 z" />
  <path d="M 44.696058 92.494785 L 47.080379 92.494785 47.080379 86.531354 44.696058 86.531354 z" />
  <path d="M 42.046812 92.494785 L 44.431133 92.494785 44.431133 88.804706 42.046812 88.804706 z" />
  <path d="M 39.397566 92.494785 L 41.781888 92.494785 41.781888 89.782138 39.397566 89.782138 z" />
  <path d="M 36.748321 92.494785 L 39.132642 92.494785 39.132642 91.045111 36.748321 91.045111 z" />
  <path d="M 34.099075 92.494785 L 36.483396 92.494785 36.483396 91.308688 34.099075 91.308688 z" />
  <path d="M 31.449829 92.494785 L 33.83415 92.494785 33.83415 91.967631 31.449829 91.967631 z" />
  <path d="M 28.800583 92.494785 L 31.184904 92.494785 31.184904 92.110402 28.800583 92.110402 z" />
  <path d="M 26.151337 92.494785 L 28.535659 92.494785 28.535659 92.24219 26.151337 92.24219 z" />
  <path d="M 23.502092 92.494785 L 25.886413 92.494785 25.886413 92.384961 23.502092 92.384961 z" />
  <path d="M 20.852846 92.494785 L 23.237167 92.494785 23.237167 92.450856 20.852846 92.450856 z" />
  <path d="M 18.2036 92.494785 L 20.587921 92.494785 20.587921 92.450856 18.2036 92.450856 z" />
</g>
<g stroke="none" fill="#4D4D4D" font-family="Helvetica" font-size="3.527778">
  <text x="16.746515" y="98.6" text-anchor="middle">0</text>
  <text x="93.956944" y="98.6" text-anchor="middle">5</text>
  <text x="171.167374" y="98.6" text-anchor="middle">10</text>
</g>
<g stroke="none" fill="#4D4D4D" font-family="Helvetica" font-size="3.527778">
  <text x="11.113889" y="92.494785" text-anchor="end" style="dominant-baseline:central">0</text>
  <text x="11.113889" y="48.565278" text-anchor="end" style="dominant-baseline:central">4000</text>
  <text x="11.113889" y="70.530031" text-anchor="end" style="dominant-baseline:central">2000</text>
  <text x="11.113889" y="4.63577" text-anchor="end" style="dominant-baseline:central">8000</text>
  <text x="11.113889" y="26.600524" text-anchor="end" style="dominant-baseline:central">6000</text>
</g>
</svg>
