<?xml version="1.0" encoding="UTF-8"?>
<svg xmlns="http://www.w3.org/2000/svg" xmlns:xlink="http://www.w3.org/1999/xlink" version="1.1" width="152.4mm" height="101.6mm" viewBox="0 0 152.4 101.6" style="stroke:black;fill:black" stroke-width="0.5">
<g stroke="#F2F2F2" fill="#F5F5F5">
  <path d="M 16.29 5 L 125.7 5 125.7 84.6 16.29 84.6 z" />
  <g stroke="#FFFFFF" stroke-width="0.3">
    <path d="M96.8,5 L 96.8 84.6" />
    <path d="M19.39,5 L 19.39 84.6" />
    <path d="M45.19,5 L 45.19 84.6" />
    <path d="M71,5 L 71 84.6" />
    <path d="M122.61,5 L 122.61 84.6" />
  </g>
  <g stroke="#FFFFFF" stroke-width="0.3">
    <path d="M16.29,37.29 L 125.7 37.29" />
    <path d="M16.29,7.25 L 125.7 7.25" />
    <path d="M16.29,82.35 L 125.7 82.35" />
    <path d="M16.29,22.27 L 125.7 22.27" />
    <path d="M16.29,52.31 L 125.7 52.31" />
    <path d="M16.29,67.33 L 125.7 67.33" />
  </g>
</g>
<g stroke="none" stroke-width="0.3">
  <g fill="#FF81AD" stroke="#D65886" class="color_group_setosa">
    <circle cx="47.77" cy="29.78" r="0.5" />
    <circle cx="42.61" cy="37.29" r="0.5" />
    <circle cx="37.45" cy="34.29" r="0.5" />
    <circle cx="34.87" cy="35.79" r="0.5" />
    <circle cx="45.19" cy="28.28" r="0.5" />
    <circle cx="55.51" cy="23.77" r="0.5" />
    <circle cx="34.87" cy="31.28" r="0.5" />
    <circle cx="45.19" cy="31.28" r="0.5" />
    <circle cx="29.71" cy="38.79" r="0.5" />
    <circle cx="42.61" cy="35.79" r="0.5" />
    <circle cx="55.51" cy="26.78" r="0.5" />
    <circle cx="40.03" cy="31.28" r="0.5" />
    <circle cx="40.03" cy="37.29" r="0.5" />
    <circle cx="27.13" cy="37.29" r="0.5" />
    <circle cx="65.84" cy="22.27" r="0.5" />
    <circle cx="63.26" cy="16.26" r="0.5" />
    <circle cx="55.51" cy="23.77" r="0.5" />
    <circle cx="47.77" cy="29.78" r="0.5" />
    <circle cx="63.26" cy="25.28" r="0.5" />
    <circle cx="47.77" cy="25.28" r="0.5" />
    <circle cx="55.51" cy="31.28" r="0.5" />
    <circle cx="47.77" cy="26.78" r="0.5" />
    <circle cx="34.87" cy="28.28" r="0.5" />
    <circle cx="47.77" cy="32.79" r="0.5" />
    <circle cx="40.03" cy="31.28" r="0.5" />
    <circle cx="45.19" cy="37.29" r="0.5" />
    <circle cx="45.19" cy="31.28" r="0.5" />
    <circle cx="50.35" cy="29.78" r="0.5" />
    <circle cx="50.35" cy="31.28" r="0.5" />
    <circle cx="37.45" cy="34.29" r="0.5" />
    <circle cx="40.03" cy="35.79" r="0.5" />
    <circle cx="55.51" cy="31.28" r="0.5" />
    <circle cx="50.35" cy="20.77" r="0.5" />
    <circle cx="58.09" cy="19.27" r="0.5" />
    <circle cx="42.61" cy="35.79" r="0.5" />
    <circle cx="45.19" cy="34.29" r="0.5" />
    <circle cx="58.09" cy="29.78" r="0.5" />
    <circle cx="42.61" cy="28.28" r="0.5" />
    <circle cx="29.71" cy="37.29" r="0.5" />
    <circle cx="47.77" cy="31.28" r="0.5" />
    <circle cx="45.19" cy="29.78" r="0.5" />
    <circle cx="32.29" cy="47.81" r="0.5" />
    <circle cx="29.71" cy="34.29" r="0.5" />
    <circle cx="45.19" cy="29.78" r="0.5" />
    <circle cx="47.77" cy="25.28" r="0.5" />
    <circle cx="40.03" cy="37.29" r="0.5" />
    <circle cx="47.77" cy="25.28" r="0.5" />
    <circle cx="34.87" cy="34.29" r="0.5" />
    <circle cx="52.93" cy="26.78" r="0.5" />
    <circle cx="45.19" cy="32.79" r="0.5" />
  </g>
  <g fill="#00BDFF" stroke="#0094D4" class="color_group_virginica">
    <circle cx="78.74" cy="32.79" r="0.5" />
    <circle cx="65.84" cy="41.8" r="0.5" />
    <circle cx="99.38" cy="37.29" r="0.5" />
    <circle cx="78.74" cy="38.79" r="0.5" />
    <circle cx="83.9" cy="37.29" r="0.5" />
    <circle cx="112.28" cy="37.29" r="0.5" />
    <circle cx="42.61" cy="44.8" r="0.5" />
    <circle cx="104.54" cy="38.79" r="0.5" />
    <circle cx="89.06" cy="44.8" r="0.5" />
    <circle cx="101.96" cy="28.28" r="0.5" />
    <circle cx="83.9" cy="34.29" r="0.5" />
    <circle cx="81.32" cy="41.8" r="0.5" />
    <circle cx="91.64" cy="37.29" r="0.5" />
    <circle cx="63.26" cy="44.8" r="0.5" />
    <circle cx="65.84" cy="40.3" r="0.5" />
    <circle cx="81.32" cy="34.29" r="0.5" />
    <circle cx="83.9" cy="37.29" r="0.5" />
    <circle cx="114.86" cy="25.28" r="0.5" />
    <circle cx="114.86" cy="43.3" r="0.5" />
    <circle cx="71" cy="49.31" r="0.5" />
    <circle cx="94.22" cy="34.29" r="0.5" />
    <circle cx="60.68" cy="40.3" r="0.5" />
    <circle cx="114.86" cy="40.3" r="0.5" />
    <circle cx="78.74" cy="41.8" r="0.5" />
    <circle cx="89.06" cy="32.79" r="0.5" />
    <circle cx="101.96" cy="34.29" r="0.5" />
    <circle cx="76.16" cy="40.3" r="0.5" />
    <circle cx="73.58" cy="37.29" r="0.5" />
    <circle cx="81.32" cy="40.3" r="0.5" />
    <circle cx="101.96" cy="37.29" r="0.5" />
    <circle cx="107.12" cy="40.3" r="0.5" />
    <circle cx="120.03" cy="25.28" r="0.5" />
    <circle cx="81.32" cy="40.3" r="0.5" />
    <circle cx="78.74" cy="40.3" r="0.5" />
    <circle cx="73.58" cy="43.3" r="0.5" />
    <circle cx="114.86" cy="37.29" r="0.5" />
    <circle cx="78.74" cy="31.28" r="0.5" />
    <circle cx="81.32" cy="35.79" r="0.5" />
    <circle cx="71" cy="37.29" r="0.5" />
    <circle cx="94.22" cy="35.79" r="0.5" />
    <circle cx="89.06" cy="35.79" r="0.5" />
    <circle cx="94.22" cy="35.79" r="0.5" />
    <circle cx="65.84" cy="41.8" r="0.5" />
    <circle cx="91.64" cy="34.29" r="0.5" />
    <circle cx="89.06" cy="32.79" r="0.5" />
    <circle cx="89.06" cy="37.29" r="0.5" />
    <circle cx="78.74" cy="44.8" r="0.5" />
    <circle cx="83.9" cy="37.29" r="0.5" />
    <circle cx="76.16" cy="31.28" r="0.5" />
    <circle cx="68.42" cy="37.29" r="0.5" />
  </g>
  <g fill="#96B752" stroke="#6D8E2C" class="color_group_versicolor">
    <circle cx="96.8" cy="34.29" r="0.5" />
    <circle cx="81.32" cy="34.29" r="0.5" />
    <circle cx="94.22" cy="35.79" r="0.5" />
    <circle cx="58.09" cy="47.81" r="0.5" />
    <circle cx="83.9" cy="40.3" r="0.5" />
    <circle cx="63.26" cy="40.3" r="0.5" />
    <circle cx="78.74" cy="32.79" r="0.5" />
    <circle cx="42.61" cy="46.3" r="0.5" />
    <circle cx="86.48" cy="38.79" r="0.5" />
    <circle cx="50.35" cy="41.8" r="0.5" />
    <circle cx="45.19" cy="52.31" r="0.5" />
    <circle cx="68.42" cy="37.29" r="0.5" />
    <circle cx="71" cy="49.31" r="0.5" />
    <circle cx="73.58" cy="38.79" r="0.5" />
    <circle cx="60.68" cy="38.79" r="0.5" />
    <circle cx="89.06" cy="35.79" r="0.5" />
    <circle cx="60.68" cy="37.29" r="0.5" />
    <circle cx="65.84" cy="41.8" r="0.5" />
    <circle cx="76.16" cy="49.31" r="0.5" />
    <circle cx="60.68" cy="44.8" r="0.5" />
    <circle cx="68.42" cy="34.29" r="0.5" />
    <circle cx="73.58" cy="40.3" r="0.5" />
    <circle cx="78.74" cy="44.8" r="0.5" />
    <circle cx="73.58" cy="40.3" r="0.5" />
    <circle cx="81.32" cy="38.79" r="0.5" />
    <circle cx="86.48" cy="37.29" r="0.5" />
    <circle cx="91.64" cy="40.3" r="0.5" />
    <circle cx="89.06" cy="37.29" r="0.5" />
    <circle cx="71" cy="38.79" r="0.5" />
    <circle cx="63.26" cy="43.3" r="0.5" />
    <circle cx="58.09" cy="46.3" r="0.5" />
    <circle cx="58.09" cy="46.3" r="0.5" />
    <circle cx="65.84" cy="41.8" r="0.5" />
    <circle cx="71" cy="41.8" r="0.5" />
    <circle cx="55.51" cy="37.29" r="0.5" />
    <circle cx="71" cy="31.28" r="0.5" />
    <circle cx="89.06" cy="35.79" r="0.5" />
    <circle cx="78.74" cy="47.81" r="0.5" />
    <circle cx="60.68" cy="37.29" r="0.5" />
    <circle cx="58.09" cy="44.8" r="0.5" />
    <circle cx="58.09" cy="43.3" r="0.5" />
    <circle cx="73.58" cy="37.29" r="0.5" />
    <circle cx="65.84" cy="43.3" r="0.5" />
    <circle cx="45.19" cy="47.81" r="0.5" />
    <circle cx="60.68" cy="41.8" r="0.5" />
    <circle cx="63.26" cy="37.29" r="0.5" />
    <circle cx="63.26" cy="38.79" r="0.5" />
    <circle cx="76.16" cy="38.79" r="0.5" />
    <circle cx="47.77" cy="44.8" r="0.5" />
    <circle cx="63.26" cy="40.3" r="0.5" />
  </g>
</g>
<g font-family="PT Sans Caption" font-size="3.18">
  <a xlink:href="#"><g id="color_key_versicolor" onclick="js_chunk_3215fd994aab842d(evt)">
    <g fill="#96B752" stroke="#6D8E2C" stroke-width="0.3">
      <path d="M 127.7 47.48 L 130.88 47.48 130.88 50.65 127.7 50.65 z" />
    </g>
    <g stroke="none" fill="#4C404B">
      <text x="131.88" y="49.07" style="dominant-baseline:central">versicolor</text>
    </g>
  </g></a>
  <a xlink:href="#"><g id="color_key_setosa" onclick="js_chunk_1a5303ba9b527488(evt)">
    <g fill="#FF81AD" stroke="#D65886" stroke-width="0.3">
      <path d="M 127.7 43.3 L 130.88 43.3 130.88 46.48 127.7 46.48 z" />
    </g>
    <g stroke="none" fill="#4C404B">
      <text x="131.88" y="44.89" style="dominant-baseline:central">setosa</text>
    </g>
  </g></a>
  <a xlink:href="#"><g id="color_key_virginica" onclick="js_chunk_f8672a1fd74dfe83(evt)">
    <g fill="#00BDFF" stroke="#0094D4" stroke-width="0.3">
      <path d="M 127.7 51.65 L 130.88 51.65 130.88 54.83 127.7 54.83 z" />
    </g>
    <g stroke="none" fill="#4C404B">
      <text x="131.88" y="53.24" style="dominant-baseline:central">virginica</text>
    </g>
  </g></a>
</g>
<g stroke="none" font-family="PT Sans" font-size="3.88" fill="#362A35">
  <text x="136.55" y="41.3" text-anchor="middle">Species</text>
</g>
<g stroke="none" fill="#4C404B" font-family="PT Sans Caption" font-size="3.18">
  <text x="96.8" y="88.07" text-anchor="middle">7</text>
  <text x="19.39" y="88.07" text-anchor="middle">4</text>
  <text x="45.19" y="88.07" text-anchor="middle">5</text>
  <text x="71" y="88.07" text-anchor="middle">6</text>
  <text x="122.61" y="88.07" text-anchor="middle">8</text>
</g>
<g stroke="none" fill="#362A35" font-family="PT Sans" font-size="3.88">
  <text x="71" y="94.6" text-anchor="middle">Sepal.Length</text>
</g>
<g stroke="none" fill="#362A35" font-family="PT Sans" font-size="3.88">
  <text x="8.76" y="44.8" text-anchor="middle" style="dominant-baseline:central" transform="rotate(-90, 8.76, 44.8)">Sepal.Width</text>
</g>
<g stroke="none" fill="#4C404B" font-family="PT Sans Caption" font-size="3.18">
  <text x="15.29" y="37.29" text-anchor="end" style="dominant-baseline:central">3</text>
  <text x="15.29" y="7.25" text-anchor="end" style="dominant-baseline:central">5</text>
  <text x="15.29" y="82.35" text-anchor="end" style="dominant-baseline:central">0</text>
  <text x="15.29" y="22.27" text-anchor="end" style="dominant-baseline:central">4</text>
  <text x="15.29" y="52.31" text-anchor="end" style="dominant-baseline:central">2</text>
  <text x="15.29" y="67.33" text-anchor="end" style="dominant-baseline:central">1</text>
</g>
<script type="application/ecmascript"><![CDATA[
function js_chunk_1a5303ba9b527488(evt) {
  geoms = document.getElementsByClassName('color_group_setosa');
                        entry = document.getElementById('color_key_setosa');
                        state = geoms[0].getAttribute('visibility');
                        if (!state || state == 'visible') {
                            for (i = 0; i < geoms.length; ++i) {
                                geoms[i].setAttribute('visibility', 'hidden');
                            }
                            entry.setAttribute('opacity', 0.5);
                        } else {
                            for (i = 0; i < geoms.length; ++i) {
                                geoms[i].setAttribute('visibility', 'visible');
                            }
                            entry.setAttribute('opacity', 1.0);
                        }
}

function js_chunk_3215fd994aab842d(evt) {
  geoms = document.getElementsByClassName('color_group_versicolor');
                        entry = document.getElementById('color_key_versicolor');
                        state = geoms[0].getAttribute('visibility');
                        if (!state || state == 'visible') {
                            for (i = 0; i < geoms.length; ++i) {
                                geoms[i].setAttribute('visibility', 'hidden');
                            }
                            entry.setAttribute('opacity', 0.5);
                        } else {
                            for (i = 0; i < geoms.length; ++i) {
                                geoms[i].setAttribute('visibility', 'visible');
                            }
                            entry.setAttribute('opacity', 1.0);
                        }
}

function js_chunk_f8672a1fd74dfe83(evt) {
  geoms = document.getElementsByClassName('color_group_virginica');
                        entry = document.getElementById('color_key_virginica');
                        state = geoms[0].getAttribute('visibility');
                        if (!state || state == 'visible') {
                            for (i = 0; i < geoms.length; ++i) {
                                geoms[i].setAttribute('visibility', 'hidden');
                            }
                            entry.setAttribute('opacity', 0.5);
                        } else {
                            for (i = 0; i < geoms.length; ++i) {
                                geoms[i].setAttribute('visibility', 'visible');
                            }
                            entry.setAttribute('opacity', 1.0);
                        }
}

]]></script></svg>
