<?xml version="1.0" encoding="UTF-8"?>
<svg xmlns="http://www.w3.org/2000/svg" xmlns:xlink="http://www.w3.org/1999/xlink" version="1.1" width="152.4mm" height="101.6mm" viewBox="0 0 152.4 101.6" style="stroke:black;fill:black" stroke-width="0.5">
<g stroke="#F2F2F2" fill="#F5F5F5">
  <path d="M 16.29 5 L 147.4 5 147.4 84.6 16.29 84.6 z" />
  <g stroke="#FFFFFF" stroke-width="0.3">
    <path d="M112.77,5 L 112.77 84.6" />
    <path d="M20,5 L 20 84.6" />
    <path d="M50.92,5 L 50.92 84.6" />
    <path d="M81.85,5 L 81.85 84.6" />
    <path d="M143.69,5 L 143.69 84.6" />
  </g>
  <g stroke="#FFFFFF" stroke-width="0.3">
    <path d="M16.29,37.29 L 147.4 37.29" />
    <path d="M16.29,7.25 L 147.4 7.25" />
    <path d="M16.29,82.35 L 147.4 82.35" />
    <path d="M16.29,22.27 L 147.4 22.27" />
    <path d="M16.29,52.31 L 147.4 52.31" />
    <path d="M16.29,67.33 L 147.4 67.33" />
  </g>
</g>
<g stroke="none" stroke-width="0.3">
  <g fill="#4682B4" stroke="#0F5D8C" class="color_group_RGB(0.27450980392156865,0.5098039215686274,0.7058823529411765)">
    <circle cx="54.02" cy="29.78" r="0.5" />
    <circle cx="47.83" cy="37.29" r="0.5" />
    <circle cx="41.65" cy="34.29" r="0.5" />
    <circle cx="38.56" cy="35.79" r="0.5" />
    <circle cx="50.92" cy="28.28" r="0.5" />
    <circle cx="63.29" cy="23.77" r="0.5" />
    <circle cx="38.56" cy="31.28" r="0.5" />
    <circle cx="50.92" cy="31.28" r="0.5" />
    <circle cx="32.37" cy="38.79" r="0.5" />
    <circle cx="47.83" cy="35.79" r="0.5" />
    <circle cx="63.29" cy="26.78" r="0.5" />
    <circle cx="44.74" cy="31.28" r="0.5" />
    <circle cx="44.74" cy="37.29" r="0.5" />
    <circle cx="29.28" cy="37.29" r="0.5" />
    <circle cx="75.66" cy="22.27" r="0.5" />
    <circle cx="72.57" cy="16.26" r="0.5" />
    <circle cx="63.29" cy="23.77" r="0.5" />
    <circle cx="54.02" cy="29.78" r="0.5" />
    <circle cx="72.57" cy="25.28" r="0.5" />
    <circle cx="54.02" cy="25.28" r="0.5" />
    <circle cx="63.29" cy="31.28" r="0.5" />
    <circle cx="54.02" cy="26.78" r="0.5" />
    <circle cx="38.56" cy="28.28" r="0.5" />
    <circle cx="54.02" cy="32.79" r="0.5" />
    <circle cx="44.74" cy="31.28" r="0.5" />
    <circle cx="50.92" cy="37.29" r="0.5" />
    <circle cx="50.92" cy="31.28" r="0.5" />
    <circle cx="57.11" cy="29.78" r="0.5" />
    <circle cx="57.11" cy="31.28" r="0.5" />
    <circle cx="41.65" cy="34.29" r="0.5" />
    <circle cx="44.74" cy="35.79" r="0.5" />
    <circle cx="63.29" cy="31.28" r="0.5" />
    <circle cx="57.11" cy="20.77" r="0.5" />
    <circle cx="66.38" cy="19.27" r="0.5" />
    <circle cx="47.83" cy="35.79" r="0.5" />
    <circle cx="50.92" cy="34.29" r="0.5" />
    <circle cx="66.38" cy="29.78" r="0.5" />
    <circle cx="47.83" cy="28.28" r="0.5" />
    <circle cx="32.37" cy="37.29" r="0.5" />
    <circle cx="54.02" cy="31.28" r="0.5" />
    <circle cx="50.92" cy="29.78" r="0.5" />
    <circle cx="35.46" cy="47.81" r="0.5" />
    <circle cx="32.37" cy="34.29" r="0.5" />
    <circle cx="50.92" cy="29.78" r="0.5" />
    <circle cx="54.02" cy="25.28" r="0.5" />
    <circle cx="44.74" cy="37.29" r="0.5" />
    <circle cx="54.02" cy="25.28" r="0.5" />
    <circle cx="38.56" cy="34.29" r="0.5" />
    <circle cx="60.2" cy="26.78" r="0.5" />
    <circle cx="50.92" cy="32.79" r="0.5" />
    <circle cx="112.77" cy="34.29" r="0.5" />
    <circle cx="94.21" cy="34.29" r="0.5" />
    <circle cx="109.68" cy="35.79" r="0.5" />
    <circle cx="66.38" cy="47.81" r="0.5" />
    <circle cx="97.31" cy="40.3" r="0.5" />
    <circle cx="72.57" cy="40.3" r="0.5" />
    <circle cx="91.12" cy="32.79" r="0.5" />
    <circle cx="47.83" cy="46.3" r="0.5" />
    <circle cx="100.4" cy="38.79" r="0.5" />
    <circle cx="57.11" cy="41.8" r="0.5" />
    <circle cx="50.92" cy="52.31" r="0.5" />
    <circle cx="78.75" cy="37.29" r="0.5" />
    <circle cx="81.85" cy="49.31" r="0.5" />
    <circle cx="84.94" cy="38.79" r="0.5" />
    <circle cx="69.48" cy="38.79" r="0.5" />
    <circle cx="103.49" cy="35.79" r="0.5" />
    <circle cx="69.48" cy="37.29" r="0.5" />
    <circle cx="75.66" cy="41.8" r="0.5" />
    <circle cx="88.03" cy="49.31" r="0.5" />
    <circle cx="69.48" cy="44.8" r="0.5" />
    <circle cx="78.75" cy="34.29" r="0.5" />
    <circle cx="84.94" cy="40.3" r="0.5" />
    <circle cx="91.12" cy="44.8" r="0.5" />
    <circle cx="84.94" cy="40.3" r="0.5" />
    <circle cx="94.21" cy="38.79" r="0.5" />
    <circle cx="100.4" cy="37.29" r="0.5" />
    <circle cx="106.58" cy="40.3" r="0.5" />
    <circle cx="103.49" cy="37.29" r="0.5" />
    <circle cx="81.85" cy="38.79" r="0.5" />
    <circle cx="72.57" cy="43.3" r="0.5" />
    <circle cx="66.38" cy="46.3" r="0.5" />
    <circle cx="66.38" cy="46.3" r="0.5" />
    <circle cx="75.66" cy="41.8" r="0.5" />
    <circle cx="81.85" cy="41.8" r="0.5" />
    <circle cx="63.29" cy="37.29" r="0.5" />
    <circle cx="81.85" cy="31.28" r="0.5" />
    <circle cx="103.49" cy="35.79" r="0.5" />
    <circle cx="91.12" cy="47.81" r="0.5" />
    <circle cx="69.48" cy="37.29" r="0.5" />
    <circle cx="66.38" cy="44.8" r="0.5" />
    <circle cx="66.38" cy="43.3" r="0.5" />
    <circle cx="84.94" cy="37.29" r="0.5" />
    <circle cx="75.66" cy="43.3" r="0.5" />
    <circle cx="50.92" cy="47.81" r="0.5" />
    <circle cx="69.48" cy="41.8" r="0.5" />
    <circle cx="72.57" cy="37.29" r="0.5" />
    <circle cx="72.57" cy="38.79" r="0.5" />
    <circle cx="88.03" cy="38.79" r="0.5" />
    <circle cx="54.02" cy="44.8" r="0.5" />
    <circle cx="72.57" cy="40.3" r="0.5" />
    <circle cx="91.12" cy="32.79" r="0.5" />
    <circle cx="75.66" cy="41.8" r="0.5" />
    <circle cx="115.86" cy="37.29" r="0.5" />
    <circle cx="91.12" cy="38.79" r="0.5" />
    <circle cx="97.31" cy="37.29" r="0.5" />
    <circle cx="131.32" cy="37.29" r="0.5" />
    <circle cx="47.83" cy="44.8" r="0.5" />
    <circle cx="122.04" cy="38.79" r="0.5" />
    <circle cx="103.49" cy="44.8" r="0.5" />
    <circle cx="118.95" cy="28.28" r="0.5" />
    <circle cx="97.31" cy="34.29" r="0.5" />
    <circle cx="94.21" cy="41.8" r="0.5" />
    <circle cx="106.58" cy="37.29" r="0.5" />
    <circle cx="72.57" cy="44.8" r="0.5" />
    <circle cx="75.66" cy="40.3" r="0.5" />
    <circle cx="94.21" cy="34.29" r="0.5" />
    <circle cx="97.31" cy="37.29" r="0.5" />
    <circle cx="134.41" cy="25.28" r="0.5" />
    <circle cx="134.41" cy="43.3" r="0.5" />
    <circle cx="81.85" cy="49.31" r="0.5" />
    <circle cx="109.68" cy="34.29" r="0.5" />
    <circle cx="69.48" cy="40.3" r="0.5" />
    <circle cx="134.41" cy="40.3" r="0.5" />
    <circle cx="91.12" cy="41.8" r="0.5" />
    <circle cx="103.49" cy="32.79" r="0.5" />
    <circle cx="118.95" cy="34.29" r="0.5" />
    <circle cx="88.03" cy="40.3" r="0.5" />
    <circle cx="84.94" cy="37.29" r="0.5" />
    <circle cx="94.21" cy="40.3" r="0.5" />
    <circle cx="118.95" cy="37.29" r="0.5" />
    <circle cx="125.14" cy="40.3" r="0.5" />
    <circle cx="140.6" cy="25.28" r="0.5" />
    <circle cx="94.21" cy="40.3" r="0.5" />
    <circle cx="91.12" cy="40.3" r="0.5" />
    <circle cx="84.94" cy="43.3" r="0.5" />
    <circle cx="134.41" cy="37.29" r="0.5" />
    <circle cx="91.12" cy="31.28" r="0.5" />
    <circle cx="94.21" cy="35.79" r="0.5" />
    <circle cx="81.85" cy="37.29" r="0.5" />
    <circle cx="109.68" cy="35.79" r="0.5" />
    <circle cx="103.49" cy="35.79" r="0.5" />
    <circle cx="109.68" cy="35.79" r="0.5" />
    <circle cx="75.66" cy="41.8" r="0.5" />
    <circle cx="106.58" cy="34.29" r="0.5" />
    <circle cx="103.49" cy="32.79" r="0.5" />
    <circle cx="103.49" cy="37.29" r="0.5" />
    <circle cx="91.12" cy="44.8" r="0.5" />
    <circle cx="97.31" cy="37.29" r="0.5" />
    <circle cx="88.03" cy="31.28" r="0.5" />
    <circle cx="78.75" cy="37.29" r="0.5" />
  </g>
</g>
<g stroke="#4682B4" fill="none" stroke-width="0.4">
  <path d="M54.02,29.78 L 47.83 37.29 41.65 34.29 38.56 35.79 50.92 28.28 63.29 23.77 38.56 31.28 50.92 31.28 32.37 38.79 47.83 35.79 63.29 26.78 44.74 31.28 44.74 37.29 29.28 37.29 75.66 22.27 72.57 16.26 63.29 23.77 54.02 29.78 72.57 25.28 54.02 25.28 63.29 31.28 54.02 26.78 38.56 28.28 54.02 32.79 44.74 31.28 50.92 37.29 50.92 31.28 57.11 29.78 57.11 31.28 41.65 34.29 44.74 35.79 63.29 31.28 57.11 20.77 66.38 19.27 47.83 35.79 50.92 34.29 66.38 29.78 47.83 28.28 32.37 37.29 54.02 31.28 50.92 29.78 35.46 47.81 32.37 34.29 50.92 29.78 54.02 25.28 44.74 37.29 54.02 25.28 38.56 34.29 60.2 26.78 50.92 32.79 112.77 34.29 94.21 34.29 109.68 35.79 66.38 47.81 97.31 40.3 72.57 40.3 91.12 32.79 47.83 46.3 100.4 38.79 57.11 41.8 50.92 52.31 78.75 37.29 81.85 49.31 84.94 38.79 69.48 38.79 103.49 35.79 69.48 37.29 75.66 41.8 88.03 49.31 69.48 44.8 78.75 34.29 84.94 40.3 91.12 44.8 84.94 40.3 94.21 38.79 100.4 37.29 106.58 40.3 103.49 37.29 81.85 38.79 72.57 43.3 66.38 46.3 66.38 46.3 75.66 41.8 81.85 41.8 63.29 37.29 81.85 31.28 103.49 35.79 91.12 47.81 69.48 37.29 66.38 44.8 66.38 43.3 84.94 37.29 75.66 43.3 50.92 47.81 69.48 41.8 72.57 37.29 72.57 38.79 88.03 38.79 54.02 44.8 72.57 40.3 91.12 32.79 75.66 41.8 115.86 37.29 91.12 38.79 97.31 37.29 131.32 37.29 47.83 44.8 122.04 38.79 103.49 44.8 118.95 28.28 97.31 34.29 94.21 41.8 106.58 37.29 72.57 44.8 75.66 40.3 94.21 34.29 97.31 37.29 134.41 25.28 134.41 43.3 81.85 49.31 109.68 34.29 69.48 40.3 134.41 40.3 91.12 41.8 103.49 32.79 118.95 34.29 88.03 40.3 84.94 37.29 94.21 40.3 118.95 37.29 125.14 40.3 140.6 25.28 94.21 40.3 91.12 40.3 84.94 43.3 134.41 37.29 91.12 31.28 94.21 35.79 81.85 37.29 109.68 35.79 103.49 35.79 109.68 35.79 75.66 41.8 106.58 34.29 103.49 32.79 103.49 37.29 91.12 44.8 97.31 37.29 88.03 31.28 78.75 37.29" />
</g>
<g stroke="none" fill="#4C404B" font-family="PT Sans Caption" font-size="3.18">
  <text x="112.77" y="88.07" text-anchor="middle">7</text>
  <text x="20" y="88.07" text-anchor="middle">4</text>
  <text x="50.92" y="88.07" text-anchor="middle">5</text>
  <text x="81.85" y="88.07" text-anchor="middle">6</text>
  <text x="143.69" y="88.07" text-anchor="middle">8</text>
</g>
<g stroke="none" fill="#362A35" font-family="PT Sans" font-size="3.88">
  <text x="81.85" y="94.6" text-anchor="middle">Sepal.Length</text>
</g>
<g stroke="none" fill="#362A35" font-family="PT Sans" font-size="3.88">
  <text x="8.76" y="44.8" text-anchor="middle" style="dominant-baseline:central" transform="rotate(-90, 8.76, 44.8)">Sepal.Width</text>
</g>
<g stroke="none" fill="#4C404B" font-family="PT Sans Caption" font-size="3.18">
  <text x="15.29" y="37.29" text-anchor="end" style="dominant-baseline:central">3</text>
  <text x="15.29" y="7.25" text-anchor="end" style="dominant-baseline:central">5</text>
  <text x="15.29" y="82.35" text-anchor="end" style="dominant-baseline:central">0</text>
  <text x="15.29" y="22.27" text-anchor="end" style="dominant-baseline:central">4</text>
  <text x="15.29" y="52.31" text-anchor="end" style="dominant-baseline:central">2</text>
  <text x="15.29" y="67.33" text-anchor="end" style="dominant-baseline:central">1</text>
</g>
</svg>
