<?xml version="1.0" encoding="UTF-8"?>
<svg xmlns="http://www.w3.org/2000/svg" xmlns:xlink="http://www.w3.org/1999/xlink" version="1.1" width="152.4mm" height="101.6mm" viewBox="0 0 152.4 101.6" style="stroke:black;fill:black" stroke-width="0.5">
<g stroke="#F2F2F2" fill="#F5F5F5">
  <path d="M 10.53 5 L 147.4 5 147.4 84.6 10.53 84.6 z" />
  <g stroke="#FFFFFF" stroke-width="0.3">
    <path d="M143.53,5 L 143.53 84.6" />
    <path d="M40.23,5 L 40.23 84.6" />
    <path d="M14.4,5 L 14.4 84.6" />
    <path d="M117.7,5 L 117.7 84.6" />
    <path d="M91.88,5 L 91.88 84.6" />
    <path d="M66.05,5 L 66.05 84.6" />
  </g>
  <g stroke="#FFFFFF" stroke-width="0.3">
    <path d="M10.53,37.29 L 147.4 37.29" />
    <path d="M10.53,52.31 L 147.4 52.31" />
    <path d="M10.53,82.35 L 147.4 82.35" />
    <path d="M10.53,7.25 L 147.4 7.25" />
    <path d="M10.53,67.33 L 147.4 67.33" />
    <path d="M10.53,22.27 L 147.4 22.27" />
  </g>
</g>
<g fill="#4682B4" stroke="none">
  <path d="M 21.22 82.35 L 32.38 82.35 32.38 76.34 21.22 76.34 z" />
  <path d="M 33.62 82.35 L 44.77 82.35 44.77 71.84 33.62 71.84 z" />
  <path d="M 46.01 82.35 L 57.17 82.35 57.17 49.31 46.01 49.31 z" />
  <path d="M 58.41 82.35 L 69.56 82.35 69.56 46.3 58.41 46.3 z" />
  <path d="M 70.8 82.35 L 81.96 82.35 81.96 7.25 70.8 7.25 z" />
  <path d="M 83.2 82.35 L 94.36 82.35 94.36 55.31 83.2 55.31 z" />
  <path d="M 95.6 82.35 L 106.75 82.35 106.75 67.33 95.6 67.33 z" />
  <path d="M 107.99 82.35 L 119.15 82.35 119.15 65.83 107.99 65.83 z" />
  <path d="M 120.39 82.35 L 131.54 82.35 131.54 79.35 120.39 79.35 z" />
  <path d="M 132.78 82.35 L 143.94 82.35 143.94 80.85 132.78 80.85 z" />
</g>
<g stroke="none" fill="#4C404B" font-family="PT Sans Caption" font-size="3.18">
  <text x="143.53" y="88.07" text-anchor="middle">2.5</text>
  <text x="40.23" y="88.07" text-anchor="middle">0.5</text>
  <text x="14.4" y="88.07" text-anchor="middle">0</text>
  <text x="117.7" y="88.07" text-anchor="middle">2</text>
  <text x="91.88" y="88.07" text-anchor="middle">1.5</text>
  <text x="66.05" y="88.07" text-anchor="middle">1</text>
</g>
<g stroke="none" fill="#362A35" font-family="PT Sans" font-size="3.88">
  <text x="78.96" y="94.6" text-anchor="middle">Sepal.Width</text>
</g>
<g stroke="none" fill="#4C404B" font-family="PT Sans Caption" font-size="3.18">
  <text x="9.53" y="37.29" text-anchor="end" style="dominant-baseline:central">30</text>
  <text x="9.53" y="52.31" text-anchor="end" style="dominant-baseline:central">20</text>
  <text x="9.53" y="82.35" text-anchor="end" style="dominant-baseline:central">0</text>
  <text x="9.53" y="7.25" text-anchor="end" style="dominant-baseline:central">50</text>
  <text x="9.53" y="67.33" text-anchor="end" style="dominant-baseline:central">10</text>
  <text x="9.53" y="22.27" text-anchor="end" style="dominant-baseline:central">40</text>
</g>
</svg>
