<?xml version="1.0" encoding="UTF-8"?>
<svg xmlns="http://www.w3.org/2000/svg" xmlns:xlink="http://www.w3.org/1999/xlink" version="1.1" width="152.4mm" height="101.6mm" viewBox="0 0 152.4 101.6" style="stroke:black;fill:black" stroke-width="0.5">
<g stroke="#F2F2F2" fill="#F5F5F5">
  <path d="M 19.47 5 L 147.4 5 147.4 83.23 19.47 83.23 z" />
  <g stroke="#FFFFFF" stroke-width="0.3">
    <path d="M53.26,5 L 53.26 83.23" />
    <path d="M143.78,5 L 143.78 83.23" />
    <path d="M83.43,5 L 83.43 83.23" />
    <path d="M113.61,5 L 113.61 83.23" />
    <path d="M23.09,5 L 23.09 83.23" />
  </g>
  <g stroke="#FFFFFF" stroke-width="0.3">
    <path d="M19.47,21.98 L 147.4 21.98" />
    <path d="M19.47,81.02 L 147.4 81.02" />
    <path d="M19.47,66.26 L 147.4 66.26" />
    <path d="M19.47,7.21 L 147.4 7.21" />
    <path d="M19.47,36.74 L 147.4 36.74" />
    <path d="M19.47,51.5 L 147.4 51.5" />
  </g>
</g>
<g stroke="none" stroke-width="0.3">
  <g fill="#4682B4" stroke="#0F5D8C" class="color_group_RGB(0.27450980392156865,0.5098039215686274,0.7058823529411765)">
    <circle cx="91.42" cy="41.93" r="0.5" />
    <circle cx="78.62" cy="48.69" r="0.5" />
    <circle cx="85.4" cy="52.85" r="0.5" />
    <circle cx="123.68" cy="27.49" r="0.5" />
    <circle cx="106.97" cy="35.59" r="0.5" />
    <circle cx="105.19" cy="35.84" r="0.5" />
    <circle cx="101.1" cy="36.85" r="0.5" />
    <circle cx="83.69" cy="55.33" r="0.5" />
    <circle cx="92.82" cy="40.23" r="0.5" />
    <circle cx="77.83" cy="54.36" r="0.5" />
    <circle cx="68.41" cy="57.37" r="0.5" />
    <circle cx="82.89" cy="55.1" r="0.5" />
    <circle cx="83.43" cy="54.16" r="0.5" />
    <circle cx="48.72" cy="78.86" r="0.5" />
    <circle cx="65" cy="66.26" r="0.5" />
    <circle cx="91.64" cy="51" r="0.5" />
    <circle cx="87.97" cy="50.17" r="0.5" />
    <circle cx="86.91" cy="54.46" r="0.5" />
    <circle cx="134.82" cy="12.19" r="0.5" />
    <circle cx="58.72" cy="73.98" r="0.5" />
    <circle cx="117.71" cy="27.55" r="0.5" />
    <circle cx="124.42" cy="24.69" r="0.5" />
    <circle cx="81.85" cy="58.23" r="0.5" />
    <circle cx="98.52" cy="35.84" r="0.5" />
    <circle cx="91.26" cy="45.47" r="0.5" />
    <circle cx="72.89" cy="55.94" r="0.5" />
    <circle cx="85.68" cy="47.91" r="0.5" />
    <circle cx="124.52" cy="24.45" r="0.5" />
    <circle cx="118.37" cy="27.75" r="0.5" />
    <circle cx="112.54" cy="29.18" r="0.5" />
    <circle cx="81.55" cy="50.17" r="0.5" />
    <circle cx="110.47" cy="20.2" r="0.5" />
    <circle cx="141.11" cy="10.8" r="0.5" />
    <circle cx="91.64" cy="57.53" r="0.5" />
    <circle cx="95.99" cy="33" r="0.5" />
    <circle cx="106.73" cy="40.45" r="0.5" />
    <circle cx="92.6" cy="48.1" r="0.5" />
    <circle cx="69.54" cy="66.26" r="0.5" />
    <circle cx="58.72" cy="72.13" r="0.5" />
    <circle cx="53.26" cy="75.14" r="0.5" />
    <circle cx="85.64" cy="50.07" r="0.5" />
    <circle cx="119.61" cy="26.55" r="0.5" />
    <circle cx="89.44" cy="50.27" r="0.5" />
    <circle cx="109.75" cy="33.15" r="0.5" />
    <circle cx="113.61" cy="33.84" r="0.5" />
    <circle cx="109.34" cy="27.24" r="0.5" />
    <circle cx="98.87" cy="32.99" r="0.5" />
    <circle cx="79.52" cy="60.65" r="0.5" />
    <circle cx="110.26" cy="38.09" r="0.5" />
    <circle cx="91.83" cy="46.74" r="0.5" />
    <circle cx="92.97" cy="42.74" r="0.5" />
    <circle cx="75.09" cy="62.14" r="0.5" />
    <circle cx="66.46" cy="65.09" r="0.5" />
    <circle cx="69.65" cy="59.22" r="0.5" />
    <circle cx="63.54" cy="73.37" r="0.5" />
    <circle cx="117.88" cy="32.97" r="0.5" />
    <circle cx="90.63" cy="45.62" r="0.5" />
    <circle cx="116.69" cy="33.37" r="0.5" />
    <circle cx="82.74" cy="60.13" r="0.5" />
    <circle cx="86.59" cy="50.66" r="0.5" />
    <circle cx="68.6" cy="60.38" r="0.5" />
    <circle cx="92.89" cy="41.13" r="0.5" />
  </g>
</g>
<g stroke="none" fill="#4C404B" font-family="PT Sans Caption" font-size="3.18">
  <text x="53.26" y="88.07" text-anchor="middle">10<tspan baseline-shift="1.722548" font-size="83.333333%">-2</tspan></text>
  <text x="143.78" y="88.07" text-anchor="middle">10<tspan baseline-shift="1.722548" font-size="83.333333%">4</tspan></text>
  <text x="83.43" y="88.07" text-anchor="middle">10<tspan baseline-shift="1.722548" font-size="83.333333%">0</tspan></text>
  <text x="113.61" y="88.07" text-anchor="middle">10<tspan baseline-shift="1.722548" font-size="83.333333%">2</tspan></text>
  <text x="23.09" y="88.07" text-anchor="middle">10<tspan baseline-shift="1.722548" font-size="83.333333%">-4</tspan></text>
</g>
<g stroke="none" fill="#362A35" font-family="PT Sans" font-size="3.88">
  <text x="83.43" y="94.6" text-anchor="middle">body</text>
</g>
<g stroke="none" fill="#362A35" font-family="PT Sans" font-size="3.88">
  <text x="8.41" y="44.12" text-anchor="middle" style="dominant-baseline:central" transform="rotate(-90, 8.41, 44.12)">brain</text>
</g>
<g stroke="none" fill="#4C404B" font-family="PT Sans Caption" font-size="3.18">
  <text x="18.47" y="21.98" text-anchor="end" style="dominant-baseline:central">10<tspan baseline-shift="1.722548" font-size="83.333333%">3</tspan></text>
  <text x="18.47" y="81.02" text-anchor="end" style="dominant-baseline:central">10<tspan baseline-shift="1.722548" font-size="83.333333%">-1</tspan></text>
  <text x="18.47" y="66.26" text-anchor="end" style="dominant-baseline:central">10<tspan baseline-shift="1.722548" font-size="83.333333%">0</tspan></text>
  <text x="18.47" y="7.21" text-anchor="end" style="dominant-baseline:central">10<tspan baseline-shift="1.722548" font-size="83.333333%">4</tspan></text>
  <text x="18.47" y="36.74" text-anchor="end" style="dominant-baseline:central">10<tspan baseline-shift="1.722548" font-size="83.333333%">2</tspan></text>
  <text x="18.47" y="51.5" text-anchor="end" style="dominant-baseline:central">10<tspan baseline-shift="1.722548" font-size="83.333333%">1</tspan></text>
</g>
</svg>
