<?xml version="1.0" encoding="UTF-8"?>
<svg xmlns="http://www.w3.org/2000/svg" xmlns:xlink="http://www.w3.org/1999/xlink" version="1.1" width="152.4mm" height="101.6mm" viewBox="0 0 152.4 101.6" style="stroke:black;fill:black" stroke-width="0.5">
<g stroke="#F2F2F2" fill="#F5F5F5">
  <path d="M 20.88 5 L 147.4 5 147.4 84.6 20.88 84.6 z" />
  <g stroke="#FFFFFF" stroke-width="0.3">
    <path d="M143.82,5 L 143.82 84.6" />
    <path d="M84.14,5 L 84.14 84.6" />
    <path d="M24.46,5 L 24.46 84.6" />
    <path d="M54.3,5 L 54.3 84.6" />
    <path d="M113.98,5 L 113.98 84.6" />
  </g>
  <g stroke="#FFFFFF" stroke-width="0.3">
    <path d="M20.88,69.83 L 147.4 69.83" />
    <path d="M20.88,57.32 L 147.4 57.32" />
    <path d="M20.88,32.29 L 147.4 32.29" />
    <path d="M20.88,82.35 L 147.4 82.35" />
    <path d="M20.88,44.8 L 147.4 44.8" />
    <path d="M20.88,19.77 L 147.4 19.77" />
    <path d="M20.88,7.25 L 147.4 7.25" />
  </g>
</g>
<g stroke="none" stroke-width="0.3">
  <g fill="#4682B4" stroke="#0F5D8C" class="color_group_RGB(0.27450980392156865,0.5098039215686274,0.7058823529411765)">
    <circle cx="24.51" cy="81.79" r="0.5" />
    <circle cx="24.47" cy="82.16" r="0.5" />
    <circle cx="24.48" cy="82.25" r="0.5" />
    <circle cx="31.4" cy="77.06" r="0.5" />
    <circle cx="25" cy="80.85" r="0.5" />
    <circle cx="24.87" cy="80.91" r="0.5" />
    <circle cx="24.68" cy="81.12" r="0.5" />
    <circle cx="24.47" cy="82.28" r="0.5" />
    <circle cx="24.52" cy="81.62" r="0.5" />
    <circle cx="24.46" cy="82.27" r="0.5" />
    <circle cx="24.46" cy="82.3" r="0.5" />
    <circle cx="24.47" cy="82.28" r="0.5" />
    <circle cx="24.47" cy="82.27" r="0.5" />
    <circle cx="24.46" cy="82.35" r="0.5" />
    <circle cx="24.46" cy="82.34" r="0.5" />
    <circle cx="24.51" cy="82.21" r="0.5" />
    <circle cx="24.49" cy="82.2" r="0.5" />
    <circle cx="24.48" cy="82.27" r="0.5" />
    <circle cx="62.46" cy="24.74" r="0.5" />
    <circle cx="24.46" cy="82.35" r="0.5" />
    <circle cx="27.25" cy="77.11" r="0.5" />
    <circle cx="32.23" cy="74.15" r="0.5" />
    <circle cx="24.47" cy="82.31" r="0.5" />
    <circle cx="24.61" cy="80.91" r="0.5" />
    <circle cx="24.51" cy="82.03" r="0.5" />
    <circle cx="24.46" cy="82.29" r="0.5" />
    <circle cx="24.48" cy="82.13" r="0.5" />
    <circle cx="32.35" cy="73.84" r="0.5" />
    <circle cx="27.55" cy="77.27" r="0.5" />
    <circle cx="25.73" cy="78.28" r="0.5" />
    <circle cx="24.47" cy="82.2" r="0.5" />
    <circle cx="25.38" cy="65.83" r="0.5" />
    <circle cx="123.74" cy="10.86" r="0.5" />
    <circle cx="24.51" cy="82.3" r="0.5" />
    <circle cx="24.56" cy="80.11" r="0.5" />
    <circle cx="24.98" cy="81.65" r="0.5" />
    <circle cx="24.52" cy="82.14" r="0.5" />
    <circle cx="24.46" cy="82.34" r="0.5" />
    <circle cx="24.46" cy="82.34" r="0.5" />
    <circle cx="24.46" cy="82.35" r="0.5" />
    <circle cx="24.48" cy="82.19" r="0.5" />
    <circle cx="28.19" cy="76.22" r="0.5" />
    <circle cx="24.5" cy="82.2" r="0.5" />
    <circle cx="25.29" cy="80.16" r="0.5" />
    <circle cx="25.95" cy="80.38" r="0.5" />
    <circle cx="25.24" cy="76.84" r="0.5" />
    <circle cx="24.62" cy="80.1" r="0.5" />
    <circle cx="24.47" cy="82.32" r="0.5" />
    <circle cx="25.35" cy="81.34" r="0.5" />
    <circle cx="24.51" cy="82.09" r="0.5" />
    <circle cx="24.52" cy="81.86" r="0.5" />
    <circle cx="24.46" cy="82.33" r="0.5" />
    <circle cx="24.46" cy="82.33" r="0.5" />
    <circle cx="24.46" cy="82.31" r="0.5" />
    <circle cx="24.46" cy="82.35" r="0.5" />
    <circle cx="27.32" cy="80.1" r="0.5" />
    <circle cx="24.5" cy="82.04" r="0.5" />
    <circle cx="26.85" cy="80.23" r="0.5" />
    <circle cx="24.47" cy="82.32" r="0.5" />
    <circle cx="24.48" cy="82.21" r="0.5" />
    <circle cx="24.46" cy="82.32" r="0.5" />
    <circle cx="24.52" cy="81.72" r="0.5" />
  </g>
</g>
<g stroke="none" fill="#4C404B" font-family="PT Sans Caption" font-size="3.18">
  <text x="143.82" y="88.07" text-anchor="middle">8000</text>
  <text x="84.14" y="88.07" text-anchor="middle">4000</text>
  <text x="24.46" y="88.07" text-anchor="middle">0</text>
  <text x="54.3" y="88.07" text-anchor="middle">2000</text>
  <text x="113.98" y="88.07" text-anchor="middle">6000</text>
</g>
<g stroke="none" fill="#362A35" font-family="PT Sans" font-size="3.88">
  <text x="84.14" y="94.6" text-anchor="middle">body</text>
</g>
<g stroke="none" fill="#362A35" font-family="PT Sans" font-size="3.88">
  <text x="8.41" y="44.8" text-anchor="middle" style="dominant-baseline:central" transform="rotate(-90, 8.41, 44.8)">brain</text>
</g>
<g stroke="none" fill="#4C404B" font-family="PT Sans Caption" font-size="3.18">
  <text x="19.88" y="69.83" text-anchor="end" style="dominant-baseline:central">1000</text>
  <text x="19.88" y="57.32" text-anchor="end" style="dominant-baseline:central">2000</text>
  <text x="19.88" y="32.29" text-anchor="end" style="dominant-baseline:central">4000</text>
  <text x="19.88" y="82.35" text-anchor="end" style="dominant-baseline:central">0</text>
  <text x="19.88" y="44.8" text-anchor="end" style="dominant-baseline:central">3000</text>
  <text x="19.88" y="19.77" text-anchor="end" style="dominant-baseline:central">5000</text>
  <text x="19.88" y="7.25" text-anchor="end" style="dominant-baseline:central">6000</text>
</g>
</svg>
