<?xml version="1.0" encoding="UTF-8"?>
<svg xmlns="http://www.w3.org/2000/svg" xmlns:xlink="http://www.w3.org/1999/xlink" version="1.1" width="101.6mm" height="101.6mm" viewBox="0 0 101.6 101.6" style="stroke:black;fill:black" stroke-width="0.5">
<g fill="#F5F5F5" stroke="#F2F2F2">
  <path d="M 17.45 5 L 96.6 5 96.6 82.3 17.45 82.3 z" />
  <g stroke="#FFFFFF" stroke-width="0.3">
    <path d="M25.93,5 L 25.93 82.3" />
    <path d="M37.24,5 L 37.24 82.3" />
    <path d="M31.58,5 L 31.58 82.3" />
    <path d="M65.51,5 L 65.51 82.3" />
    <path d="M48.54,5 L 48.54 82.3" />
    <path d="M59.85,5 L 59.85 82.3" />
    <path d="M42.89,5 L 42.89 82.3" />
    <path d="M82.47,5 L 82.47 82.3" />
    <path d="M20.28,5 L 20.28 82.3" />
    <path d="M76.81,5 L 76.81 82.3" />
    <path d="M93.77,5 L 93.77 82.3" />
    <path d="M54.2,5 L 54.2 82.3" />
    <path d="M88.12,5 L 88.12 82.3" />
    <path d="M71.16,5 L 71.16 82.3" />
  </g>
  <g stroke="#FFFFFF" stroke-width="0.3">
    <path d="M17.45,7.19 L 96.6 7.19" />
    <path d="M17.45,50.94 L 96.6 50.94" />
    <path d="M17.45,65.53 L 96.6 65.53" />
    <path d="M17.45,80.12 L 96.6 80.12" />
    <path d="M17.45,36.36 L 96.6 36.36" />
    <path d="M17.45,21.77 L 96.6 21.77" />
  </g>
</g>
<g fill="#4682B4" stroke="#0F5D8C">
  <circle cx="88.12" cy="59.14" r="0.5" />
</g>
<g stroke="#0F5D8C" stroke-width="0.4">
  <path d="M87.18,19.4 L 89.06 19.4" />
</g>
<g stroke="#0F5D8C" stroke-width="0.4">
  <path d="M87.18,56.61 L 89.06 56.61" />
</g>
<g stroke="#0F5D8C" stroke-width="0.4">
  <path d="M88.12,33.35 L 88.12 19.4" />
</g>
<g stroke="#0F5D8C" stroke-width="0.4">
  <path d="M88.12,42.65 L 88.12 56.61" />
</g>
<g fill="#4682B4" stroke="#0F5D8C" stroke-width="0.3">
  <path d="M 85.79 42.65 L 90.45 42.65 90.45 33.35 85.79 33.35 z" />
</g>
<g stroke="#B8EFFF" stroke-width="0.4">
  <path d="M87.18,37.73 L 89.06 37.73" />
</g>
<g fill="#4682B4" stroke="#0F5D8C">
  <circle cx="59.85" cy="21.08" r="0.5" />
</g>
<g stroke="#0F5D8C" stroke-width="0.4">
  <path d="M58.91,25.35 L 60.79 25.35" />
</g>
<g stroke="#0F5D8C" stroke-width="0.4">
  <path d="M58.91,60.83 L 60.79 60.83" />
</g>
<g stroke="#0F5D8C" stroke-width="0.4">
  <path d="M59.85,38.65 L 59.85 25.35" />
</g>
<g stroke="#0F5D8C" stroke-width="0.4">
  <path d="M59.85,47.53 L 59.85 60.83" />
</g>
<g fill="#4682B4" stroke="#0F5D8C" stroke-width="0.3">
  <path d="M 57.52 47.53 L 62.18 47.53 62.18 38.65 57.52 38.65 z" />
</g>
<g stroke="#B8EFFF" stroke-width="0.4">
  <path d="M58.91,42.91 L 60.79 42.91" />
</g>
<g stroke="#0F5D8C" stroke-width="0.4">
  <path d="M81.52,22.24 L 83.41 22.24" />
</g>
<g stroke="#0F5D8C" stroke-width="0.4">
  <path d="M81.52,53.27 L 83.41 53.27" />
</g>
<g stroke="#0F5D8C" stroke-width="0.4">
  <path d="M82.47,33.88 L 82.47 22.24" />
</g>
<g stroke="#0F5D8C" stroke-width="0.4">
  <path d="M82.47,41.63 L 82.47 53.27" />
</g>
<g fill="#4682B4" stroke="#0F5D8C" stroke-width="0.3">
  <path d="M 80.14 41.63 L 84.79 41.63 84.79 33.88 80.14 33.88 z" />
</g>
<g stroke="#B8EFFF" stroke-width="0.4">
  <path d="M81.52,38.04 L 83.41 38.04" />
</g>
<g fill="#4682B4" stroke="#0F5D8C">
  <circle cx="93.77" cy="22.95" r="0.5" />
  <circle cx="93.77" cy="20.51" r="0.5" />
  <circle cx="93.77" cy="18.43" r="0.5" />
  <circle cx="93.77" cy="20.01" r="0.5" />
  <circle cx="93.77" cy="13.94" r="0.5" />
  <circle cx="93.77" cy="19.43" r="0.5" />
  <circle cx="93.77" cy="17.28" r="0.5" />
  <circle cx="93.77" cy="22.95" r="0.5" />
  <circle cx="93.77" cy="55.22" r="0.5" />
  <circle cx="93.77" cy="19.43" r="0.5" />
  <circle cx="93.77" cy="21.68" r="0.5" />
  <circle cx="93.77" cy="20.97" r="0.5" />
  <circle cx="93.77" cy="22.56" r="0.5" />
  <circle cx="93.77" cy="22.02" r="0.5" />
  <circle cx="93.77" cy="59.46" r="0.5" />
  <circle cx="93.77" cy="58.52" r="0.5" />
  <circle cx="93.77" cy="65.28" r="0.5" />
  <circle cx="93.77" cy="51.11" r="0.5" />
</g>
<g stroke="#0F5D8C" stroke-width="0.4">
  <path d="M92.83,22.97 L 94.72 22.97" />
</g>
<g stroke="#0F5D8C" stroke-width="0.4">
  <path d="M92.83,50.42 L 94.72 50.42" />
</g>
<g stroke="#0F5D8C" stroke-width="0.4">
  <path d="M93.77,33.26 L 93.77 22.97" />
</g>
<g stroke="#0F5D8C" stroke-width="0.4">
  <path d="M93.77,40.13 L 93.77 50.42" />
</g>
<g fill="#4682B4" stroke="#0F5D8C" stroke-width="0.3">
  <path d="M 91.45 40.13 L 96.1 40.13 96.1 33.26 91.45 33.26 z" />
</g>
<g stroke="#B8EFFF" stroke-width="0.4">
  <path d="M92.83,37.73 L 94.72 37.73" />
</g>
<g fill="#4682B4" stroke="#0F5D8C">
  <circle cx="20.28" cy="59.46" r="0.5" />
</g>
<g stroke="#0F5D8C" stroke-width="0.4">
  <path d="M19.33,39.96 L 21.22 39.96" />
</g>
<g stroke="#0F5D8C" stroke-width="0.4">
  <path d="M19.33,58.93 L 21.22 58.93" />
</g>
<g stroke="#0F5D8C" stroke-width="0.4">
  <path d="M20.28,47.07 L 20.28 39.96" />
</g>
<g stroke="#0F5D8C" stroke-width="0.4">
  <path d="M20.28,51.82 L 20.28 58.93" />
</g>
<g fill="#4682B4" stroke="#0F5D8C" stroke-width="0.3">
  <path d="M 17.95 51.82 L 22.6 51.82 22.6 47.07 17.95 47.07 z" />
</g>
<g stroke="#B8EFFF" stroke-width="0.4">
  <path d="M19.33,49.95 L 21.22 49.95" />
</g>
<g stroke="#0F5D8C" stroke-width="0.4">
  <path d="M36.29,30.41 L 38.18 30.41" />
</g>
<g stroke="#0F5D8C" stroke-width="0.4">
  <path d="M36.29,63.47 L 38.18 63.47" />
</g>
<g stroke="#0F5D8C" stroke-width="0.4">
  <path d="M37.24,42.8 L 37.24 30.41" />
</g>
<g stroke="#0F5D8C" stroke-width="0.4">
  <path d="M37.24,51.07 L 37.24 63.47" />
</g>
<g fill="#4682B4" stroke="#0F5D8C" stroke-width="0.3">
  <path d="M 34.91 51.07 L 39.56 51.07 39.56 42.8 34.91 42.8 z" />
</g>
<g stroke="#B8EFFF" stroke-width="0.4">
  <path d="M36.29,47.73 L 38.18 47.73" />
</g>
<g fill="#4682B4" stroke="#0F5D8C">
  <circle cx="54.2" cy="65.37" r="0.5" />
  <circle cx="54.2" cy="65.37" r="0.5" />
</g>
<g stroke="#0F5D8C" stroke-width="0.4">
  <path d="M53.26,26.18 L 55.14 26.18" />
</g>
<g stroke="#0F5D8C" stroke-width="0.4">
  <path d="M53.26,60.79 L 55.14 60.79" />
</g>
<g stroke="#0F5D8C" stroke-width="0.4">
  <path d="M54.2,39.16 L 54.2 26.18" />
</g>
<g stroke="#0F5D8C" stroke-width="0.4">
  <path d="M54.2,47.81 L 54.2 60.79" />
</g>
<g fill="#4682B4" stroke="#0F5D8C" stroke-width="0.3">
  <path d="M 51.87 47.81 L 56.52 47.81 56.52 39.16 51.87 39.16 z" />
</g>
<g stroke="#B8EFFF" stroke-width="0.4">
  <path d="M53.26,42.73 L 55.14 42.73" />
</g>
<g stroke="#0F5D8C" stroke-width="0.4">
  <path d="M41.95,23.92 L 43.83 23.92" />
</g>
<g stroke="#0F5D8C" stroke-width="0.4">
  <path d="M41.95,65.41 L 43.83 65.41" />
</g>
<g stroke="#0F5D8C" stroke-width="0.4">
  <path d="M42.89,39.48 L 42.89 23.92" />
</g>
<g stroke="#0F5D8C" stroke-width="0.4">
  <path d="M42.89,49.85 L 42.89 65.41" />
</g>
<g fill="#4682B4" stroke="#0F5D8C" stroke-width="0.3">
  <path d="M 40.56 49.85 L 45.22 49.85 45.22 39.48 40.56 39.48 z" />
</g>
<g stroke="#B8EFFF" stroke-width="0.4">
  <path d="M41.95,43.65 L 43.83 43.65" />
</g>
<g fill="#4682B4" stroke="#0F5D8C">
  <circle cx="76.81" cy="23.77" r="0.5" />
  <circle cx="76.81" cy="55.26" r="0.5" />
</g>
<g stroke="#0F5D8C" stroke-width="0.4">
  <path d="M75.87,25.48 L 77.75 25.48" />
</g>
<g stroke="#0F5D8C" stroke-width="0.4">
  <path d="M75.87,54.79 L 77.75 54.79" />
</g>
<g stroke="#0F5D8C" stroke-width="0.4">
  <path d="M76.81,36.47 L 76.81 25.48" />
</g>
<g stroke="#0F5D8C" stroke-width="0.4">
  <path d="M76.81,43.8 L 76.81 54.79" />
</g>
<g fill="#4682B4" stroke="#0F5D8C" stroke-width="0.3">
  <path d="M 74.49 43.8 L 79.14 43.8 79.14 36.47 74.49 36.47 z" />
</g>
<g stroke="#B8EFFF" stroke-width="0.4">
  <path d="M75.87,39.24 L 77.75 39.24" />
</g>
<g stroke="#0F5D8C" stroke-width="0.4">
  <path d="M30.64,36.34 L 32.53 36.34" />
</g>
<g stroke="#0F5D8C" stroke-width="0.4">
  <path d="M30.64,53.14 L 32.53 53.14" />
</g>
<g stroke="#0F5D8C" stroke-width="0.4">
  <path d="M31.58,42.64 L 31.58 36.34" />
</g>
<g stroke="#0F5D8C" stroke-width="0.4">
  <path d="M31.58,46.84 L 31.58 53.14" />
</g>
<g fill="#4682B4" stroke="#0F5D8C" stroke-width="0.3">
  <path d="M 29.26 46.84 L 33.91 46.84 33.91 42.64 29.26 42.64 z" />
</g>
<g stroke="#B8EFFF" stroke-width="0.4">
  <path d="M30.64,44.79 L 32.53 44.79" />
</g>
<g stroke="#0F5D8C" stroke-width="0.4">
  <path d="M24.99,18.7 L 26.87 18.7" />
</g>
<g stroke="#0F5D8C" stroke-width="0.4">
  <path d="M24.99,68.15 L 26.87 68.15" />
</g>
<g stroke="#0F5D8C" stroke-width="0.4">
  <path d="M25.93,37.25 L 25.93 18.7" />
</g>
<g stroke="#0F5D8C" stroke-width="0.4">
  <path d="M25.93,49.61 L 25.93 68.15" />
</g>
<g fill="#4682B4" stroke="#0F5D8C" stroke-width="0.3">
  <path d="M 23.6 49.61 L 28.26 49.61 28.26 37.25 23.6 37.25 z" />
</g>
<g stroke="#B8EFFF" stroke-width="0.4">
  <path d="M24.99,48.32 L 26.87 48.32" />
</g>
<g fill="#4682B4" stroke="#0F5D8C">
  <circle cx="48.54" cy="71.29" r="0.5" />
  <circle cx="48.54" cy="64.34" r="0.5" />
</g>
<g stroke="#0F5D8C" stroke-width="0.4">
  <path d="M47.6,22.92 L 49.49 22.92" />
</g>
<g stroke="#0F5D8C" stroke-width="0.4">
  <path d="M47.6,64.21 L 49.49 64.21" />
</g>
<g stroke="#0F5D8C" stroke-width="0.4">
  <path d="M48.54,38.4 L 48.54 22.92" />
</g>
<g stroke="#0F5D8C" stroke-width="0.4">
  <path d="M48.54,48.72 L 48.54 64.21" />
</g>
<g fill="#4682B4" stroke="#0F5D8C" stroke-width="0.3">
  <path d="M 46.22 48.72 L 50.87 48.72 50.87 38.4 46.22 38.4 z" />
</g>
<g stroke="#B8EFFF" stroke-width="0.4">
  <path d="M47.6,43.28 L 49.49 43.28" />
</g>
<g fill="#4682B4" stroke="#0F5D8C">
  <circle cx="71.16" cy="59.46" r="0.5" />
  <circle cx="71.16" cy="63.13" r="0.5" />
  <circle cx="71.16" cy="23.63" r="0.5" />
  <circle cx="71.16" cy="14.23" r="0.5" />
</g>
<g stroke="#0F5D8C" stroke-width="0.4">
  <path d="M70.22,25.55 L 72.1 25.55" />
</g>
<g stroke="#0F5D8C" stroke-width="0.4">
  <path d="M70.22,58.95 L 72.1 58.95" />
</g>
<g stroke="#0F5D8C" stroke-width="0.4">
  <path d="M71.16,38.07 L 71.16 25.55" />
</g>
<g stroke="#0F5D8C" stroke-width="0.4">
  <path d="M71.16,46.42 L 71.16 58.95" />
</g>
<g fill="#4682B4" stroke="#0F5D8C" stroke-width="0.3">
  <path d="M 68.83 46.42 L 73.49 46.42 73.49 38.07 68.83 38.07 z" />
</g>
<g stroke="#B8EFFF" stroke-width="0.4">
  <path d="M70.22,41.94 L 72.1 41.94" />
</g>
<g fill="#4682B4" stroke="#0F5D8C">
  <circle cx="65.51" cy="59.14" r="0.5" />
  <circle cx="65.51" cy="57.92" r="0.5" />
  <circle cx="65.51" cy="57.92" r="0.5" />
  <circle cx="65.51" cy="58.22" r="0.5" />
  <circle cx="65.51" cy="58.22" r="0.5" />
  <circle cx="65.51" cy="17.85" r="0.5" />
</g>
<g stroke="#0F5D8C" stroke-width="0.4">
  <path d="M64.56,26.3 L 66.45 26.3" />
</g>
<g stroke="#0F5D8C" stroke-width="0.4">
  <path d="M64.56,57.46 L 66.45 57.46" />
</g>
<g stroke="#0F5D8C" stroke-width="0.4">
  <path d="M65.51,37.98 L 65.51 26.3" />
</g>
<g stroke="#0F5D8C" stroke-width="0.4">
  <path d="M65.51,45.78 L 65.51 57.46" />
</g>
<g fill="#4682B4" stroke="#0F5D8C" stroke-width="0.3">
  <path d="M 63.18 45.78 L 67.83 45.78 67.83 37.98 63.18 37.98 z" />
</g>
<g stroke="#B8EFFF" stroke-width="0.4">
  <path d="M64.56,41.9 L 66.45 41.9" />
</g>
<g fill="#4C404B" font-size="3.18" font-family="PT Sans Caption" stroke="none">
  <text x="25.93" y="87.04" text-anchor="middle">5</text>
  <text x="37.24" y="87.04" text-anchor="middle">7</text>
  <text x="31.58" y="87.04" text-anchor="middle">6</text>
  <text x="65.51" y="87.04" text-anchor="middle">12</text>
  <text x="48.54" y="87.04" text-anchor="middle">9</text>
  <text x="59.85" y="87.04" text-anchor="middle">11</text>
  <text x="42.89" y="87.04" text-anchor="middle">8</text>
  <text x="82.47" y="87.04" text-anchor="middle">15</text>
  <text x="20.28" y="87.04" text-anchor="middle">4</text>
  <text x="76.81" y="87.04" text-anchor="middle">14</text>
  <text x="93.77" y="87.04" text-anchor="middle">17</text>
  <text x="54.2" y="87.04" text-anchor="middle">10</text>
  <text x="88.12" y="87.04" text-anchor="middle">16</text>
  <text x="71.16" y="87.04" text-anchor="middle">13</text>
</g>
<g fill="#362A35" font-size="3.88" font-family="PT Sans" stroke="none">
  <text x="57.02" y="94.6" text-anchor="middle">ed</text>
</g>
<g fill="#362A35" font-size="3.88" font-family="PT Sans" stroke="none">
  <text x="9.28" y="43.65" text-anchor="middle" style="dominant-baseline:central" transform="rotate(-90, 9.28, 43.65)">lwage</text>
</g>
<g fill="#4C404B" font-size="3.18" font-family="PT Sans Caption" stroke="none">
  <text x="16.45" y="7.19" text-anchor="end" style="dominant-baseline:central">9</text>
  <text x="16.45" y="50.94" text-anchor="end" style="dominant-baseline:central">6</text>
  <text x="16.45" y="65.53" text-anchor="end" style="dominant-baseline:central">5</text>
  <text x="16.45" y="80.12" text-anchor="end" style="dominant-baseline:central">4</text>
  <text x="16.45" y="36.36" text-anchor="end" style="dominant-baseline:central">7</text>
  <text x="16.45" y="21.77" text-anchor="end" style="dominant-baseline:central">8</text>
</g>
</svg>
