<?xml version="1.0" encoding="UTF-8"?>
<svg xmlns="http://www.w3.org/2000/svg" xmlns:xlink="http://www.w3.org/1999/xlink" version="1.1" width="152.4mm" height="152.4mm" viewBox="0 0 152.4 152.4" style="stroke:black;fill:black" stroke-width="0.5">
<g fill="#F5F5F5" stroke="#F2F2F2">
  <path d="M 22.26 5 L 147.4 5 147.4 132.4 22.26 132.4 z" />
  <g stroke="#FFFFFF" stroke-width="0.3">
    <path d="M143.86,5 L 143.86 132.4" />
    <path d="M84.83,5 L 84.83 132.4" />
    <path d="M25.8,5 L 25.8 132.4" />
    <path d="M55.32,5 L 55.32 132.4" />
    <path d="M114.34,5 L 114.34 132.4" />
  </g>
  <g stroke="#FFFFFF" stroke-width="0.3">
    <path d="M22.26,108.77 L 147.4 108.77" />
    <path d="M22.26,88.73 L 147.4 88.73" />
    <path d="M22.26,48.67 L 147.4 48.67" />
    <path d="M22.26,128.8 L 147.4 128.8" />
    <path d="M22.26,68.7 L 147.4 68.7" />
    <path d="M22.26,28.64 L 147.4 28.64" />
    <path d="M22.26,8.61 L 147.4 8.61" />
  </g>
</g>
<g stroke="none" stroke-width="0.3">
  <g fill="#4682B4" stroke="#0F5D8C" class="color_group_RGB(0.27450980392156865,0.5098039215686274,0.7058823529411765)">
    <circle cx="25.85" cy="127.91" r="0.5" />
    <circle cx="25.81" cy="128.49" r="0.5" />
    <circle cx="25.82" cy="128.64" r="0.5" />
    <circle cx="32.66" cy="120.32" r="0.5" />
    <circle cx="26.34" cy="126.4" r="0.5" />
    <circle cx="26.21" cy="126.49" r="0.5" />
    <circle cx="26.02" cy="126.83" r="0.5" />
    <circle cx="25.82" cy="128.69" r="0.5" />
    <circle cx="25.86" cy="127.64" r="0.5" />
    <circle cx="25.81" cy="128.67" r="0.5" />
    <circle cx="25.8" cy="128.72" r="0.5" />
    <circle cx="25.81" cy="128.68" r="0.5" />
    <circle cx="25.82" cy="128.67" r="0.5" />
    <circle cx="25.8" cy="128.8" r="0.5" />
    <circle cx="25.8" cy="128.78" r="0.5" />
    <circle cx="25.85" cy="128.58" r="0.5" />
    <circle cx="25.83" cy="128.55" r="0.5" />
    <circle cx="25.83" cy="128.67" r="0.5" />
    <circle cx="63.39" cy="36.59" r="0.5" />
    <circle cx="25.8" cy="128.79" r="0.5" />
    <circle cx="28.56" cy="120.4" r="0.5" />
    <circle cx="33.49" cy="115.68" r="0.5" />
    <circle cx="25.81" cy="128.73" r="0.5" />
    <circle cx="25.95" cy="126.49" r="0.5" />
    <circle cx="25.85" cy="128.29" r="0.5" />
    <circle cx="25.8" cy="128.7" r="0.5" />
    <circle cx="25.82" cy="128.45" r="0.5" />
    <circle cx="33.61" cy="115.18" r="0.5" />
    <circle cx="28.86" cy="120.67" r="0.5" />
    <circle cx="27.06" cy="122.29" r="0.5" />
    <circle cx="25.81" cy="128.55" r="0.5" />
    <circle cx="26.72" cy="102.36" r="0.5" />
    <circle cx="124" cy="14.38" r="0.5" />
    <circle cx="25.85" cy="128.72" r="0.5" />
    <circle cx="25.9" cy="125.21" r="0.5" />
    <circle cx="26.32" cy="127.68" r="0.5" />
    <circle cx="25.86" cy="128.46" r="0.5" />
    <circle cx="25.8" cy="128.78" r="0.5" />
    <circle cx="25.8" cy="128.79" r="0.5" />
    <circle cx="25.8" cy="128.79" r="0.5" />
    <circle cx="25.82" cy="128.55" r="0.5" />
    <circle cx="29.49" cy="118.98" r="0.5" />
    <circle cx="25.84" cy="128.56" r="0.5" />
    <circle cx="26.62" cy="125.29" r="0.5" />
    <circle cx="27.28" cy="125.65" r="0.5" />
    <circle cx="26.57" cy="119.98" r="0.5" />
    <circle cx="25.96" cy="125.2" r="0.5" />
    <circle cx="25.81" cy="128.75" r="0.5" />
    <circle cx="26.69" cy="127.18" r="0.5" />
    <circle cx="25.85" cy="128.38" r="0.5" />
    <circle cx="25.86" cy="128.01" r="0.5" />
    <circle cx="25.81" cy="128.76" r="0.5" />
    <circle cx="25.8" cy="128.77" r="0.5" />
    <circle cx="25.8" cy="128.74" r="0.5" />
    <circle cx="25.8" cy="128.79" r="0.5" />
    <circle cx="28.63" cy="125.19" r="0.5" />
    <circle cx="25.85" cy="128.3" r="0.5" />
    <circle cx="28.16" cy="125.41" r="0.5" />
    <circle cx="25.81" cy="128.75" r="0.5" />
    <circle cx="25.82" cy="128.57" r="0.5" />
    <circle cx="25.8" cy="128.75" r="0.5" />
    <circle cx="25.86" cy="127.79" r="0.5" />
  </g>
</g>
<g fill="#4C404B" font-size="3.18" font-family="Source Sans Pro" stroke="none">
  <text x="143.86" y="137.45" text-anchor="middle">8000</text>
  <text x="84.83" y="137.45" text-anchor="middle">4000</text>
  <text x="25.8" y="137.45" text-anchor="middle">0</text>
  <text x="55.32" y="137.45" text-anchor="middle">2000</text>
  <text x="114.34" y="137.45" text-anchor="middle">6000</text>
</g>
<g fill="#362A35" font-size="3.88" font-family="Source Sans Pro" stroke="none">
  <text x="84.83" y="145.4" text-anchor="middle">body</text>
</g>
<g fill="#362A35" font-size="3.88" font-family="Source Sans Pro" stroke="none">
  <text x="9.47" y="68.7" text-anchor="middle" style="dominant-baseline:central" transform="rotate(-90, 9.47, 68.7)">brain</text>
</g>
<g fill="#4C404B" font-size="3.18" font-family="Source Sans Pro" stroke="none">
  <text x="21.26" y="108.77" text-anchor="end" style="dominant-baseline:central">1000</text>
  <text x="21.26" y="88.73" text-anchor="end" style="dominant-baseline:central">2000</text>
  <text x="21.26" y="48.67" text-anchor="end" style="dominant-baseline:central">4000</text>
  <text x="21.26" y="128.8" text-anchor="end" style="dominant-baseline:central">0</text>
  <text x="21.26" y="68.7" text-anchor="end" style="dominant-baseline:central">3000</text>
  <text x="21.26" y="28.64" text-anchor="end" style="dominant-baseline:central">5000</text>
  <text x="21.26" y="8.61" text-anchor="end" style="dominant-baseline:central">6000</text>
</g>
</svg>
