<?xml version="1.0" encoding="UTF-8"?>
<svg xmlns="http://www.w3.org/2000/svg" xmlns:xlink="http://www.w3.org/1999/xlink" version="1.1" width="152.4mm" height="76.2mm" viewBox="0 0 152.4 76.2" style="stroke:black;fill:black" stroke-width="0.5">
<g fill="#F5F5F5" stroke="#F2F2F2">
  <path d="M 21.34 5 L 136.36 5 136.36 56.9 21.34 56.9 z" />
  <g stroke="#FFFFFF" stroke-width="0.3">
    <path d="M133.11,5 L 133.11 56.9" />
    <path d="M89.7,5 L 89.7 56.9" />
    <path d="M24.6,5 L 24.6 56.9" />
    <path d="M46.3,5 L 46.3 56.9" />
    <path d="M111.4,5 L 111.4 56.9" />
    <path d="M68,5 L 68 56.9" />
  </g>
  <g stroke="#FFFFFF" stroke-width="0.3">
    <path d="M21.34,43.19 L 136.36 43.19" />
    <path d="M21.34,55.43 L 136.36 55.43" />
    <path d="M21.34,30.95 L 136.36 30.95" />
    <path d="M21.34,18.71 L 136.36 18.71" />
    <path d="M21.34,6.47 L 136.36 6.47" />
  </g>
</g>
<g fill="none" stroke-width="0.4">
  <g class="color_group_f&lt;sub&gt;1&lt;/sub&gt;" stroke="#FF81AD">
    <path d="M28.94,10.35 L 29.35 9.18 29.77 8.2 30.19 7.44 30.6 6.89 31.02 6.57 31.44 6.47 31.85 6.59 32.27 6.94 32.69 7.51 33.1 8.3 33.52 9.29 33.94 10.49 34.35 11.87 34.77 13.43 35.19 15.15 35.6 17.01 36.02 19.01 36.44 21.11 36.85 23.31 37.27 25.57 37.69 27.88 38.1 30.23 38.52 32.58 38.94 34.91 39.35 37.21 39.77 39.45 40.19 41.61 40.6 43.67 41.02 45.62 41.44 47.43 41.85 49.09 42.27 50.58 42.69 51.89 43.1 53.01 43.52 53.93 43.94 54.63 44.35 55.12 44.77 55.38 45.19 55.42 45.6 55.23 46.02 54.82 46.44 54.19 46.85 53.35 47.27 52.3 47.69 51.05 48.1 49.62 48.52 48.02 48.94 46.25 49.35 44.35 49.77 42.33 50.19 40.2 50.6 37.98 51.02 35.7 51.44 33.38 51.85 31.03 52.27 28.68 52.69 26.36 53.1 24.07 53.52 21.85 53.94 19.72 54.35 17.68 54.77 15.77 55.19 14 55.6 12.38 56.02 10.94 56.44 9.68 56.85 8.62 57.27 7.76 57.69 7.11 58.1 6.69 58.52 6.49 58.94 6.51 59.35 6.76 59.77 7.23 60.19 7.92 60.6 8.82 61.02 9.93 61.44 11.23 61.85 12.71 62.27 14.36 62.69 16.16 63.1 18.1 63.52 20.15 63.94 22.31 64.35 24.54 64.77 26.84 65.19 29.17 65.6 31.52 66.02 33.86 66.44 36.18 66.85 38.45 67.27 40.65 67.69 42.76 68.11 44.76 68.52 46.63 68.94 48.36 69.36 49.93 69.77 51.33 70.19 52.53 70.61 53.54 71.02 54.34 71.44 54.93 71.86 55.29 72.27 55.43 72.69 55.35 73.11 55.04 73.52 54.5 73.94 53.76 74.36 52.8 74.77 51.64 75.19 50.29 75.61 48.76 76.02 47.06 76.44 45.22 76.86 43.25 77.27 41.17 77.69 38.99 78.11 36.73 78.52 34.43 78.94 32.09 79.36 29.74 79.77 27.4 80.19 25.09 80.61 22.84 81.02 20.66 81.44 18.58 81.86 16.61 82.27 14.78 82.69 13.09 83.11 11.57 83.52 10.22 83.94 9.07 84.36 8.12 84.77 7.38 85.19 6.85 85.61 6.55 86.02 6.47 86.44 6.62 86.86 6.99 87.27 7.58 87.69 8.39 88.11 9.41 88.52 10.62 88.94 12.02 89.36 13.6 89.77 15.33 90.19 17.21 90.61 19.21 91.02 21.33 91.44 23.53 91.86 25.8 92.27 28.12 92.69 30.46 93.11 32.81 93.52 35.14 93.94 37.44 94.36 39.67 94.77 41.82 95.19 43.87 95.61 45.81 96.02 47.6 96.44 49.25 96.86 50.72 97.27 52.02 97.69 53.11 98.11 54.01 98.52 54.69 98.94 55.16 99.36 55.4 99.77 55.41 100.19 55.2 100.61 54.77 101.02 54.12 101.44 53.25 101.86 52.18 102.27 50.92 102.69 49.47 103.11 47.85 103.52 46.07 103.94 44.15 104.36 42.12 104.77 39.98 105.19 37.75 105.61 35.47 106.02 33.14 106.44 30.79 106.86 28.45 107.27 26.12 107.69 23.85 108.11 21.63 108.52 19.51 108.94 17.48 109.36 15.59 109.77 13.83 110.19 12.23 110.61 10.81 111.02 9.56 111.44 8.52 111.86 7.68 112.27 7.06 112.69 6.66 113.11 6.48 113.52 6.52 113.94 6.8 114.36 7.29 114.77 8 115.19 8.92 115.61 10.05 116.02 11.37 116.44 12.87 116.86 14.53 117.27 16.35 117.69 18.3 118.11 20.37 118.52 22.53 118.94 24.77 119.36 27.07 119.77 29.41 120.19 31.76 120.61 34.1 121.02 36.41 121.44 38.67 121.86 40.86 122.27 42.96 122.69 44.95 123.11 46.81 123.52 48.53 123.94 50.08 124.36 51.46 124.77 52.65 125.19 53.63 125.61 54.41 126.02 54.97 126.44 55.32 126.86 55.43 127.27 55.33 127.69 54.99 128.11 54.44 128.52 53.67 128.94 52.69 129.36 51.51 129.77 50.14 130.19 48.59 130.61 46.89 131.02 45.03 131.44 43.05 131.86 40.95 132.27 38.76 132.69 36.5 133.11 34.19" />
  </g>
  <g class="color_group_f&lt;sub&gt;2&lt;/sub&gt;" stroke="#00C3AA">
    <path d="M28.94,17.72 L 29.35 19.76 29.77 21.9 30.19 24.12 30.6 26.4 31.02 28.73 31.44 31.08 31.85 33.42 32.27 35.75 32.69 38.03 33.1 40.24 33.52 42.37 33.94 44.39 34.35 46.29 34.77 48.05 35.19 49.65 35.6 51.08 36.02 52.32 36.44 53.37 36.85 54.21 37.27 54.84 37.69 55.24 38.1 55.42 38.52 55.38 38.94 55.11 39.35 54.62 39.77 53.91 40.19 52.99 40.6 51.87 41.02 50.55 41.44 49.06 41.85 47.39 42.27 45.58 42.69 43.63 43.1 41.56 43.52 39.4 43.94 37.16 44.35 34.86 44.77 32.53 45.19 30.18 45.6 27.84 46.02 25.52 46.44 23.26 46.85 21.07 47.27 18.97 47.69 16.97 48.1 15.11 48.52 13.4 48.94 11.84 49.35 10.46 49.77 9.27 50.19 8.28 50.6 7.5 51.02 6.93 51.44 6.59 51.85 6.47 52.27 6.57 52.69 6.9 53.1 7.46 53.52 8.22 53.94 9.2 54.35 10.38 54.77 11.74 55.19 13.29 55.6 14.99 56.02 16.85 56.44 18.83 56.85 20.92 57.27 23.11 57.69 25.37 58.1 27.68 58.52 30.02 58.94 32.37 59.35 34.71 59.77 37.01 60.19 39.25 60.6 41.42 61.02 43.5 61.44 45.45 61.85 47.28 62.27 48.95 62.69 50.46 63.1 51.79 63.52 52.92 63.94 53.86 64.35 54.58 64.77 55.09 65.19 55.37 65.6 55.43 66.02 55.26 66.44 54.87 66.85 54.26 67.27 53.43 67.69 52.4 68.11 51.17 68.52 49.75 68.94 48.16 69.36 46.41 69.77 44.52 70.19 42.51 70.61 40.39 71.02 38.18 71.44 35.9 71.86 33.58 72.27 31.23 72.69 28.89 73.11 26.56 73.52 24.27 73.94 22.04 74.36 19.9 74.77 17.85 75.19 15.93 75.61 14.15 76.02 12.52 76.44 11.06 76.86 9.78 77.27 8.7 77.69 7.82 78.11 7.16 78.52 6.72 78.94 6.5 79.36 6.5 79.77 6.73 80.19 7.18 80.61 7.85 81.02 8.73 81.44 9.82 81.86 11.11 82.27 12.57 82.69 14.21 83.11 16 83.52 17.92 83.94 19.97 84.36 22.12 84.77 24.35 85.19 26.64 85.61 28.97 86.02 31.31 86.44 33.66 86.86 35.98 87.27 38.25 87.69 40.46 88.11 42.58 88.52 44.59 88.94 46.48 89.36 48.22 89.77 49.8 90.19 51.21 90.61 52.44 91.02 53.46 91.44 54.28 91.86 54.89 92.27 55.27 92.69 55.43 93.11 55.36 93.52 55.07 93.94 54.56 94.36 53.83 94.77 52.89 95.19 51.75 95.61 50.41 96.02 48.9 96.44 47.22 96.86 45.39 97.27 43.43 97.69 41.35 98.11 39.18 98.52 36.93 98.94 34.63 99.36 32.29 99.77 29.94 100.19 27.6 100.61 25.29 101.02 23.04 101.44 20.85 101.86 18.76 102.27 16.78 102.69 14.93 103.11 13.23 103.52 11.69 103.94 10.33 104.36 9.16 104.77 8.19 105.19 7.43 105.61 6.89 106.02 6.57 106.44 6.47 106.86 6.6 107.27 6.95 107.69 7.52 108.11 8.31 108.52 9.31 108.94 10.51 109.36 11.89 109.77 13.45 110.19 15.17 110.61 17.04 111.02 19.03 111.44 21.14 111.86 23.33 112.27 25.6 112.69 27.91 113.11 30.26 113.52 32.61 113.94 34.94 114.36 37.24 114.77 39.48 115.19 41.64 115.61 43.7 116.02 45.64 116.44 47.45 116.86 49.11 117.27 50.6 117.69 51.91 118.11 53.03 118.52 53.94 118.94 54.64 119.36 55.12 119.77 55.39 120.19 55.42 120.61 55.23 121.02 54.82 121.44 54.18 121.86 53.34 122.27 52.28 122.69 51.03 123.11 49.6 123.52 47.99 123.94 46.23 124.36 44.33 124.77 42.3 125.19 40.17 125.61 37.95 126.02 35.67 126.44 33.35 126.86 31 127.27 28.65 127.69 26.33 128.11 24.04 128.52 21.82 128.94 19.69 129.36 17.66 129.77 15.75 130.19 13.98 130.61 12.36 131.02 10.92 131.44 9.67 131.86 8.6 132.27 7.75 132.69 7.11 133.11 6.68" />
  </g>
</g>
<g font-size="3.18" font-family="PT Sans Caption">
  <a xlink:href="#"><g onclick="js_chunk_6fe5d909a75e9025(evt)" id="color_key_f&lt;sub&gt;1&lt;/sub&gt;">
    <g fill="#FF81AD" stroke="#D65886" stroke-width="0.3">
      <path d="M 138.36 29.92 L 143.67 29.92 143.67 35.23 138.36 35.23 z" />
    </g>
    <g fill="#4C404B" stroke="none">
      <text x="144.67" y="32.58" style="dominant-baseline:central">f<tspan baseline-shift="-1.722547743055555358" font-size="83.333333%">1</tspan></text>
    </g>
  </g></a>
  <a xlink:href="#"><g onclick="js_chunk_269de9a614ceb227(evt)" id="color_key_f&lt;sub&gt;2&lt;/sub&gt;">
    <g fill="#00C3AA" stroke="#009A82" stroke-width="0.3">
      <path d="M 138.36 36.23 L 143.67 36.23 143.67 41.54 138.36 41.54 z" />
    </g>
    <g fill="#4C404B" stroke="none">
      <text x="144.67" y="38.89" style="dominant-baseline:central">f<tspan baseline-shift="-1.722547743055555358" font-size="83.333333%">2</tspan></text>
    </g>
  </g></a>
</g>
<g fill="#362A35" font-size="3.88" font-family="PT Sans" stroke="none">
  <text x="141.88" y="27.92" text-anchor="middle">f</text>
</g>
<g fill="#4C404B" font-size="3.18" font-family="PT Sans Caption" stroke="none">
  <text x="133.11" y="61.64" text-anchor="middle">25</text>
  <text x="89.7" y="61.64" text-anchor="middle">15</text>
  <text x="24.6" y="61.64" text-anchor="middle">0</text>
  <text x="46.3" y="61.64" text-anchor="middle">5</text>
  <text x="111.4" y="61.64" text-anchor="middle">20</text>
  <text x="68" y="61.64" text-anchor="middle">10</text>
</g>
<g fill="#362A35" font-size="3.88" font-family="PT Sans" stroke="none">
  <text x="78.85" y="69.2" text-anchor="middle">x</text>
</g>
<g fill="#362A35" font-size="3.88" font-family="PT Sans" stroke="none">
  <text x="9.28" y="30.95" text-anchor="middle" style="dominant-baseline:central" transform="rotate(-90, 9.28, 30.95)">f(x)</text>
</g>
<g fill="#4C404B" font-size="3.18" font-family="PT Sans Caption" stroke="none">
  <text x="20.34" y="43.19" text-anchor="end" style="dominant-baseline:central">-0.5</text>
  <text x="20.34" y="55.43" text-anchor="end" style="dominant-baseline:central">-1</text>
  <text x="20.34" y="30.95" text-anchor="end" style="dominant-baseline:central">0</text>
  <text x="20.34" y="18.71" text-anchor="end" style="dominant-baseline:central">0.5</text>
  <text x="20.34" y="6.47" text-anchor="end" style="dominant-baseline:central">1</text>
</g>
<script type="application/ecmascript"><![CDATA[
function js_chunk_6fe5d909a75e9025(evt) {
  geoms = document.getElementsByClassName('color_group_f<sub>1</sub>');
                        entry = document.getElementById('color_key_f<sub>1</sub>');
                        state = geoms[0].getAttribute('visibility');
                        if (!state || state == 'visible') {
                            for (i = 0; i < geoms.length; ++i) {
                                geoms[i].setAttribute('visibility', 'hidden');
                            }
                            entry.setAttribute('opacity', 0.5);
                        } else {
                            for (i = 0; i < geoms.length; ++i) {
                                geoms[i].setAttribute('visibility', 'visible');
                            }
                            entry.setAttribute('opacity', 1.0);
                        }
}

function js_chunk_269de9a614ceb227(evt) {
  geoms = document.getElementsByClassName('color_group_f<sub>2</sub>');
                        entry = document.getElementById('color_key_f<sub>2</sub>');
                        state = geoms[0].getAttribute('visibility');
                        if (!state || state == 'visible') {
                            for (i = 0; i < geoms.length; ++i) {
                                geoms[i].setAttribute('visibility', 'hidden');
                            }
                            entry.setAttribute('opacity', 0.5);
                        } else {
                            for (i = 0; i < geoms.length; ++i) {
                                geoms[i].setAttribute('visibility', 'visible');
                            }
                            entry.setAttribute('opacity', 1.0);
                        }
}

]]></script></svg>
