<?xml version="1.0" encoding="UTF-8"?>
<svg xmlns="http://www.w3.org/2000/svg" xmlns:xlink="http://www.w3.org/1999/xlink" version="1.1" width="152.4mm" height="152.4mm" viewBox="0 0 152.4 152.4" style="stroke:black;fill:black" stroke-width="0.5">
<g fill="#F5F5F5" stroke="#F2F2F2">
  <path d="M 21.24 5 L 147.4 5 147.4 131.19 21.24 131.19 z" />
  <g stroke="#FFFFFF" stroke-width="0.3">
    <path d="M54.57,5 L 54.57 131.19" />
    <path d="M143.83,5 L 143.83 131.19" />
    <path d="M84.32,5 L 84.32 131.19" />
    <path d="M114.08,5 L 114.08 131.19" />
    <path d="M24.81,5 L 24.81 131.19" />
  </g>
  <g stroke="#FFFFFF" stroke-width="0.3">
    <path d="M21.24,32.38 L 147.4 32.38" />
    <path d="M21.24,127.61 L 147.4 127.61" />
    <path d="M21.24,103.81 L 147.4 103.81" />
    <path d="M21.24,8.57 L 147.4 8.57" />
    <path d="M21.24,56.19 L 147.4 56.19" />
    <path d="M21.24,80 L 147.4 80" />
  </g>
</g>
<g stroke="none" stroke-width="0.3">
  <g fill="#4682B4" stroke="#0F5D8C" class="color_group_RGB(0.27450980392156865,0.5098039215686274,0.7058823529411765)">
    <circle cx="92.2" cy="64.56" r="0.5" />
    <circle cx="79.58" cy="75.47" r="0.5" />
    <circle cx="86.26" cy="82.18" r="0.5" />
    <circle cx="124" cy="41.28" r="0.5" />
    <circle cx="107.53" cy="54.35" r="0.5" />
    <circle cx="105.77" cy="54.74" r="0.5" />
    <circle cx="101.74" cy="56.38" r="0.5" />
    <circle cx="84.57" cy="86.18" r="0.5" />
    <circle cx="93.58" cy="61.82" r="0.5" />
    <circle cx="78.79" cy="84.61" r="0.5" />
    <circle cx="69.51" cy="89.47" r="0.5" />
    <circle cx="83.78" cy="85.81" r="0.5" />
    <circle cx="84.32" cy="84.29" r="0.5" />
    <circle cx="50.09" cy="124.14" r="0.5" />
    <circle cx="66.14" cy="103.81" r="0.5" />
    <circle cx="92.41" cy="79.2" r="0.5" />
    <circle cx="88.8" cy="77.86" r="0.5" />
    <circle cx="87.75" cy="84.77" r="0.5" />
    <circle cx="134.99" cy="16.59" r="0.5" />
    <circle cx="59.95" cy="116.25" r="0.5" />
    <circle cx="118.12" cy="41.37" r="0.5" />
    <circle cx="124.74" cy="36.75" r="0.5" />
    <circle cx="82.76" cy="90.85" r="0.5" />
    <circle cx="99.2" cy="54.74" r="0.5" />
    <circle cx="92.03" cy="70.28" r="0.5" />
    <circle cx="73.92" cy="87.16" r="0.5" />
    <circle cx="86.54" cy="74.21" r="0.5" />
    <circle cx="124.84" cy="36.37" r="0.5" />
    <circle cx="118.78" cy="41.7" r="0.5" />
    <circle cx="113.02" cy="44" r="0.5" />
    <circle cx="82.46" cy="77.86" r="0.5" />
    <circle cx="110.99" cy="29.51" r="0.5" />
    <circle cx="141.2" cy="14.36" r="0.5" />
    <circle cx="92.41" cy="89.73" r="0.5" />
    <circle cx="96.71" cy="50.17" r="0.5" />
    <circle cx="107.29" cy="62.18" r="0.5" />
    <circle cx="93.36" cy="74.51" r="0.5" />
    <circle cx="70.62" cy="103.81" r="0.5" />
    <circle cx="59.95" cy="113.28" r="0.5" />
    <circle cx="54.57" cy="118.14" r="0.5" />
    <circle cx="86.49" cy="77.69" r="0.5" />
    <circle cx="120" cy="39.76" r="0.5" />
    <circle cx="90.24" cy="78.03" r="0.5" />
    <circle cx="110.27" cy="50.4" r="0.5" />
    <circle cx="114.08" cy="51.52" r="0.5" />
    <circle cx="109.87" cy="40.87" r="0.5" />
    <circle cx="99.54" cy="50.14" r="0.5" />
    <circle cx="80.46" cy="94.75" r="0.5" />
    <circle cx="110.77" cy="58.37" r="0.5" />
    <circle cx="92.6" cy="72.33" r="0.5" />
    <circle cx="93.73" cy="65.87" r="0.5" />
    <circle cx="76.1" cy="97.17" r="0.5" />
    <circle cx="67.58" cy="101.92" r="0.5" />
    <circle cx="70.73" cy="92.45" r="0.5" />
    <circle cx="64.7" cy="115.27" r="0.5" />
    <circle cx="118.29" cy="50.11" r="0.5" />
    <circle cx="91.42" cy="70.52" r="0.5" />
    <circle cx="117.11" cy="50.76" r="0.5" />
    <circle cx="83.64" cy="93.93" r="0.5" />
    <circle cx="87.44" cy="78.64" r="0.5" />
    <circle cx="69.7" cy="94.33" r="0.5" />
    <circle cx="93.65" cy="63.27" r="0.5" />
  </g>
</g>
<g fill="#4C404B" font-size="2.82" font-family="Source Sans Pro" stroke="none">
  <text x="64.03" y="97.63" text-anchor="middle" style="dominant-baseline:central">Tree shrew</text>
  <text x="87.47" y="97.22" text-anchor="middle" style="dominant-baseline:central">Tenrec</text>
  <text x="120.6" y="46.81" text-anchor="middle" style="dominant-baseline:central">Pig</text>
  <text x="78" y="100.47" text-anchor="middle" style="dominant-baseline:central">Rat</text>
  <text x="100.35" y="67.49" text-anchor="middle" style="dominant-baseline:central">Raccoon</text>
  <text x="101" y="39.39" text-anchor="middle" style="dominant-baseline:central">Chimpanzee</text>
  <text x="117.7" y="54.82" text-anchor="middle" style="dominant-baseline:central">Jaguar</text>
  <text x="106.82" y="47.1" text-anchor="middle" style="dominant-baseline:central">Sheep</text>
  <text x="117.37" y="36.46" text-anchor="middle" style="dominant-baseline:central">Okapi</text>
  <text x="43.65" y="119.79" text-anchor="middle" style="dominant-baseline:central">Little brown bat</text>
  <text x="54.59" y="111.86" text-anchor="middle" style="dominant-baseline:central">Mouse</text>
  <text x="77.98" y="107.1" text-anchor="middle" style="dominant-baseline:central">Golden hamster</text>
  <text x="108.28" y="75.55" text-anchor="middle" style="dominant-baseline:central">Yellow-bellied marmot</text>
  <text x="114.55" y="62.79" text-anchor="middle" style="dominant-baseline:central">Kangaroo</text>
  <text x="85.91" y="49.07" text-anchor="middle" style="dominant-baseline:central">Rhesus monkey</text>
  <text x="103.13" y="90.54" text-anchor="middle" style="dominant-baseline:central">Water opossum</text>
  <text x="116.84" y="29.44" text-anchor="middle" style="dominant-baseline:central">Human</text>
  <text x="73.33" y="79.41" text-anchor="middle" style="dominant-baseline:central">Rock hyrax-a</text>
  <text x="83.58" y="70.91" text-anchor="middle" style="dominant-baseline:central">Genet</text>
  <text x="89.33" y="55.88" text-anchor="middle" style="dominant-baseline:central">Patas monkey</text>
  <text x="66.36" y="119.55" text-anchor="middle" style="dominant-baseline:central">Big brown bat</text>
  <text x="124.73" y="17.72" text-anchor="middle" style="dominant-baseline:central">Asian elephant</text>
  <text x="97.34" y="83.22" text-anchor="middle" style="dominant-baseline:central">N.A. opossum</text>
  <text x="54.87" y="104.83" text-anchor="middle" style="dominant-baseline:central">Star-nosed mole</text>
  <text x="41.4" y="127.43" text-anchor="middle" style="dominant-baseline:central">Lesser short-tailed shrew</text>
  <text x="58.74" y="90.49" text-anchor="middle" style="dominant-baseline:central">Ground squirrel</text>
  <text x="128.08" y="41.08" text-anchor="middle" style="dominant-baseline:central">Cow</text>
  <text x="85.25" y="63.71" text-anchor="middle" style="dominant-baseline:central">Arctic fox</text>
</g>
<g fill="#4C404B" font-size="3.18" font-family="Source Sans Pro" stroke="none">
  <text x="54.57" y="137.45" text-anchor="middle">10<tspan baseline-shift="1.722548" font-size="83.333333%">-2</tspan></text>
  <text x="143.83" y="137.45" text-anchor="middle">10<tspan baseline-shift="1.722548" font-size="83.333333%">4</tspan></text>
  <text x="84.32" y="137.45" text-anchor="middle">10<tspan baseline-shift="1.722548" font-size="83.333333%">0</tspan></text>
  <text x="114.08" y="137.45" text-anchor="middle">10<tspan baseline-shift="1.722548" font-size="83.333333%">2</tspan></text>
  <text x="24.81" y="137.45" text-anchor="middle">10<tspan baseline-shift="1.722548" font-size="83.333333%">-4</tspan></text>
</g>
<g fill="#362A35" font-size="3.88" font-family="Source Sans Pro" stroke="none">
  <text x="84.32" y="145.4" text-anchor="middle">body</text>
</g>
<g fill="#362A35" font-size="3.88" font-family="Source Sans Pro" stroke="none">
  <text x="9.47" y="68.09" text-anchor="middle" style="dominant-baseline:central" transform="rotate(-90, 9.47, 68.09)">brain</text>
</g>
<g fill="#4C404B" font-size="3.18" font-family="Source Sans Pro" stroke="none">
  <text x="20.24" y="32.38" text-anchor="end" style="dominant-baseline:central">10<tspan baseline-shift="1.722548" font-size="83.333333%">3</tspan></text>
  <text x="20.24" y="127.61" text-anchor="end" style="dominant-baseline:central">10<tspan baseline-shift="1.722548" font-size="83.333333%">-1</tspan></text>
  <text x="20.24" y="103.81" text-anchor="end" style="dominant-baseline:central">10<tspan baseline-shift="1.722548" font-size="83.333333%">0</tspan></text>
  <text x="20.24" y="8.57" text-anchor="end" style="dominant-baseline:central">10<tspan baseline-shift="1.722548" font-size="83.333333%">4</tspan></text>
  <text x="20.24" y="56.19" text-anchor="end" style="dominant-baseline:central">10<tspan baseline-shift="1.722548" font-size="83.333333%">2</tspan></text>
  <text x="20.24" y="80" text-anchor="end" style="dominant-baseline:central">10<tspan baseline-shift="1.722548" font-size="83.333333%">1</tspan></text>
</g>
</svg>
