<?xml version="1.0" encoding="UTF-8"?>
<svg xmlns="http://www.w3.org/2000/svg" xmlns:xlink="http://www.w3.org/1999/xlink" version="1.1" width="101.6mm" height="101.6mm" viewBox="0 0 101.6 101.6" style="stroke:black;fill:black" stroke-width="0.5">
<g fill="#F5F5F5" stroke="#F2F2F2">
  <path d="M 17.53 5 L 96.6 5 96.6 81.6 17.53 81.6 z" />
  <g stroke="#FFFFFF" stroke-width="0.3">
    <path d="M26,5 L 26 81.6" />
    <path d="M37.29,5 L 37.29 81.6" />
    <path d="M31.65,5 L 31.65 81.6" />
    <path d="M65.54,5 L 65.54 81.6" />
    <path d="M48.59,5 L 48.59 81.6" />
    <path d="M59.89,5 L 59.89 81.6" />
    <path d="M42.94,5 L 42.94 81.6" />
    <path d="M82.48,5 L 82.48 81.6" />
    <path d="M20.35,5 L 20.35 81.6" />
    <path d="M76.83,5 L 76.83 81.6" />
    <path d="M93.78,5 L 93.78 81.6" />
    <path d="M54.24,5 L 54.24 81.6" />
    <path d="M88.13,5 L 88.13 81.6" />
    <path d="M71.18,5 L 71.18 81.6" />
  </g>
  <g stroke="#FFFFFF" stroke-width="0.3">
    <path d="M17.53,7.17 L 96.6 7.17" />
    <path d="M17.53,50.53 L 96.6 50.53" />
    <path d="M17.53,64.98 L 96.6 64.98" />
    <path d="M17.53,79.44 L 96.6 79.44" />
    <path d="M17.53,36.08 L 96.6 36.08" />
    <path d="M17.53,21.62 L 96.6 21.62" />
  </g>
</g>
<g fill="#4682B4" stroke="#0F5D8C">
  <circle cx="54.24" cy="64.83" r="0.5" />
  <circle cx="54.24" cy="64.83" r="0.5" />
</g>
<g stroke-width="0.4" stroke="#0F5D8C">
  <path d="M53.3,25.99 L 55.18 25.99" />
</g>
<g stroke-width="0.4" stroke="#0F5D8C">
  <path d="M53.3,60.29 L 55.18 60.29" />
</g>
<g stroke-width="0.4" stroke="#0F5D8C">
  <path d="M54.24,38.85 L 54.24 25.99" />
</g>
<g stroke-width="0.4" stroke="#0F5D8C">
  <path d="M54.24,47.43 L 54.24 60.29" />
</g>
<g fill="#4682B4" stroke="#0F5D8C" stroke-width="0.3">
  <path d="M 51.91 47.43 L 56.56 47.43 56.56 38.85 51.91 38.85 z" />
</g>
<g stroke-width="0.4" stroke="#B8EFFF">
  <path d="M53.3,42.39 L 55.18 42.39" />
</g>
<g fill="#4682B4" stroke="#0F5D8C">
  <circle cx="76.83" cy="23.6" r="0.5" />
  <circle cx="76.83" cy="54.81" r="0.5" />
</g>
<g stroke-width="0.4" stroke="#0F5D8C">
  <path d="M75.89,25.29 L 77.77 25.29" />
</g>
<g stroke-width="0.4" stroke="#0F5D8C">
  <path d="M75.89,54.34 L 77.77 54.34" />
</g>
<g stroke-width="0.4" stroke="#0F5D8C">
  <path d="M76.83,36.19 L 76.83 25.29" />
</g>
<g stroke-width="0.4" stroke="#0F5D8C">
  <path d="M76.83,43.45 L 76.83 54.34" />
</g>
<g fill="#4682B4" stroke="#0F5D8C" stroke-width="0.3">
  <path d="M 74.51 43.45 L 79.16 43.45 79.16 36.19 74.51 36.19 z" />
</g>
<g stroke-width="0.4" stroke="#B8EFFF">
  <path d="M75.89,38.93 L 77.77 38.93" />
</g>
<g fill="#4682B4" stroke="#0F5D8C">
  <circle cx="93.78" cy="22.79" r="0.5" />
  <circle cx="93.78" cy="20.37" r="0.5" />
  <circle cx="93.78" cy="18.3" r="0.5" />
  <circle cx="93.78" cy="19.87" r="0.5" />
  <circle cx="93.78" cy="13.86" r="0.5" />
  <circle cx="93.78" cy="19.3" r="0.5" />
  <circle cx="93.78" cy="17.17" r="0.5" />
  <circle cx="93.78" cy="22.79" r="0.5" />
  <circle cx="93.78" cy="54.76" r="0.5" />
  <circle cx="93.78" cy="19.3" r="0.5" />
  <circle cx="93.78" cy="21.53" r="0.5" />
  <circle cx="93.78" cy="20.82" r="0.5" />
  <circle cx="93.78" cy="22.4" r="0.5" />
  <circle cx="93.78" cy="21.87" r="0.5" />
  <circle cx="93.78" cy="58.97" r="0.5" />
  <circle cx="93.78" cy="58.04" r="0.5" />
  <circle cx="93.78" cy="64.73" r="0.5" />
  <circle cx="93.78" cy="50.69" r="0.5" />
</g>
<g stroke-width="0.4" stroke="#0F5D8C">
  <path d="M92.83,22.8 L 94.72 22.8" />
</g>
<g stroke-width="0.4" stroke="#0F5D8C">
  <path d="M92.83,50.01 L 94.72 50.01" />
</g>
<g stroke-width="0.4" stroke="#0F5D8C">
  <path d="M93.78,33.01 L 93.78 22.8" />
</g>
<g stroke-width="0.4" stroke="#0F5D8C">
  <path d="M93.78,39.81 L 93.78 50.01" />
</g>
<g fill="#4682B4" stroke="#0F5D8C" stroke-width="0.3">
  <path d="M 91.45 39.81 L 96.1 39.81 96.1 33.01 91.45 33.01 z" />
</g>
<g stroke-width="0.4" stroke="#B8EFFF">
  <path d="M92.83,37.44 L 94.72 37.44" />
</g>
<g fill="#4682B4" stroke="#0F5D8C">
  <circle cx="59.89" cy="20.94" r="0.5" />
</g>
<g stroke-width="0.4" stroke="#0F5D8C">
  <path d="M58.95,25.16 L 60.83 25.16" />
</g>
<g stroke-width="0.4" stroke="#0F5D8C">
  <path d="M58.95,60.33 L 60.83 60.33" />
</g>
<g stroke-width="0.4" stroke="#0F5D8C">
  <path d="M59.89,38.35 L 59.89 25.16" />
</g>
<g stroke-width="0.4" stroke="#0F5D8C">
  <path d="M59.89,47.14 L 59.89 60.33" />
</g>
<g fill="#4682B4" stroke="#0F5D8C" stroke-width="0.3">
  <path d="M 57.56 47.14 L 62.21 47.14 62.21 38.35 57.56 38.35 z" />
</g>
<g stroke-width="0.4" stroke="#B8EFFF">
  <path d="M58.95,42.56 L 60.83 42.56" />
</g>
<g fill="#4682B4" stroke="#0F5D8C">
  <circle cx="88.13" cy="58.65" r="0.5" />
</g>
<g stroke-width="0.4" stroke="#0F5D8C">
  <path d="M87.19,19.27 L 89.07 19.27" />
</g>
<g stroke-width="0.4" stroke="#0F5D8C">
  <path d="M87.19,56.14 L 89.07 56.14" />
</g>
<g stroke-width="0.4" stroke="#0F5D8C">
  <path d="M88.13,33.1 L 88.13 19.27" />
</g>
<g stroke-width="0.4" stroke="#0F5D8C">
  <path d="M88.13,42.31 L 88.13 56.14" />
</g>
<g fill="#4682B4" stroke="#0F5D8C" stroke-width="0.3">
  <path d="M 85.8 42.31 L 90.45 42.31 90.45 33.1 85.8 33.1 z" />
</g>
<g stroke-width="0.4" stroke="#B8EFFF">
  <path d="M87.19,37.44 L 89.07 37.44" />
</g>
<g stroke-width="0.4" stroke="#0F5D8C">
  <path d="M30.7,36.06 L 32.59 36.06" />
</g>
<g stroke-width="0.4" stroke="#0F5D8C">
  <path d="M30.7,52.71 L 32.59 52.71" />
</g>
<g stroke-width="0.4" stroke="#0F5D8C">
  <path d="M31.65,42.3 L 31.65 36.06" />
</g>
<g stroke-width="0.4" stroke="#0F5D8C">
  <path d="M31.65,46.46 L 31.65 52.71" />
</g>
<g fill="#4682B4" stroke="#0F5D8C" stroke-width="0.3">
  <path d="M 29.32 46.46 L 33.97 46.46 33.97 42.3 29.32 42.3 z" />
</g>
<g stroke-width="0.4" stroke="#B8EFFF">
  <path d="M30.7,44.43 L 32.59 44.43" />
</g>
<g stroke-width="0.4" stroke="#0F5D8C">
  <path d="M81.54,22.09 L 83.42 22.09" />
</g>
<g stroke-width="0.4" stroke="#0F5D8C">
  <path d="M81.54,52.83 L 83.42 52.83" />
</g>
<g stroke-width="0.4" stroke="#0F5D8C">
  <path d="M82.48,33.62 L 82.48 22.09" />
</g>
<g stroke-width="0.4" stroke="#0F5D8C">
  <path d="M82.48,41.3 L 82.48 52.83" />
</g>
<g fill="#4682B4" stroke="#0F5D8C" stroke-width="0.3">
  <path d="M 80.16 41.3 L 84.8 41.3 84.8 33.62 80.16 33.62 z" />
</g>
<g stroke-width="0.4" stroke="#B8EFFF">
  <path d="M81.54,37.74 L 83.42 37.74" />
</g>
<g fill="#4682B4" stroke="#0F5D8C">
  <circle cx="20.35" cy="58.97" r="0.5" />
</g>
<g stroke-width="0.4" stroke="#0F5D8C">
  <path d="M19.41,39.65 L 21.29 39.65" />
</g>
<g stroke-width="0.4" stroke="#0F5D8C">
  <path d="M19.41,58.44 L 21.29 58.44" />
</g>
<g stroke-width="0.4" stroke="#0F5D8C">
  <path d="M20.35,46.69 L 20.35 39.65" />
</g>
<g stroke-width="0.4" stroke="#0F5D8C">
  <path d="M20.35,51.39 L 20.35 58.44" />
</g>
<g fill="#4682B4" stroke="#0F5D8C" stroke-width="0.3">
  <path d="M 18.03 51.39 L 22.67 51.39 22.67 46.69 18.03 46.69 z" />
</g>
<g stroke-width="0.4" stroke="#B8EFFF">
  <path d="M19.41,49.54 L 21.29 49.54" />
</g>
<g fill="#4682B4" stroke="#0F5D8C">
  <circle cx="71.18" cy="58.97" r="0.5" />
  <circle cx="71.18" cy="62.6" r="0.5" />
  <circle cx="71.18" cy="23.46" r="0.5" />
  <circle cx="71.18" cy="14.15" r="0.5" />
</g>
<g stroke-width="0.4" stroke="#0F5D8C">
  <path d="M70.24,25.36 L 72.12 25.36" />
</g>
<g stroke-width="0.4" stroke="#0F5D8C">
  <path d="M70.24,58.46 L 72.12 58.46" />
</g>
<g stroke-width="0.4" stroke="#0F5D8C">
  <path d="M71.18,37.77 L 71.18 25.36" />
</g>
<g stroke-width="0.4" stroke="#0F5D8C">
  <path d="M71.18,46.05 L 71.18 58.46" />
</g>
<g fill="#4682B4" stroke="#0F5D8C" stroke-width="0.3">
  <path d="M 68.86 46.05 L 73.51 46.05 73.51 37.77 68.86 37.77 z" />
</g>
<g stroke-width="0.4" stroke="#B8EFFF">
  <path d="M70.24,41.61 L 72.12 41.61" />
</g>
<g fill="#4682B4" stroke="#0F5D8C">
  <circle cx="48.59" cy="70.69" r="0.5" />
  <circle cx="48.59" cy="63.81" r="0.5" />
</g>
<g stroke-width="0.4" stroke="#0F5D8C">
  <path d="M47.65,22.76 L 49.53 22.76" />
</g>
<g stroke-width="0.4" stroke="#0F5D8C">
  <path d="M47.65,63.67 L 49.53 63.67" />
</g>
<g stroke-width="0.4" stroke="#0F5D8C">
  <path d="M48.59,38.1 L 48.59 22.76" />
</g>
<g stroke-width="0.4" stroke="#0F5D8C">
  <path d="M48.59,48.33 L 48.59 63.67" />
</g>
<g fill="#4682B4" stroke="#0F5D8C" stroke-width="0.3">
  <path d="M 46.27 48.33 L 50.91 48.33 50.91 38.1 46.27 38.1 z" />
</g>
<g stroke-width="0.4" stroke="#B8EFFF">
  <path d="M47.65,42.93 L 49.53 42.93" />
</g>
<g stroke-width="0.4" stroke="#0F5D8C">
  <path d="M25.06,18.58 L 26.94 18.58" />
</g>
<g stroke-width="0.4" stroke="#0F5D8C">
  <path d="M25.06,67.58 L 26.94 67.58" />
</g>
<g stroke-width="0.4" stroke="#0F5D8C">
  <path d="M26,36.96 L 26 18.58" />
</g>
<g stroke-width="0.4" stroke="#0F5D8C">
  <path d="M26,49.21 L 26 67.58" />
</g>
<g fill="#4682B4" stroke="#0F5D8C" stroke-width="0.3">
  <path d="M 23.67 49.21 L 28.32 49.21 28.32 36.96 23.67 36.96 z" />
</g>
<g stroke-width="0.4" stroke="#B8EFFF">
  <path d="M25.06,47.93 L 26.94 47.93" />
</g>
<g fill="#4682B4" stroke="#0F5D8C">
  <circle cx="65.54" cy="58.65" r="0.5" />
  <circle cx="65.54" cy="57.45" r="0.5" />
  <circle cx="65.54" cy="57.45" r="0.5" />
  <circle cx="65.54" cy="57.74" r="0.5" />
  <circle cx="65.54" cy="57.74" r="0.5" />
  <circle cx="65.54" cy="17.74" r="0.5" />
</g>
<g stroke-width="0.4" stroke="#0F5D8C">
  <path d="M64.59,26.1 L 66.48 26.1" />
</g>
<g stroke-width="0.4" stroke="#0F5D8C">
  <path d="M64.59,56.99 L 66.48 56.99" />
</g>
<g stroke-width="0.4" stroke="#0F5D8C">
  <path d="M65.54,37.69 L 65.54 26.1" />
</g>
<g stroke-width="0.4" stroke="#0F5D8C">
  <path d="M65.54,45.41 L 65.54 56.99" />
</g>
<g fill="#4682B4" stroke="#0F5D8C" stroke-width="0.3">
  <path d="M 63.21 45.41 L 67.86 45.41 67.86 37.69 63.21 37.69 z" />
</g>
<g stroke-width="0.4" stroke="#B8EFFF">
  <path d="M64.59,41.57 L 66.48 41.57" />
</g>
<g stroke-width="0.4" stroke="#0F5D8C">
  <path d="M42,23.75 L 43.88 23.75" />
</g>
<g stroke-width="0.4" stroke="#0F5D8C">
  <path d="M42,64.87 L 43.88 64.87" />
</g>
<g stroke-width="0.4" stroke="#0F5D8C">
  <path d="M42.94,39.17 L 42.94 23.75" />
</g>
<g stroke-width="0.4" stroke="#0F5D8C">
  <path d="M42.94,49.45 L 42.94 64.87" />
</g>
<g fill="#4682B4" stroke="#0F5D8C" stroke-width="0.3">
  <path d="M 40.62 49.45 L 45.27 49.45 45.27 39.17 40.62 39.17 z" />
</g>
<g stroke-width="0.4" stroke="#B8EFFF">
  <path d="M42,43.31 L 43.88 43.31" />
</g>
<g stroke-width="0.4" stroke="#0F5D8C">
  <path d="M36.35,30.18 L 38.24 30.18" />
</g>
<g stroke-width="0.4" stroke="#0F5D8C">
  <path d="M36.35,62.94 L 38.24 62.94" />
</g>
<g stroke-width="0.4" stroke="#0F5D8C">
  <path d="M37.29,42.46 L 37.29 30.18" />
</g>
<g stroke-width="0.4" stroke="#0F5D8C">
  <path d="M37.29,50.65 L 37.29 62.94" />
</g>
<g fill="#4682B4" stroke="#0F5D8C" stroke-width="0.3">
  <path d="M 34.97 50.65 L 39.62 50.65 39.62 42.46 34.97 42.46 z" />
</g>
<g stroke-width="0.4" stroke="#B8EFFF">
  <path d="M36.35,47.34 L 38.24 47.34" />
</g>
<g fill="#4C404B" font-size="3.18" font-family="Source Sans Pro" stroke="none">
  <text x="26" y="86.65" text-anchor="middle">5</text>
  <text x="37.29" y="86.65" text-anchor="middle">7</text>
  <text x="31.65" y="86.65" text-anchor="middle">6</text>
  <text x="65.54" y="86.65" text-anchor="middle">12</text>
  <text x="48.59" y="86.65" text-anchor="middle">9</text>
  <text x="59.89" y="86.65" text-anchor="middle">11</text>
  <text x="42.94" y="86.65" text-anchor="middle">8</text>
  <text x="82.48" y="86.65" text-anchor="middle">15</text>
  <text x="20.35" y="86.65" text-anchor="middle">4</text>
  <text x="76.83" y="86.65" text-anchor="middle">14</text>
  <text x="93.78" y="86.65" text-anchor="middle">17</text>
  <text x="54.24" y="86.65" text-anchor="middle">10</text>
  <text x="88.13" y="86.65" text-anchor="middle">16</text>
  <text x="71.18" y="86.65" text-anchor="middle">13</text>
</g>
<g fill="#362A35" font-size="3.88" font-family="Source Sans Pro" stroke="none">
  <text x="57.06" y="94.6" text-anchor="middle">ed</text>
</g>
<g fill="#362A35" font-size="3.88" font-family="Source Sans Pro" stroke="none">
  <text x="9.47" y="43.3" text-anchor="middle" style="dominant-baseline:central" transform="rotate(-90, 9.47, 43.3)">lwage</text>
</g>
<g fill="#4C404B" font-size="3.18" font-family="Source Sans Pro" stroke="none">
  <text x="16.53" y="7.17" text-anchor="end" style="dominant-baseline:central">9</text>
  <text x="16.53" y="50.53" text-anchor="end" style="dominant-baseline:central">6</text>
  <text x="16.53" y="64.98" text-anchor="end" style="dominant-baseline:central">5</text>
  <text x="16.53" y="79.44" text-anchor="end" style="dominant-baseline:central">4</text>
  <text x="16.53" y="36.08" text-anchor="end" style="dominant-baseline:central">7</text>
  <text x="16.53" y="21.62" text-anchor="end" style="dominant-baseline:central">8</text>
</g>
</svg>
