<?xml version="1.0" encoding="UTF-8"?>
<svg xmlns="http://www.w3.org/2000/svg" xmlns:xlink="http://www.w3.org/1999/xlink" version="1.1" width="152.4mm" height="76.2mm" viewBox="0 0 152.4 76.2" style="stroke:black;fill:black" stroke-width="0.5">
<g fill="#F5F5F5" stroke="#F2F2F2">
  <path d="M 20.88 5 L 136.56 5 136.56 56.2 20.88 56.2 z" />
  <g stroke="#FFFFFF" stroke-width="0.3">
    <path d="M133.28,5 L 133.28 56.2" />
    <path d="M89.63,5 L 89.63 56.2" />
    <path d="M24.16,5 L 24.16 56.2" />
    <path d="M45.98,5 L 45.98 56.2" />
    <path d="M111.46,5 L 111.46 56.2" />
    <path d="M67.81,5 L 67.81 56.2" />
  </g>
  <g stroke="#FFFFFF" stroke-width="0.3">
    <path d="M20.88,42.68 L 136.56 42.68" />
    <path d="M20.88,54.75 L 136.56 54.75" />
    <path d="M20.88,30.6 L 136.56 30.6" />
    <path d="M20.88,18.53 L 136.56 18.53" />
    <path d="M20.88,6.45 L 136.56 6.45" />
  </g>
</g>
<g fill="none" stroke-width="0.4">
  <g stroke="#00C3AA" class="color_group_f&lt;sub&gt;2&lt;/sub&gt;">
    <path d="M24.16,6.45 L 24.59 6.57 25.03 6.93 25.46 7.53 25.9 8.36 26.34 9.41 26.77 10.67 27.21 12.13 27.65 13.77 28.08 15.59 28.52 17.55 28.96 19.65 29.39 21.85 29.83 24.14 30.27 26.5 30.7 28.89 31.14 31.31 31.58 33.71 32.01 36.09 32.45 38.41 32.89 40.65 33.32 42.8 33.76 44.82 34.2 46.69 34.63 48.41 35.07 49.95 35.5 51.3 35.94 52.44 36.38 53.36 36.81 54.05 37.25 54.51 37.69 54.73 38.12 54.71 38.56 54.45 39 53.95 39.43 53.22 39.87 52.26 40.31 51.09 40.74 49.71 41.18 48.14 41.62 46.39 42.05 44.49 42.49 42.44 42.93 40.28 43.36 38.03 43.8 35.69 44.24 33.31 44.67 30.9 45.11 28.49 45.54 26.1 45.98 23.75 46.42 21.47 46.85 19.29 47.29 17.21 47.73 15.27 48.16 13.49 48.6 11.87 49.04 10.44 49.47 9.21 49.91 8.2 50.35 7.41 50.78 6.85 51.22 6.53 51.66 6.45 52.09 6.61 52.53 7.01 52.97 7.65 53.4 8.52 53.84 9.6 54.27 10.9 54.71 12.39 55.15 14.07 55.58 15.91 56.02 17.9 56.46 20.01 56.89 22.23 57.33 24.53 57.77 26.9 58.2 29.3 58.64 31.71 59.08 34.12 59.51 36.48 59.95 38.79 60.39 41.02 60.82 43.14 61.26 45.14 61.7 47 62.13 48.68 62.57 50.19 63.01 51.5 63.44 52.61 63.88 53.49 64.31 54.15 64.75 54.57 65.19 54.75 65.62 54.69 66.06 54.39 66.5 53.85 66.93 53.07 67.37 52.08 67.81 50.87 68.24 49.46 68.68 47.85 69.12 46.08 69.55 44.15 69.99 42.09 70.43 39.91 70.86 37.64 71.3 35.3 71.74 32.91 72.17 30.5 72.61 28.08 73.05 25.7 73.48 23.36 73.92 21.1 74.35 18.93 74.79 16.88 75.23 14.96 75.66 13.2 76.1 11.62 76.54 10.22 76.97 9.03 77.41 8.05 77.85 7.3 78.28 6.78 78.72 6.5 79.16 6.46 79.59 6.66 80.03 7.11 80.47 7.78 80.9 8.68 81.34 9.81 81.78 11.14 82.21 12.66 82.65 14.37 83.08 16.23 83.52 18.24 83.96 20.38 84.39 22.61 84.83 24.93 85.27 27.3 85.7 29.7 86.14 32.12 86.58 34.52 87.01 36.88 87.45 39.17 87.89 41.39 88.32 43.49 88.76 45.46 89.2 47.29 89.63 48.95 90.07 50.43 90.51 51.71 90.94 52.77 91.38 53.62 91.82 54.23 92.25 54.61 92.69 54.75 93.12 54.65 93.56 54.31 94 53.73 94.43 52.92 94.87 51.89 95.31 50.64 95.74 49.2 96.18 47.57 96.62 45.77 97.05 43.81 97.49 41.73 97.93 39.53 98.36 37.25 98.8 34.9 99.24 32.5 99.67 30.09 100.11 27.68 100.55 25.3 100.98 22.98 101.42 20.73 101.86 18.57 102.29 16.54 102.73 14.65 103.16 12.92 103.6 11.37 104.04 10.01 104.47 8.85 104.91 7.91 105.35 7.2 105.78 6.72 106.22 6.48 106.66 6.48 107.09 6.72 107.53 7.2 107.97 7.92 108.4 8.86 108.84 10.02 109.28 11.38 109.71 12.94 110.15 14.67 110.59 16.56 111.02 18.59 111.46 20.75 111.89 23 112.33 25.32 112.77 27.7 113.2 30.11 113.64 32.52 114.08 34.92 114.51 37.27 114.95 39.55 115.39 41.75 115.82 43.83 116.26 45.78 116.7 47.58 117.13 49.21 117.57 50.66 118.01 51.9 118.44 52.93 118.88 53.74 119.32 54.32 119.75 54.65 120.19 54.75 120.63 54.61 121.06 54.23 121.5 53.61 121.93 52.76 122.37 51.69 122.81 50.41 123.24 48.94 123.68 47.28 124.12 45.45 124.55 43.47 124.99 41.37 125.43 39.15 125.86 36.86 126.3 34.5 126.74 32.1 127.17 29.68 127.61 27.28 128.05 24.91 128.48 22.59 128.92 20.36 129.36 18.22 129.79 16.22 130.23 14.35 130.66 12.65 131.1 11.12 131.54 9.8 131.97 8.68 132.41 7.77 132.85 7.1 133.28 6.66" />
  </g>
  <g stroke="#FF81AD" class="color_group_f&lt;sub&gt;1&lt;/sub&gt;">
    <path d="M24.16,30.6 L 24.59 28.19 25.03 25.8 25.46 23.46 25.9 21.2 26.34 19.02 26.77 16.96 27.21 15.04 27.65 13.28 28.08 11.68 28.52 10.28 28.96 9.08 29.39 8.09 29.83 7.33 30.27 6.8 30.7 6.51 31.14 6.46 31.58 6.65 32.01 7.08 32.45 7.75 32.89 8.64 33.32 9.75 33.76 11.07 34.2 12.59 34.63 14.29 35.07 16.15 35.5 18.15 35.94 20.28 36.38 22.51 36.81 24.82 37.25 27.19 37.69 29.6 38.12 32.01 38.56 34.41 39 36.77 39.43 39.07 39.87 41.29 40.31 43.4 40.74 45.38 41.18 47.21 41.62 48.88 42.05 50.37 42.49 51.65 42.93 52.73 43.36 53.59 43.8 54.21 44.24 54.6 44.67 54.75 45.11 54.66 45.54 54.33 45.98 53.76 46.42 52.96 46.85 51.94 47.29 50.7 47.73 49.27 48.16 47.64 48.6 45.85 49.04 43.9 49.47 41.82 49.91 39.63 50.35 37.35 50.78 35 51.22 32.61 51.66 30.2 52.09 27.79 52.53 25.41 52.97 23.08 53.4 20.82 53.84 18.67 54.27 16.63 54.71 14.73 55.15 13 55.58 11.43 56.02 10.06 56.46 8.9 56.89 7.95 57.33 7.22 57.77 6.73 58.2 6.48 58.64 6.47 59.08 6.71 59.51 7.18 59.95 7.88 60.39 8.81 60.82 9.96 61.26 11.32 61.7 12.86 62.13 14.59 62.57 16.47 63.01 18.5 63.44 20.65 63.88 22.89 64.31 25.22 64.75 27.6 65.19 30 65.62 32.42 66.06 34.81 66.5 37.17 66.93 39.45 67.37 41.65 67.81 43.74 68.24 45.7 68.68 47.51 69.12 49.14 69.55 50.6 69.99 51.85 70.43 52.89 70.86 53.71 71.3 54.29 71.74 54.64 72.17 54.75 72.61 54.62 73.05 54.25 73.48 53.64 73.92 52.81 74.35 51.75 74.79 50.48 75.23 49.01 75.66 47.35 76.1 45.53 76.54 43.56 76.97 41.46 77.41 39.25 77.85 36.96 78.28 34.6 78.72 32.2 79.16 29.79 79.59 27.38 80.03 25.01 80.47 22.69 80.9 20.45 81.34 18.32 81.78 16.3 82.21 14.43 82.65 12.72 83.08 11.19 83.52 9.85 83.96 8.72 84.39 7.81 84.83 7.13 85.27 6.68 85.7 6.47 86.14 6.5 86.58 6.77 87.01 7.28 87.45 8.02 87.89 8.99 88.32 10.17 88.76 11.56 89.2 13.14 89.63 14.9 90.07 16.81 90.51 18.85 90.94 21.02 91.38 23.28 91.82 25.62 92.25 28 92.69 30.41 93.12 32.82 93.56 35.21 94 37.56 94.43 39.83 94.87 42.01 95.31 44.08 95.74 46.01 96.18 47.79 96.62 49.4 97.05 50.82 97.49 52.04 97.93 53.04 98.36 53.82 98.8 54.37 99.24 54.68 99.67 54.75 100.11 54.58 100.55 54.17 100.98 53.52 101.42 52.64 101.86 51.55 102.29 50.24 102.73 48.74 103.16 47.06 103.6 45.21 104.04 43.22 104.47 41.1 104.91 38.87 105.35 36.57 105.78 34.2 106.22 31.8 106.66 29.38 107.09 26.98 107.53 24.62 107.97 22.31 108.4 20.09 108.84 17.97 109.28 15.98 109.71 14.13 110.15 12.45 110.59 10.95 111.02 9.65 111.46 8.55 111.89 7.68 112.33 7.03 112.77 6.62 113.2 6.45 113.64 6.53 114.08 6.84 114.51 7.39 114.95 8.17 115.39 9.17 115.82 10.39 116.26 11.82 116.7 13.43 117.13 15.21 117.57 17.14 118.01 19.21 118.44 21.39 118.88 23.67 119.32 26.01 119.75 28.4 120.19 30.82 120.63 33.23 121.06 35.61 121.5 37.94 121.93 40.2 122.37 42.37 122.81 44.42 123.24 46.32 123.68 48.08 124.12 49.65 124.55 51.04 124.99 52.22 125.43 53.19 125.86 53.93 126.3 54.44 126.74 54.71 127.17 54.74 127.61 54.53 128.05 54.07 128.48 53.39 128.92 52.47 129.36 51.34 129.79 50 130.23 48.47 130.66 46.76 131.1 44.89 131.54 42.87 131.97 40.73 132.41 38.49 132.85 36.17 133.28 33.8" />
  </g>
</g>
<g font-size="3.18" font-family="Source Sans Pro">
  <a xlink:href="#"><g id="color_key_f&lt;sub&gt;1&lt;/sub&gt;" onclick="js_chunk_1a2e44db0ce0fd81(evt)">
    <g fill="#FF81AD" stroke="#D65886" stroke-width="0.3">
      <path d="M 138.56 29.48 L 144.16 29.48 144.16 35.08 138.56 35.08 z" />
    </g>
    <g fill="#4C404B" stroke="none">
      <text x="145.16" y="32.28" style="dominant-baseline:central">f<tspan baseline-shift="-1.722547743055555358" font-size="83.333333%">1</tspan></text>
    </g>
  </g></a>
  <a xlink:href="#"><g id="color_key_f&lt;sub&gt;2&lt;/sub&gt;" onclick="js_chunk_e8426b392908b22a(evt)">
    <g fill="#00C3AA" stroke="#009A82" stroke-width="0.3">
      <path d="M 138.56 36.08 L 144.16 36.08 144.16 41.68 138.56 41.68 z" />
    </g>
    <g fill="#4C404B" stroke="none">
      <text x="145.16" y="38.88" style="dominant-baseline:central">f<tspan baseline-shift="-1.722547743055555358" font-size="83.333333%">2</tspan></text>
    </g>
  </g></a>
</g>
<g fill="#362A35" font-size="3.88" font-family="Source Sans Pro" stroke="none">
  <text x="141.98" y="27.48" text-anchor="middle">f</text>
</g>
<g fill="#4C404B" font-size="3.18" font-family="Source Sans Pro" stroke="none">
  <text x="133.28" y="61.25" text-anchor="middle">25</text>
  <text x="89.63" y="61.25" text-anchor="middle">15</text>
  <text x="24.16" y="61.25" text-anchor="middle">0</text>
  <text x="45.98" y="61.25" text-anchor="middle">5</text>
  <text x="111.46" y="61.25" text-anchor="middle">20</text>
  <text x="67.81" y="61.25" text-anchor="middle">10</text>
</g>
<g fill="#362A35" font-size="3.88" font-family="Source Sans Pro" stroke="none">
  <text x="78.72" y="69.2" text-anchor="middle">x</text>
</g>
<g fill="#362A35" font-size="3.88" font-family="Source Sans Pro" stroke="none">
  <text x="9.47" y="30.6" text-anchor="middle" style="dominant-baseline:central" transform="rotate(-90, 9.47, 30.6)">f(x)</text>
</g>
<g fill="#4C404B" font-size="3.18" font-family="Source Sans Pro" stroke="none">
  <text x="19.88" y="42.68" text-anchor="end" style="dominant-baseline:central">-0.5</text>
  <text x="19.88" y="54.75" text-anchor="end" style="dominant-baseline:central">-1</text>
  <text x="19.88" y="30.6" text-anchor="end" style="dominant-baseline:central">0</text>
  <text x="19.88" y="18.53" text-anchor="end" style="dominant-baseline:central">0.5</text>
  <text x="19.88" y="6.45" text-anchor="end" style="dominant-baseline:central">1</text>
</g>
<script type="application/ecmascript"><![CDATA[
function js_chunk_1a2e44db0ce0fd81(evt) {
  geoms = document.getElementsByClassName('color_group_f<sub>1</sub>');
                        entry = document.getElementById('color_key_f<sub>1</sub>');
                        state = geoms[0].getAttribute('visibility');
                        if (!state || state == 'visible') {
                            for (i = 0; i < geoms.length; ++i) {
                                geoms[i].setAttribute('visibility', 'hidden');
                            }
                            entry.setAttribute('opacity', 0.5);
                        } else {
                            for (i = 0; i < geoms.length; ++i) {
                                geoms[i].setAttribute('visibility', 'visible');
                            }
                            entry.setAttribute('opacity', 1.0);
                        }
}

function js_chunk_e8426b392908b22a(evt) {
  geoms = document.getElementsByClassName('color_group_f<sub>2</sub>');
                        entry = document.getElementById('color_key_f<sub>2</sub>');
                        state = geoms[0].getAttribute('visibility');
                        if (!state || state == 'visible') {
                            for (i = 0; i < geoms.length; ++i) {
                                geoms[i].setAttribute('visibility', 'hidden');
                            }
                            entry.setAttribute('opacity', 0.5);
                        } else {
                            for (i = 0; i < geoms.length; ++i) {
                                geoms[i].setAttribute('visibility', 'visible');
                            }
                            entry.setAttribute('opacity', 1.0);
                        }
}

]]></script></svg>
