<?xml version="1.0" encoding="UTF-8"?>
<svg xmlns="http://www.w3.org/2000/svg" xmlns:xlink="http://www.w3.org/1999/xlink" version="1.1" width="152.4mm" height="101.6mm" viewBox="0 0 152.4 101.6" style="stroke:black;fill:black" stroke-width="0.5">
<g fill="#F5F5F5" stroke="#F2F2F2">
  <path d="M 19.89 5 L 127.27 5 127.27 81.6 19.89 81.6 z" />
  <g stroke="#FFFFFF" stroke-width="0.3">
    <path d="M98.91,5 L 98.91 81.6" />
    <path d="M22.93,5 L 22.93 81.6" />
    <path d="M48.26,5 L 48.26 81.6" />
    <path d="M73.58,5 L 73.58 81.6" />
    <path d="M124.23,5 L 124.23 81.6" />
  </g>
  <g stroke="#FFFFFF" stroke-width="0.3">
    <path d="M19.89,50.53 L 127.27 50.53" />
    <path d="M19.89,36.08 L 127.27 36.08" />
    <path d="M19.89,21.62 L 127.27 21.62" />
    <path d="M19.89,79.44 L 127.27 79.44" />
    <path d="M19.89,64.98 L 127.27 64.98" />
    <path d="M19.89,7.17 L 127.27 7.17" />
  </g>
</g>
<g stroke="none" stroke-width="0.3">
  <g fill="#00BDFF" stroke="#0094D4" class="color_group_virginica">
    <circle cx="81.18" cy="41.86" r="0.5" />
    <circle cx="68.52" cy="59.2" r="0.5" />
    <circle cx="101.44" cy="50.53" r="0.5" />
    <circle cx="81.18" cy="53.42" r="0.5" />
    <circle cx="86.24" cy="50.53" r="0.5" />
    <circle cx="114.1" cy="50.53" r="0.5" />
    <circle cx="45.73" cy="64.98" r="0.5" />
    <circle cx="106.5" cy="53.42" r="0.5" />
    <circle cx="91.31" cy="64.98" r="0.5" />
    <circle cx="103.97" cy="33.18" r="0.5" />
    <circle cx="86.24" cy="44.75" r="0.5" />
    <circle cx="83.71" cy="59.2" r="0.5" />
    <circle cx="93.84" cy="50.53" r="0.5" />
    <circle cx="65.99" cy="64.98" r="0.5" />
    <circle cx="68.52" cy="56.31" r="0.5" />
    <circle cx="83.71" cy="44.75" r="0.5" />
    <circle cx="86.24" cy="50.53" r="0.5" />
    <circle cx="116.63" cy="27.4" r="0.5" />
    <circle cx="116.63" cy="62.09" r="0.5" />
    <circle cx="73.58" cy="73.65" r="0.5" />
    <circle cx="96.37" cy="44.75" r="0.5" />
    <circle cx="63.45" cy="56.31" r="0.5" />
    <circle cx="116.63" cy="56.31" r="0.5" />
    <circle cx="81.18" cy="59.2" r="0.5" />
    <circle cx="91.31" cy="41.86" r="0.5" />
    <circle cx="103.97" cy="44.75" r="0.5" />
    <circle cx="78.65" cy="56.31" r="0.5" />
    <circle cx="76.12" cy="50.53" r="0.5" />
    <circle cx="83.71" cy="56.31" r="0.5" />
    <circle cx="103.97" cy="50.53" r="0.5" />
    <circle cx="109.04" cy="56.31" r="0.5" />
    <circle cx="121.7" cy="27.4" r="0.5" />
    <circle cx="83.71" cy="56.31" r="0.5" />
    <circle cx="81.18" cy="56.31" r="0.5" />
    <circle cx="76.12" cy="62.09" r="0.5" />
    <circle cx="116.63" cy="50.53" r="0.5" />
    <circle cx="81.18" cy="38.97" r="0.5" />
    <circle cx="83.71" cy="47.64" r="0.5" />
    <circle cx="73.58" cy="50.53" r="0.5" />
    <circle cx="96.37" cy="47.64" r="0.5" />
    <circle cx="91.31" cy="47.64" r="0.5" />
    <circle cx="96.37" cy="47.64" r="0.5" />
    <circle cx="68.52" cy="59.2" r="0.5" />
    <circle cx="93.84" cy="44.75" r="0.5" />
    <circle cx="91.31" cy="41.86" r="0.5" />
    <circle cx="91.31" cy="50.53" r="0.5" />
    <circle cx="81.18" cy="64.98" r="0.5" />
    <circle cx="86.24" cy="50.53" r="0.5" />
    <circle cx="78.65" cy="38.97" r="0.5" />
    <circle cx="71.05" cy="50.53" r="0.5" />
  </g>
  <g fill="#96B752" stroke="#6D8E2C" class="color_group_versicolor">
    <circle cx="98.91" cy="44.75" r="0.5" />
    <circle cx="83.71" cy="44.75" r="0.5" />
    <circle cx="96.37" cy="47.64" r="0.5" />
    <circle cx="60.92" cy="70.76" r="0.5" />
    <circle cx="86.24" cy="56.31" r="0.5" />
    <circle cx="65.99" cy="56.31" r="0.5" />
    <circle cx="81.18" cy="41.86" r="0.5" />
    <circle cx="45.73" cy="67.87" r="0.5" />
    <circle cx="88.78" cy="53.42" r="0.5" />
    <circle cx="53.32" cy="59.2" r="0.5" />
    <circle cx="48.26" cy="79.44" r="0.5" />
    <circle cx="71.05" cy="50.53" r="0.5" />
    <circle cx="73.58" cy="73.65" r="0.5" />
    <circle cx="76.12" cy="53.42" r="0.5" />
    <circle cx="63.45" cy="53.42" r="0.5" />
    <circle cx="91.31" cy="47.64" r="0.5" />
    <circle cx="63.45" cy="50.53" r="0.5" />
    <circle cx="68.52" cy="59.2" r="0.5" />
    <circle cx="78.65" cy="73.65" r="0.5" />
    <circle cx="63.45" cy="64.98" r="0.5" />
    <circle cx="71.05" cy="44.75" r="0.5" />
    <circle cx="76.12" cy="56.31" r="0.5" />
    <circle cx="81.18" cy="64.98" r="0.5" />
    <circle cx="76.12" cy="56.31" r="0.5" />
    <circle cx="83.71" cy="53.42" r="0.5" />
    <circle cx="88.78" cy="50.53" r="0.5" />
    <circle cx="93.84" cy="56.31" r="0.5" />
    <circle cx="91.31" cy="50.53" r="0.5" />
    <circle cx="73.58" cy="53.42" r="0.5" />
    <circle cx="65.99" cy="62.09" r="0.5" />
    <circle cx="60.92" cy="67.87" r="0.5" />
    <circle cx="60.92" cy="67.87" r="0.5" />
    <circle cx="68.52" cy="59.2" r="0.5" />
    <circle cx="73.58" cy="59.2" r="0.5" />
    <circle cx="58.39" cy="50.53" r="0.5" />
    <circle cx="73.58" cy="38.97" r="0.5" />
    <circle cx="91.31" cy="47.64" r="0.5" />
    <circle cx="81.18" cy="70.76" r="0.5" />
    <circle cx="63.45" cy="50.53" r="0.5" />
    <circle cx="60.92" cy="64.98" r="0.5" />
    <circle cx="60.92" cy="62.09" r="0.5" />
    <circle cx="76.12" cy="50.53" r="0.5" />
    <circle cx="68.52" cy="62.09" r="0.5" />
    <circle cx="48.26" cy="70.76" r="0.5" />
    <circle cx="63.45" cy="59.2" r="0.5" />
    <circle cx="65.99" cy="50.53" r="0.5" />
    <circle cx="65.99" cy="53.42" r="0.5" />
    <circle cx="78.65" cy="53.42" r="0.5" />
    <circle cx="50.79" cy="64.98" r="0.5" />
    <circle cx="65.99" cy="56.31" r="0.5" />
  </g>
  <g fill="#FF81AD" stroke="#D65886" class="color_group_setosa">
    <circle cx="50.79" cy="36.08" r="0.5" />
    <circle cx="45.73" cy="50.53" r="0.5" />
    <circle cx="40.66" cy="44.75" r="0.5" />
    <circle cx="38.13" cy="47.64" r="0.5" />
    <circle cx="48.26" cy="33.18" r="0.5" />
    <circle cx="58.39" cy="24.51" r="0.5" />
    <circle cx="38.13" cy="38.97" r="0.5" />
    <circle cx="48.26" cy="38.97" r="0.5" />
    <circle cx="33.06" cy="53.42" r="0.5" />
    <circle cx="45.73" cy="47.64" r="0.5" />
    <circle cx="58.39" cy="30.29" r="0.5" />
    <circle cx="43.19" cy="38.97" r="0.5" />
    <circle cx="43.19" cy="50.53" r="0.5" />
    <circle cx="30.53" cy="50.53" r="0.5" />
    <circle cx="68.52" cy="21.62" r="0.5" />
    <circle cx="65.99" cy="10.06" r="0.5" />
    <circle cx="58.39" cy="24.51" r="0.5" />
    <circle cx="50.79" cy="36.08" r="0.5" />
    <circle cx="65.99" cy="27.4" r="0.5" />
    <circle cx="50.79" cy="27.4" r="0.5" />
    <circle cx="58.39" cy="38.97" r="0.5" />
    <circle cx="50.79" cy="30.29" r="0.5" />
    <circle cx="38.13" cy="33.18" r="0.5" />
    <circle cx="50.79" cy="41.86" r="0.5" />
    <circle cx="43.19" cy="38.97" r="0.5" />
    <circle cx="48.26" cy="50.53" r="0.5" />
    <circle cx="48.26" cy="38.97" r="0.5" />
    <circle cx="53.32" cy="36.08" r="0.5" />
    <circle cx="53.32" cy="38.97" r="0.5" />
    <circle cx="40.66" cy="44.75" r="0.5" />
    <circle cx="43.19" cy="47.64" r="0.5" />
    <circle cx="58.39" cy="38.97" r="0.5" />
    <circle cx="53.32" cy="18.73" r="0.5" />
    <circle cx="60.92" cy="15.84" r="0.5" />
    <circle cx="45.73" cy="47.64" r="0.5" />
    <circle cx="48.26" cy="44.75" r="0.5" />
    <circle cx="60.92" cy="36.08" r="0.5" />
    <circle cx="45.73" cy="33.18" r="0.5" />
    <circle cx="33.06" cy="50.53" r="0.5" />
    <circle cx="50.79" cy="38.97" r="0.5" />
    <circle cx="48.26" cy="36.08" r="0.5" />
    <circle cx="35.6" cy="70.76" r="0.5" />
    <circle cx="33.06" cy="44.75" r="0.5" />
    <circle cx="48.26" cy="36.08" r="0.5" />
    <circle cx="50.79" cy="27.4" r="0.5" />
    <circle cx="43.19" cy="50.53" r="0.5" />
    <circle cx="50.79" cy="27.4" r="0.5" />
    <circle cx="38.13" cy="44.75" r="0.5" />
    <circle cx="55.86" cy="30.29" r="0.5" />
    <circle cx="48.26" cy="41.86" r="0.5" />
  </g>
</g>
<g font-size="3.18" font-family="Source Sans Pro">
  <a xlink:href="#"><g id="color_key_versicolor" onclick="js_chunk_a836ef8d2f25e0bf(evt)">
    <g fill="#96B752" stroke="#6D8E2C" stroke-width="0.3">
      <path d="M 129.27 46.25 L 133.32 46.25 133.32 50.3 129.27 50.3 z" />
    </g>
    <g fill="#4C404B" stroke="none">
      <text x="134.32" y="48.28" style="dominant-baseline:central">versicolor</text>
    </g>
  </g></a>
  <a xlink:href="#"><g id="color_key_setosa" onclick="js_chunk_9099d77dffebca95(evt)">
    <g fill="#FF81AD" stroke="#D65886" stroke-width="0.3">
      <path d="M 129.27 41.2 L 133.32 41.2 133.32 45.25 129.27 45.25 z" />
    </g>
    <g fill="#4C404B" stroke="none">
      <text x="134.32" y="43.23" style="dominant-baseline:central">setosa</text>
    </g>
  </g></a>
  <a xlink:href="#"><g id="color_key_virginica" onclick="js_chunk_95e24e0717455b0(evt)">
    <g fill="#00BDFF" stroke="#0094D4" stroke-width="0.3">
      <path d="M 129.27 51.3 L 133.32 51.3 133.32 55.35 129.27 55.35 z" />
    </g>
    <g fill="#4C404B" stroke="none">
      <text x="134.32" y="53.32" style="dominant-baseline:central">virginica</text>
    </g>
  </g></a>
</g>
<g fill="#362A35" font-size="3.88" font-family="Source Sans Pro" stroke="none">
  <text x="137.34" y="39.2" text-anchor="middle">Species</text>
</g>
<g fill="#4C404B" font-size="3.18" font-family="Source Sans Pro" stroke="none">
  <text x="98.91" y="86.65" text-anchor="middle">7</text>
  <text x="22.93" y="86.65" text-anchor="middle">4</text>
  <text x="48.26" y="86.65" text-anchor="middle">5</text>
  <text x="73.58" y="86.65" text-anchor="middle">6</text>
  <text x="124.23" y="86.65" text-anchor="middle">8</text>
</g>
<g fill="#362A35" font-size="3.88" font-family="Source Sans Pro" stroke="none">
  <text x="73.58" y="94.6" text-anchor="middle">Sepal.Length</text>
</g>
<g fill="#362A35" font-size="3.88" font-family="Source Sans Pro" stroke="none">
  <text x="9.47" y="43.3" text-anchor="middle" style="dominant-baseline:central" transform="rotate(-90, 9.47, 43.3)">Sepal.Width</text>
</g>
<g fill="#4C404B" font-size="3.18" font-family="Source Sans Pro" stroke="none">
  <text x="18.89" y="50.53" text-anchor="end" style="dominant-baseline:central">3</text>
  <text x="18.89" y="36.08" text-anchor="end" style="dominant-baseline:central">3.5</text>
  <text x="18.89" y="21.62" text-anchor="end" style="dominant-baseline:central">4</text>
  <text x="18.89" y="79.44" text-anchor="end" style="dominant-baseline:central">2</text>
  <text x="18.89" y="64.98" text-anchor="end" style="dominant-baseline:central">2.5</text>
  <text x="18.89" y="7.17" text-anchor="end" style="dominant-baseline:central">4.5</text>
</g>
<script type="application/ecmascript"><![CDATA[
function js_chunk_a836ef8d2f25e0bf(evt) {
  geoms = document.getElementsByClassName('color_group_versicolor');
                        entry = document.getElementById('color_key_versicolor');
                        state = geoms[0].getAttribute('visibility');
                        if (!state || state == 'visible') {
                            for (i = 0; i < geoms.length; ++i) {
                                geoms[i].setAttribute('visibility', 'hidden');
                            }
                            entry.setAttribute('opacity', 0.5);
                        } else {
                            for (i = 0; i < geoms.length; ++i) {
                                geoms[i].setAttribute('visibility', 'visible');
                            }
                            entry.setAttribute('opacity', 1.0);
                        }
}

function js_chunk_95e24e0717455b0(evt) {
  geoms = document.getElementsByClassName('color_group_virginica');
                        entry = document.getElementById('color_key_virginica');
                        state = geoms[0].getAttribute('visibility');
                        if (!state || state == 'visible') {
                            for (i = 0; i < geoms.length; ++i) {
                                geoms[i].setAttribute('visibility', 'hidden');
                            }
                            entry.setAttribute('opacity', 0.5);
                        } else {
                            for (i = 0; i < geoms.length; ++i) {
                                geoms[i].setAttribute('visibility', 'visible');
                            }
                            entry.setAttribute('opacity', 1.0);
                        }
}

function js_chunk_9099d77dffebca95(evt) {
  geoms = document.getElementsByClassName('color_group_setosa');
                        entry = document.getElementById('color_key_setosa');
                        state = geoms[0].getAttribute('visibility');
                        if (!state || state == 'visible') {
                            for (i = 0; i < geoms.length; ++i) {
                                geoms[i].setAttribute('visibility', 'hidden');
                            }
                            entry.setAttribute('opacity', 0.5);
                        } else {
                            for (i = 0; i < geoms.length; ++i) {
                                geoms[i].setAttribute('visibility', 'visible');
                            }
                            entry.setAttribute('opacity', 1.0);
                        }
}

]]></script></svg>
