<?xml version="1.0" encoding="UTF-8"?>
<svg xmlns="http://www.w3.org/2000/svg" xmlns:xlink="http://www.w3.org/1999/xlink" version="1.1" width="152.4mm" height="152.4mm" viewBox="0 0 152.4 152.4" style="stroke:black;fill:black" stroke-width="0.5">
<g fill="#F5F5F5" stroke="#F2F2F2">
  <path d="M 21.95 5 L 147.4 5 147.4 131.86 21.95 131.86 z" />
  <g stroke="#FFFFFF" stroke-width="0.3">
    <path d="M55.09,5 L 55.09 131.86" />
    <path d="M143.85,5 L 143.85 131.86" />
    <path d="M84.67,5 L 84.67 131.86" />
    <path d="M114.26,5 L 114.26 131.86" />
    <path d="M25.5,5 L 25.5 131.86" />
  </g>
  <g stroke="#FFFFFF" stroke-width="0.3">
    <path d="M21.95,32.53 L 147.4 32.53" />
    <path d="M21.95,128.27 L 147.4 128.27" />
    <path d="M21.95,104.33 L 147.4 104.33" />
    <path d="M21.95,8.59 L 147.4 8.59" />
    <path d="M21.95,56.46 L 147.4 56.46" />
    <path d="M21.95,80.4 L 147.4 80.4" />
  </g>
</g>
<g stroke="none" stroke-width="0.3">
  <g fill="#4682B4" class="color_group_RGB(0.27450980392156865,0.5098039215686274,0.7058823529411765)" stroke="#0F5D8C">
    <circle cx="92.51" cy="64.88" r="0.5" />
    <circle cx="79.96" cy="75.84" r="0.5" />
    <circle cx="86.6" cy="82.59" r="0.5" />
    <circle cx="124.14" cy="41.47" r="0.5" />
    <circle cx="107.76" cy="54.61" r="0.5" />
    <circle cx="106" cy="55.01" r="0.5" />
    <circle cx="102" cy="56.65" r="0.5" />
    <circle cx="84.93" cy="86.61" r="0.5" />
    <circle cx="93.88" cy="62.12" r="0.5" />
    <circle cx="79.18" cy="85.03" r="0.5" />
    <circle cx="69.94" cy="89.92" r="0.5" />
    <circle cx="84.14" cy="86.24" r="0.5" />
    <circle cx="84.67" cy="84.72" r="0.5" />
    <circle cx="50.63" cy="124.77" r="0.5" />
    <circle cx="66.6" cy="104.33" r="0.5" />
    <circle cx="92.72" cy="79.6" r="0.5" />
    <circle cx="89.13" cy="78.24" r="0.5" />
    <circle cx="88.08" cy="85.2" r="0.5" />
    <circle cx="135.06" cy="16.66" r="0.5" />
    <circle cx="60.44" cy="116.85" r="0.5" />
    <circle cx="118.29" cy="41.57" r="0.5" />
    <circle cx="124.87" cy="36.92" r="0.5" />
    <circle cx="83.12" cy="91.31" r="0.5" />
    <circle cx="99.47" cy="55.01" r="0.5" />
    <circle cx="92.35" cy="70.62" r="0.5" />
    <circle cx="74.33" cy="87.6" r="0.5" />
    <circle cx="86.88" cy="74.58" r="0.5" />
    <circle cx="124.96" cy="36.53" r="0.5" />
    <circle cx="118.94" cy="41.9" r="0.5" />
    <circle cx="113.22" cy="44.21" r="0.5" />
    <circle cx="82.83" cy="78.24" r="0.5" />
    <circle cx="111.19" cy="29.64" r="0.5" />
    <circle cx="141.23" cy="14.41" r="0.5" />
    <circle cx="92.72" cy="90.18" r="0.5" />
    <circle cx="96.99" cy="50.41" r="0.5" />
    <circle cx="107.52" cy="62.49" r="0.5" />
    <circle cx="93.66" cy="74.88" r="0.5" />
    <circle cx="71.05" cy="104.33" r="0.5" />
    <circle cx="60.44" cy="113.86" r="0.5" />
    <circle cx="55.09" cy="118.74" r="0.5" />
    <circle cx="86.84" cy="78.08" r="0.5" />
    <circle cx="120.15" cy="39.94" r="0.5" />
    <circle cx="90.56" cy="78.41" r="0.5" />
    <circle cx="110.48" cy="50.64" r="0.5" />
    <circle cx="114.26" cy="51.77" r="0.5" />
    <circle cx="110.08" cy="41.06" r="0.5" />
    <circle cx="99.81" cy="50.38" r="0.5" />
    <circle cx="80.83" cy="95.23" r="0.5" />
    <circle cx="110.98" cy="58.65" r="0.5" />
    <circle cx="92.9" cy="72.68" r="0.5" />
    <circle cx="94.03" cy="66.2" r="0.5" />
    <circle cx="76.5" cy="97.66" r="0.5" />
    <circle cx="68.03" cy="102.44" r="0.5" />
    <circle cx="71.16" cy="92.91" r="0.5" />
    <circle cx="65.17" cy="115.86" r="0.5" />
    <circle cx="118.45" cy="50.35" r="0.5" />
    <circle cx="91.73" cy="70.87" r="0.5" />
    <circle cx="117.28" cy="51.01" r="0.5" />
    <circle cx="84" cy="94.4" r="0.5" />
    <circle cx="87.77" cy="79.03" r="0.5" />
    <circle cx="70.13" cy="94.81" r="0.5" />
    <circle cx="93.95" cy="63.58" r="0.5" />
  </g>
</g>
<g fill="#4C404B" font-size="3.18" font-family="PT Sans Caption" stroke="none">
  <text x="55.09" y="137.84" text-anchor="middle">10<tspan baseline-shift="1.722548" font-size="83.333333%">-2</tspan></text>
  <text x="143.85" y="137.84" text-anchor="middle">10<tspan baseline-shift="1.722548" font-size="83.333333%">4</tspan></text>
  <text x="84.67" y="137.84" text-anchor="middle">10<tspan baseline-shift="1.722548" font-size="83.333333%">0</tspan></text>
  <text x="114.26" y="137.84" text-anchor="middle">10<tspan baseline-shift="1.722548" font-size="83.333333%">2</tspan></text>
  <text x="25.5" y="137.84" text-anchor="middle">10<tspan baseline-shift="1.722548" font-size="83.333333%">-4</tspan></text>
</g>
<g fill="#362A35" font-size="3.88" font-family="PT Sans" stroke="none">
  <text x="84.67" y="145.4" text-anchor="middle">body</text>
</g>
<g fill="#362A35" font-size="3.88" font-family="PT Sans" stroke="none">
  <text x="9.28" y="68.43" text-anchor="middle" style="dominant-baseline:central" transform="rotate(-90, 9.28, 68.43)">brain</text>
</g>
<g fill="#4C404B" font-size="3.18" font-family="PT Sans Caption" stroke="none">
  <text x="20.95" y="32.53" text-anchor="end" style="dominant-baseline:central">10<tspan baseline-shift="1.722548" font-size="83.333333%">3</tspan></text>
  <text x="20.95" y="128.27" text-anchor="end" style="dominant-baseline:central">10<tspan baseline-shift="1.722548" font-size="83.333333%">-1</tspan></text>
  <text x="20.95" y="104.33" text-anchor="end" style="dominant-baseline:central">10<tspan baseline-shift="1.722548" font-size="83.333333%">0</tspan></text>
  <text x="20.95" y="8.59" text-anchor="end" style="dominant-baseline:central">10<tspan baseline-shift="1.722548" font-size="83.333333%">4</tspan></text>
  <text x="20.95" y="56.46" text-anchor="end" style="dominant-baseline:central">10<tspan baseline-shift="1.722548" font-size="83.333333%">2</tspan></text>
  <text x="20.95" y="80.4" text-anchor="end" style="dominant-baseline:central">10<tspan baseline-shift="1.722548" font-size="83.333333%">1</tspan></text>
</g>
</svg>
