<?xml version="1.0" encoding="UTF-8"?>
<svg xmlns="http://www.w3.org/2000/svg" xmlns:xlink="http://www.w3.org/1999/xlink" version="1.1" width="152.4mm" height="101.6mm" viewBox="0 0 152.4 101.6" style="stroke:black;fill:black" stroke-width="0.5">
<g fill="#F5F5F5" stroke="#F2F2F2">
  <path d="M 19.89 5 L 147.4 5 147.4 81.6 19.89 81.6 z" />
  <g stroke="#FFFFFF" stroke-width="0.3">
    <path d="M113.72,5 L 113.72 81.6" />
    <path d="M23.5,5 L 23.5 81.6" />
    <path d="M53.57,5 L 53.57 81.6" />
    <path d="M83.65,5 L 83.65 81.6" />
    <path d="M143.79,5 L 143.79 81.6" />
  </g>
  <g stroke="#FFFFFF" stroke-width="0.3">
    <path d="M19.89,50.53 L 147.4 50.53" />
    <path d="M19.89,36.08 L 147.4 36.08" />
    <path d="M19.89,21.62 L 147.4 21.62" />
    <path d="M19.89,79.44 L 147.4 79.44" />
    <path d="M19.89,64.98 L 147.4 64.98" />
    <path d="M19.89,7.17 L 147.4 7.17" />
  </g>
</g>
<g stroke="none" stroke-width="0.3">
  <g fill="#4682B4" stroke="#0F5D8C" class="color_group_RGB(0.27450980392156865,0.5098039215686274,0.7058823529411765)">
    <circle cx="56.58" cy="36.08" r="0.5" />
    <circle cx="50.57" cy="50.53" r="0.5" />
    <circle cx="44.55" cy="44.75" r="0.5" />
    <circle cx="41.55" cy="47.64" r="0.5" />
    <circle cx="53.57" cy="33.18" r="0.5" />
    <circle cx="65.6" cy="24.51" r="0.5" />
    <circle cx="41.55" cy="38.97" r="0.5" />
    <circle cx="53.57" cy="38.97" r="0.5" />
    <circle cx="35.53" cy="53.42" r="0.5" />
    <circle cx="50.57" cy="47.64" r="0.5" />
    <circle cx="65.6" cy="30.29" r="0.5" />
    <circle cx="47.56" cy="38.97" r="0.5" />
    <circle cx="47.56" cy="50.53" r="0.5" />
    <circle cx="32.52" cy="50.53" r="0.5" />
    <circle cx="77.63" cy="21.62" r="0.5" />
    <circle cx="74.63" cy="10.06" r="0.5" />
    <circle cx="65.6" cy="24.51" r="0.5" />
    <circle cx="56.58" cy="36.08" r="0.5" />
    <circle cx="74.63" cy="27.4" r="0.5" />
    <circle cx="56.58" cy="27.4" r="0.5" />
    <circle cx="65.6" cy="38.97" r="0.5" />
    <circle cx="56.58" cy="30.29" r="0.5" />
    <circle cx="41.55" cy="33.18" r="0.5" />
    <circle cx="56.58" cy="41.86" r="0.5" />
    <circle cx="47.56" cy="38.97" r="0.5" />
    <circle cx="53.57" cy="50.53" r="0.5" />
    <circle cx="53.57" cy="38.97" r="0.5" />
    <circle cx="59.59" cy="36.08" r="0.5" />
    <circle cx="59.59" cy="38.97" r="0.5" />
    <circle cx="44.55" cy="44.75" r="0.5" />
    <circle cx="47.56" cy="47.64" r="0.5" />
    <circle cx="65.6" cy="38.97" r="0.5" />
    <circle cx="59.59" cy="18.73" r="0.5" />
    <circle cx="68.61" cy="15.84" r="0.5" />
    <circle cx="50.57" cy="47.64" r="0.5" />
    <circle cx="53.57" cy="44.75" r="0.5" />
    <circle cx="68.61" cy="36.08" r="0.5" />
    <circle cx="50.57" cy="33.18" r="0.5" />
    <circle cx="35.53" cy="50.53" r="0.5" />
    <circle cx="56.58" cy="38.97" r="0.5" />
    <circle cx="53.57" cy="36.08" r="0.5" />
    <circle cx="38.54" cy="70.76" r="0.5" />
    <circle cx="35.53" cy="44.75" r="0.5" />
    <circle cx="53.57" cy="36.08" r="0.5" />
    <circle cx="56.58" cy="27.4" r="0.5" />
    <circle cx="47.56" cy="50.53" r="0.5" />
    <circle cx="56.58" cy="27.4" r="0.5" />
    <circle cx="41.55" cy="44.75" r="0.5" />
    <circle cx="62.6" cy="30.29" r="0.5" />
    <circle cx="53.57" cy="41.86" r="0.5" />
    <circle cx="113.72" cy="44.75" r="0.5" />
    <circle cx="95.68" cy="44.75" r="0.5" />
    <circle cx="110.71" cy="47.64" r="0.5" />
    <circle cx="68.61" cy="70.76" r="0.5" />
    <circle cx="98.68" cy="56.31" r="0.5" />
    <circle cx="74.63" cy="56.31" r="0.5" />
    <circle cx="92.67" cy="41.86" r="0.5" />
    <circle cx="50.57" cy="67.87" r="0.5" />
    <circle cx="101.69" cy="53.42" r="0.5" />
    <circle cx="59.59" cy="59.2" r="0.5" />
    <circle cx="53.57" cy="79.44" r="0.5" />
    <circle cx="80.64" cy="50.53" r="0.5" />
    <circle cx="83.65" cy="73.65" r="0.5" />
    <circle cx="86.65" cy="53.42" r="0.5" />
    <circle cx="71.62" cy="53.42" r="0.5" />
    <circle cx="104.7" cy="47.64" r="0.5" />
    <circle cx="71.62" cy="50.53" r="0.5" />
    <circle cx="77.63" cy="59.2" r="0.5" />
    <circle cx="89.66" cy="73.65" r="0.5" />
    <circle cx="71.62" cy="64.98" r="0.5" />
    <circle cx="80.64" cy="44.75" r="0.5" />
    <circle cx="86.65" cy="56.31" r="0.5" />
    <circle cx="92.67" cy="64.98" r="0.5" />
    <circle cx="86.65" cy="56.31" r="0.5" />
    <circle cx="95.68" cy="53.42" r="0.5" />
    <circle cx="101.69" cy="50.53" r="0.5" />
    <circle cx="107.7" cy="56.31" r="0.5" />
    <circle cx="104.7" cy="50.53" r="0.5" />
    <circle cx="83.65" cy="53.42" r="0.5" />
    <circle cx="74.63" cy="62.09" r="0.5" />
    <circle cx="68.61" cy="67.87" r="0.5" />
    <circle cx="68.61" cy="67.87" r="0.5" />
    <circle cx="77.63" cy="59.2" r="0.5" />
    <circle cx="83.65" cy="59.2" r="0.5" />
    <circle cx="65.6" cy="50.53" r="0.5" />
    <circle cx="83.65" cy="38.97" r="0.5" />
    <circle cx="104.7" cy="47.64" r="0.5" />
    <circle cx="92.67" cy="70.76" r="0.5" />
    <circle cx="71.62" cy="50.53" r="0.5" />
    <circle cx="68.61" cy="64.98" r="0.5" />
    <circle cx="68.61" cy="62.09" r="0.5" />
    <circle cx="86.65" cy="50.53" r="0.5" />
    <circle cx="77.63" cy="62.09" r="0.5" />
    <circle cx="53.57" cy="70.76" r="0.5" />
    <circle cx="71.62" cy="59.2" r="0.5" />
    <circle cx="74.63" cy="50.53" r="0.5" />
    <circle cx="74.63" cy="53.42" r="0.5" />
    <circle cx="89.66" cy="53.42" r="0.5" />
    <circle cx="56.58" cy="64.98" r="0.5" />
    <circle cx="74.63" cy="56.31" r="0.5" />
    <circle cx="92.67" cy="41.86" r="0.5" />
    <circle cx="77.63" cy="59.2" r="0.5" />
    <circle cx="116.73" cy="50.53" r="0.5" />
    <circle cx="92.67" cy="53.42" r="0.5" />
    <circle cx="98.68" cy="50.53" r="0.5" />
    <circle cx="131.76" cy="50.53" r="0.5" />
    <circle cx="50.57" cy="64.98" r="0.5" />
    <circle cx="122.74" cy="53.42" r="0.5" />
    <circle cx="104.7" cy="64.98" r="0.5" />
    <circle cx="119.73" cy="33.18" r="0.5" />
    <circle cx="98.68" cy="44.75" r="0.5" />
    <circle cx="95.68" cy="59.2" r="0.5" />
    <circle cx="107.7" cy="50.53" r="0.5" />
    <circle cx="74.63" cy="64.98" r="0.5" />
    <circle cx="77.63" cy="56.31" r="0.5" />
    <circle cx="95.68" cy="44.75" r="0.5" />
    <circle cx="98.68" cy="50.53" r="0.5" />
    <circle cx="134.77" cy="27.4" r="0.5" />
    <circle cx="134.77" cy="62.09" r="0.5" />
    <circle cx="83.65" cy="73.65" r="0.5" />
    <circle cx="110.71" cy="44.75" r="0.5" />
    <circle cx="71.62" cy="56.31" r="0.5" />
    <circle cx="134.77" cy="56.31" r="0.5" />
    <circle cx="92.67" cy="59.2" r="0.5" />
    <circle cx="104.7" cy="41.86" r="0.5" />
    <circle cx="119.73" cy="44.75" r="0.5" />
    <circle cx="89.66" cy="56.31" r="0.5" />
    <circle cx="86.65" cy="50.53" r="0.5" />
    <circle cx="95.68" cy="56.31" r="0.5" />
    <circle cx="119.73" cy="50.53" r="0.5" />
    <circle cx="125.75" cy="56.31" r="0.5" />
    <circle cx="140.78" cy="27.4" r="0.5" />
    <circle cx="95.68" cy="56.31" r="0.5" />
    <circle cx="92.67" cy="56.31" r="0.5" />
    <circle cx="86.65" cy="62.09" r="0.5" />
    <circle cx="134.77" cy="50.53" r="0.5" />
    <circle cx="92.67" cy="38.97" r="0.5" />
    <circle cx="95.68" cy="47.64" r="0.5" />
    <circle cx="83.65" cy="50.53" r="0.5" />
    <circle cx="110.71" cy="47.64" r="0.5" />
    <circle cx="104.7" cy="47.64" r="0.5" />
    <circle cx="110.71" cy="47.64" r="0.5" />
    <circle cx="77.63" cy="59.2" r="0.5" />
    <circle cx="107.7" cy="44.75" r="0.5" />
    <circle cx="104.7" cy="41.86" r="0.5" />
    <circle cx="104.7" cy="50.53" r="0.5" />
    <circle cx="92.67" cy="64.98" r="0.5" />
    <circle cx="98.68" cy="50.53" r="0.5" />
    <circle cx="89.66" cy="38.97" r="0.5" />
    <circle cx="80.64" cy="50.53" r="0.5" />
  </g>
</g>
<g fill="#4C404B" font-size="3.18" font-family="Source Sans Pro" stroke="none">
  <text x="113.72" y="86.65" text-anchor="middle">7</text>
  <text x="23.5" y="86.65" text-anchor="middle">4</text>
  <text x="53.57" y="86.65" text-anchor="middle">5</text>
  <text x="83.65" y="86.65" text-anchor="middle">6</text>
  <text x="143.79" y="86.65" text-anchor="middle">8</text>
</g>
<g fill="#362A35" font-size="3.88" font-family="Source Sans Pro" stroke="none">
  <text x="83.65" y="94.6" text-anchor="middle">Sepal.Length</text>
</g>
<g fill="#362A35" font-size="3.88" font-family="Source Sans Pro" stroke="none">
  <text x="9.47" y="43.3" text-anchor="middle" style="dominant-baseline:central" transform="rotate(-90, 9.47, 43.3)">Sepal.Width</text>
</g>
<g fill="#4C404B" font-size="3.18" font-family="Source Sans Pro" stroke="none">
  <text x="18.89" y="50.53" text-anchor="end" style="dominant-baseline:central">3</text>
  <text x="18.89" y="36.08" text-anchor="end" style="dominant-baseline:central">3.5</text>
  <text x="18.89" y="21.62" text-anchor="end" style="dominant-baseline:central">4</text>
  <text x="18.89" y="79.44" text-anchor="end" style="dominant-baseline:central">2</text>
  <text x="18.89" y="64.98" text-anchor="end" style="dominant-baseline:central">2.5</text>
  <text x="18.89" y="7.17" text-anchor="end" style="dominant-baseline:central">4.5</text>
</g>
</svg>
