<?xml version="1.0" encoding="UTF-8"?>
<svg xmlns="http://www.w3.org/2000/svg" xmlns:xlink="http://www.w3.org/1999/xlink" version="1.1" width="152.4mm" height="101.6mm" viewBox="0 0 152.4 101.6" style="stroke:black;fill:black" stroke-width="0.5">
<g fill="#F5F5F5" stroke="#F2F2F2">
  <path d="M 20.09 5 L 147.4 5 147.4 82.3 20.09 82.3 z" />
  <g stroke="#FFFFFF" stroke-width="0.3">
    <path d="M113.77,5 L 113.77 82.3" />
    <path d="M23.69,5 L 23.69 82.3" />
    <path d="M53.72,5 L 53.72 82.3" />
    <path d="M83.75,5 L 83.75 82.3" />
    <path d="M143.8,5 L 143.8 82.3" />
  </g>
  <g stroke="#FFFFFF" stroke-width="0.3">
    <path d="M20.09,50.94 L 147.4 50.94" />
    <path d="M20.09,36.36 L 147.4 36.36" />
    <path d="M20.09,21.77 L 147.4 21.77" />
    <path d="M20.09,80.12 L 147.4 80.12" />
    <path d="M20.09,65.53 L 147.4 65.53" />
    <path d="M20.09,7.19 L 147.4 7.19" />
  </g>
</g>
<g stroke="none" stroke-width="0.3">
  <g fill="#4682B4" class="color_group_RGB(0.27450980392156865,0.5098039215686274,0.7058823529411765)" stroke="#0F5D8C">
    <circle cx="56.72" cy="36.36" r="0.5" />
    <circle cx="50.72" cy="50.94" r="0.5" />
    <circle cx="44.71" cy="45.11" r="0.5" />
    <circle cx="41.71" cy="48.03" r="0.5" />
    <circle cx="53.72" cy="33.44" r="0.5" />
    <circle cx="65.73" cy="24.69" r="0.5" />
    <circle cx="41.71" cy="39.28" r="0.5" />
    <circle cx="53.72" cy="39.28" r="0.5" />
    <circle cx="35.7" cy="53.86" r="0.5" />
    <circle cx="50.72" cy="48.03" r="0.5" />
    <circle cx="65.73" cy="30.52" r="0.5" />
    <circle cx="47.71" cy="39.28" r="0.5" />
    <circle cx="47.71" cy="50.94" r="0.5" />
    <circle cx="32.7" cy="50.94" r="0.5" />
    <circle cx="77.74" cy="21.77" r="0.5" />
    <circle cx="74.74" cy="10.1" r="0.5" />
    <circle cx="65.73" cy="24.69" r="0.5" />
    <circle cx="56.72" cy="36.36" r="0.5" />
    <circle cx="74.74" cy="27.61" r="0.5" />
    <circle cx="56.72" cy="27.61" r="0.5" />
    <circle cx="65.73" cy="39.28" r="0.5" />
    <circle cx="56.72" cy="30.52" r="0.5" />
    <circle cx="41.71" cy="33.44" r="0.5" />
    <circle cx="56.72" cy="42.19" r="0.5" />
    <circle cx="47.71" cy="39.28" r="0.5" />
    <circle cx="53.72" cy="50.94" r="0.5" />
    <circle cx="53.72" cy="39.28" r="0.5" />
    <circle cx="59.72" cy="36.36" r="0.5" />
    <circle cx="59.72" cy="39.28" r="0.5" />
    <circle cx="44.71" cy="45.11" r="0.5" />
    <circle cx="47.71" cy="48.03" r="0.5" />
    <circle cx="65.73" cy="39.28" r="0.5" />
    <circle cx="59.72" cy="18.86" r="0.5" />
    <circle cx="68.73" cy="15.94" r="0.5" />
    <circle cx="50.72" cy="48.03" r="0.5" />
    <circle cx="53.72" cy="45.11" r="0.5" />
    <circle cx="68.73" cy="36.36" r="0.5" />
    <circle cx="50.72" cy="33.44" r="0.5" />
    <circle cx="35.7" cy="50.94" r="0.5" />
    <circle cx="56.72" cy="39.28" r="0.5" />
    <circle cx="53.72" cy="36.36" r="0.5" />
    <circle cx="38.71" cy="71.36" r="0.5" />
    <circle cx="35.7" cy="45.11" r="0.5" />
    <circle cx="53.72" cy="36.36" r="0.5" />
    <circle cx="56.72" cy="27.61" r="0.5" />
    <circle cx="47.71" cy="50.94" r="0.5" />
    <circle cx="56.72" cy="27.61" r="0.5" />
    <circle cx="41.71" cy="45.11" r="0.5" />
    <circle cx="62.73" cy="30.52" r="0.5" />
    <circle cx="53.72" cy="42.19" r="0.5" />
    <circle cx="113.77" cy="45.11" r="0.5" />
    <circle cx="95.76" cy="45.11" r="0.5" />
    <circle cx="110.77" cy="48.03" r="0.5" />
    <circle cx="68.73" cy="71.36" r="0.5" />
    <circle cx="98.76" cy="56.78" r="0.5" />
    <circle cx="74.74" cy="56.78" r="0.5" />
    <circle cx="92.75" cy="42.19" r="0.5" />
    <circle cx="50.72" cy="68.45" r="0.5" />
    <circle cx="101.76" cy="53.86" r="0.5" />
    <circle cx="59.72" cy="59.7" r="0.5" />
    <circle cx="53.72" cy="80.12" r="0.5" />
    <circle cx="80.74" cy="50.94" r="0.5" />
    <circle cx="83.75" cy="74.28" r="0.5" />
    <circle cx="86.75" cy="53.86" r="0.5" />
    <circle cx="71.73" cy="53.86" r="0.5" />
    <circle cx="104.76" cy="48.03" r="0.5" />
    <circle cx="71.73" cy="50.94" r="0.5" />
    <circle cx="77.74" cy="59.7" r="0.5" />
    <circle cx="89.75" cy="74.28" r="0.5" />
    <circle cx="71.73" cy="65.53" r="0.5" />
    <circle cx="80.74" cy="45.11" r="0.5" />
    <circle cx="86.75" cy="56.78" r="0.5" />
    <circle cx="92.75" cy="65.53" r="0.5" />
    <circle cx="86.75" cy="56.78" r="0.5" />
    <circle cx="95.76" cy="53.86" r="0.5" />
    <circle cx="101.76" cy="50.94" r="0.5" />
    <circle cx="107.77" cy="56.78" r="0.5" />
    <circle cx="104.76" cy="50.94" r="0.5" />
    <circle cx="83.75" cy="53.86" r="0.5" />
    <circle cx="74.74" cy="62.61" r="0.5" />
    <circle cx="68.73" cy="68.45" r="0.5" />
    <circle cx="68.73" cy="68.45" r="0.5" />
    <circle cx="77.74" cy="59.7" r="0.5" />
    <circle cx="83.75" cy="59.7" r="0.5" />
    <circle cx="65.73" cy="50.94" r="0.5" />
    <circle cx="83.75" cy="39.28" r="0.5" />
    <circle cx="104.76" cy="48.03" r="0.5" />
    <circle cx="92.75" cy="71.36" r="0.5" />
    <circle cx="71.73" cy="50.94" r="0.5" />
    <circle cx="68.73" cy="65.53" r="0.5" />
    <circle cx="68.73" cy="62.61" r="0.5" />
    <circle cx="86.75" cy="50.94" r="0.5" />
    <circle cx="77.74" cy="62.61" r="0.5" />
    <circle cx="53.72" cy="71.36" r="0.5" />
    <circle cx="71.73" cy="59.7" r="0.5" />
    <circle cx="74.74" cy="50.94" r="0.5" />
    <circle cx="74.74" cy="53.86" r="0.5" />
    <circle cx="89.75" cy="53.86" r="0.5" />
    <circle cx="56.72" cy="65.53" r="0.5" />
    <circle cx="74.74" cy="56.78" r="0.5" />
    <circle cx="92.75" cy="42.19" r="0.5" />
    <circle cx="77.74" cy="59.7" r="0.5" />
    <circle cx="116.77" cy="50.94" r="0.5" />
    <circle cx="92.75" cy="53.86" r="0.5" />
    <circle cx="98.76" cy="50.94" r="0.5" />
    <circle cx="131.79" cy="50.94" r="0.5" />
    <circle cx="50.72" cy="65.53" r="0.5" />
    <circle cx="122.78" cy="53.86" r="0.5" />
    <circle cx="104.76" cy="65.53" r="0.5" />
    <circle cx="119.78" cy="33.44" r="0.5" />
    <circle cx="98.76" cy="45.11" r="0.5" />
    <circle cx="95.76" cy="59.7" r="0.5" />
    <circle cx="107.77" cy="50.94" r="0.5" />
    <circle cx="74.74" cy="65.53" r="0.5" />
    <circle cx="77.74" cy="56.78" r="0.5" />
    <circle cx="95.76" cy="45.11" r="0.5" />
    <circle cx="98.76" cy="50.94" r="0.5" />
    <circle cx="134.79" cy="27.61" r="0.5" />
    <circle cx="134.79" cy="62.61" r="0.5" />
    <circle cx="83.75" cy="74.28" r="0.5" />
    <circle cx="110.77" cy="45.11" r="0.5" />
    <circle cx="71.73" cy="56.78" r="0.5" />
    <circle cx="134.79" cy="56.78" r="0.5" />
    <circle cx="92.75" cy="59.7" r="0.5" />
    <circle cx="104.76" cy="42.19" r="0.5" />
    <circle cx="119.78" cy="45.11" r="0.5" />
    <circle cx="89.75" cy="56.78" r="0.5" />
    <circle cx="86.75" cy="50.94" r="0.5" />
    <circle cx="95.76" cy="56.78" r="0.5" />
    <circle cx="119.78" cy="50.94" r="0.5" />
    <circle cx="125.78" cy="56.78" r="0.5" />
    <circle cx="140.79" cy="27.61" r="0.5" />
    <circle cx="95.76" cy="56.78" r="0.5" />
    <circle cx="92.75" cy="56.78" r="0.5" />
    <circle cx="86.75" cy="62.61" r="0.5" />
    <circle cx="134.79" cy="50.94" r="0.5" />
    <circle cx="92.75" cy="39.28" r="0.5" />
    <circle cx="95.76" cy="48.03" r="0.5" />
    <circle cx="83.75" cy="50.94" r="0.5" />
    <circle cx="110.77" cy="48.03" r="0.5" />
    <circle cx="104.76" cy="48.03" r="0.5" />
    <circle cx="110.77" cy="48.03" r="0.5" />
    <circle cx="77.74" cy="59.7" r="0.5" />
    <circle cx="107.77" cy="45.11" r="0.5" />
    <circle cx="104.76" cy="42.19" r="0.5" />
    <circle cx="104.76" cy="50.94" r="0.5" />
    <circle cx="92.75" cy="65.53" r="0.5" />
    <circle cx="98.76" cy="50.94" r="0.5" />
    <circle cx="89.75" cy="39.28" r="0.5" />
    <circle cx="80.74" cy="50.94" r="0.5" />
  </g>
</g>
<g fill="#4C404B" font-size="3.18" font-family="PT Sans Caption" stroke="none">
  <text x="113.77" y="87.04" text-anchor="middle">7</text>
  <text x="23.69" y="87.04" text-anchor="middle">4</text>
  <text x="53.72" y="87.04" text-anchor="middle">5</text>
  <text x="83.75" y="87.04" text-anchor="middle">6</text>
  <text x="143.8" y="87.04" text-anchor="middle">8</text>
</g>
<g fill="#362A35" font-size="3.88" font-family="PT Sans" stroke="none">
  <text x="83.75" y="94.6" text-anchor="middle">Sepal.Length</text>
</g>
<g fill="#362A35" font-size="3.88" font-family="PT Sans" stroke="none">
  <text x="9.28" y="43.65" text-anchor="middle" style="dominant-baseline:central" transform="rotate(-90, 9.28, 43.65)">Sepal.Width</text>
</g>
<g fill="#4C404B" font-size="3.18" font-family="PT Sans Caption" stroke="none">
  <text x="19.09" y="50.94" text-anchor="end" style="dominant-baseline:central">3</text>
  <text x="19.09" y="36.36" text-anchor="end" style="dominant-baseline:central">3.5</text>
  <text x="19.09" y="21.77" text-anchor="end" style="dominant-baseline:central">4</text>
  <text x="19.09" y="80.12" text-anchor="end" style="dominant-baseline:central">2</text>
  <text x="19.09" y="65.53" text-anchor="end" style="dominant-baseline:central">2.5</text>
  <text x="19.09" y="7.19" text-anchor="end" style="dominant-baseline:central">4.5</text>
</g>
</svg>
