<?xml version="1.0" encoding="UTF-8"?>
<svg xmlns="http://www.w3.org/2000/svg" xmlns:xlink="http://www.w3.org/1999/xlink" version="1.1" width="152.4mm" height="101.6mm" viewBox="0 0 152.4 101.6" style="stroke:black;fill:black" stroke-width="0.5">
<g fill="#F5F5F5" stroke="#F2F2F2">
  <path d="M 20.09 5 L 125.31 5 125.31 82.3 20.09 82.3 z" />
  <g stroke="#FFFFFF" stroke-width="0.3">
    <path d="M97.52,5 L 97.52 82.3" />
    <path d="M23.07,5 L 23.07 82.3" />
    <path d="M47.88,5 L 47.88 82.3" />
    <path d="M72.7,5 L 72.7 82.3" />
    <path d="M122.33,5 L 122.33 82.3" />
  </g>
  <g stroke="#FFFFFF" stroke-width="0.3">
    <path d="M20.09,50.94 L 125.31 50.94" />
    <path d="M20.09,36.36 L 125.31 36.36" />
    <path d="M20.09,21.77 L 125.31 21.77" />
    <path d="M20.09,80.12 L 125.31 80.12" />
    <path d="M20.09,65.53 L 125.31 65.53" />
    <path d="M20.09,7.19 L 125.31 7.19" />
  </g>
</g>
<g stroke="none" stroke-width="0.3">
  <g fill="#00BDFF" class="color_group_virginica" stroke="#0094D4">
    <circle cx="80.15" cy="42.19" r="0.5" />
    <circle cx="67.74" cy="59.7" r="0.5" />
    <circle cx="100" cy="50.94" r="0.5" />
    <circle cx="80.15" cy="53.86" r="0.5" />
    <circle cx="85.11" cy="50.94" r="0.5" />
    <circle cx="112.41" cy="50.94" r="0.5" />
    <circle cx="45.4" cy="65.53" r="0.5" />
    <circle cx="104.96" cy="53.86" r="0.5" />
    <circle cx="90.07" cy="65.53" r="0.5" />
    <circle cx="102.48" cy="33.44" r="0.5" />
    <circle cx="85.11" cy="45.11" r="0.5" />
    <circle cx="82.63" cy="59.7" r="0.5" />
    <circle cx="92.55" cy="50.94" r="0.5" />
    <circle cx="65.26" cy="65.53" r="0.5" />
    <circle cx="67.74" cy="56.78" r="0.5" />
    <circle cx="82.63" cy="45.11" r="0.5" />
    <circle cx="85.11" cy="50.94" r="0.5" />
    <circle cx="114.89" cy="27.61" r="0.5" />
    <circle cx="114.89" cy="62.61" r="0.5" />
    <circle cx="72.7" cy="74.28" r="0.5" />
    <circle cx="95.04" cy="45.11" r="0.5" />
    <circle cx="62.77" cy="56.78" r="0.5" />
    <circle cx="114.89" cy="56.78" r="0.5" />
    <circle cx="80.15" cy="59.7" r="0.5" />
    <circle cx="90.07" cy="42.19" r="0.5" />
    <circle cx="102.48" cy="45.11" r="0.5" />
    <circle cx="77.66" cy="56.78" r="0.5" />
    <circle cx="75.18" cy="50.94" r="0.5" />
    <circle cx="82.63" cy="56.78" r="0.5" />
    <circle cx="102.48" cy="50.94" r="0.5" />
    <circle cx="107.44" cy="56.78" r="0.5" />
    <circle cx="119.85" cy="27.61" r="0.5" />
    <circle cx="82.63" cy="56.78" r="0.5" />
    <circle cx="80.15" cy="56.78" r="0.5" />
    <circle cx="75.18" cy="62.61" r="0.5" />
    <circle cx="114.89" cy="50.94" r="0.5" />
    <circle cx="80.15" cy="39.28" r="0.5" />
    <circle cx="82.63" cy="48.03" r="0.5" />
    <circle cx="72.7" cy="50.94" r="0.5" />
    <circle cx="95.04" cy="48.03" r="0.5" />
    <circle cx="90.07" cy="48.03" r="0.5" />
    <circle cx="95.04" cy="48.03" r="0.5" />
    <circle cx="67.74" cy="59.7" r="0.5" />
    <circle cx="92.55" cy="45.11" r="0.5" />
    <circle cx="90.07" cy="42.19" r="0.5" />
    <circle cx="90.07" cy="50.94" r="0.5" />
    <circle cx="80.15" cy="65.53" r="0.5" />
    <circle cx="85.11" cy="50.94" r="0.5" />
    <circle cx="77.66" cy="39.28" r="0.5" />
    <circle cx="70.22" cy="50.94" r="0.5" />
  </g>
  <g fill="#96B752" class="color_group_versicolor" stroke="#6D8E2C">
    <circle cx="97.52" cy="45.11" r="0.5" />
    <circle cx="82.63" cy="45.11" r="0.5" />
    <circle cx="95.04" cy="48.03" r="0.5" />
    <circle cx="60.29" cy="71.36" r="0.5" />
    <circle cx="85.11" cy="56.78" r="0.5" />
    <circle cx="65.26" cy="56.78" r="0.5" />
    <circle cx="80.15" cy="42.19" r="0.5" />
    <circle cx="45.4" cy="68.45" r="0.5" />
    <circle cx="87.59" cy="53.86" r="0.5" />
    <circle cx="52.85" cy="59.7" r="0.5" />
    <circle cx="47.88" cy="80.12" r="0.5" />
    <circle cx="70.22" cy="50.94" r="0.5" />
    <circle cx="72.7" cy="74.28" r="0.5" />
    <circle cx="75.18" cy="53.86" r="0.5" />
    <circle cx="62.77" cy="53.86" r="0.5" />
    <circle cx="90.07" cy="48.03" r="0.5" />
    <circle cx="62.77" cy="50.94" r="0.5" />
    <circle cx="67.74" cy="59.7" r="0.5" />
    <circle cx="77.66" cy="74.28" r="0.5" />
    <circle cx="62.77" cy="65.53" r="0.5" />
    <circle cx="70.22" cy="45.11" r="0.5" />
    <circle cx="75.18" cy="56.78" r="0.5" />
    <circle cx="80.15" cy="65.53" r="0.5" />
    <circle cx="75.18" cy="56.78" r="0.5" />
    <circle cx="82.63" cy="53.86" r="0.5" />
    <circle cx="87.59" cy="50.94" r="0.5" />
    <circle cx="92.55" cy="56.78" r="0.5" />
    <circle cx="90.07" cy="50.94" r="0.5" />
    <circle cx="72.7" cy="53.86" r="0.5" />
    <circle cx="65.26" cy="62.61" r="0.5" />
    <circle cx="60.29" cy="68.45" r="0.5" />
    <circle cx="60.29" cy="68.45" r="0.5" />
    <circle cx="67.74" cy="59.7" r="0.5" />
    <circle cx="72.7" cy="59.7" r="0.5" />
    <circle cx="57.81" cy="50.94" r="0.5" />
    <circle cx="72.7" cy="39.28" r="0.5" />
    <circle cx="90.07" cy="48.03" r="0.5" />
    <circle cx="80.15" cy="71.36" r="0.5" />
    <circle cx="62.77" cy="50.94" r="0.5" />
    <circle cx="60.29" cy="65.53" r="0.5" />
    <circle cx="60.29" cy="62.61" r="0.5" />
    <circle cx="75.18" cy="50.94" r="0.5" />
    <circle cx="67.74" cy="62.61" r="0.5" />
    <circle cx="47.88" cy="71.36" r="0.5" />
    <circle cx="62.77" cy="59.7" r="0.5" />
    <circle cx="65.26" cy="50.94" r="0.5" />
    <circle cx="65.26" cy="53.86" r="0.5" />
    <circle cx="77.66" cy="53.86" r="0.5" />
    <circle cx="50.37" cy="65.53" r="0.5" />
    <circle cx="65.26" cy="56.78" r="0.5" />
  </g>
  <g fill="#FF81AD" class="color_group_setosa" stroke="#D65886">
    <circle cx="50.37" cy="36.36" r="0.5" />
    <circle cx="45.4" cy="50.94" r="0.5" />
    <circle cx="40.44" cy="45.11" r="0.5" />
    <circle cx="37.96" cy="48.03" r="0.5" />
    <circle cx="47.88" cy="33.44" r="0.5" />
    <circle cx="57.81" cy="24.69" r="0.5" />
    <circle cx="37.96" cy="39.28" r="0.5" />
    <circle cx="47.88" cy="39.28" r="0.5" />
    <circle cx="33" cy="53.86" r="0.5" />
    <circle cx="45.4" cy="48.03" r="0.5" />
    <circle cx="57.81" cy="30.52" r="0.5" />
    <circle cx="42.92" cy="39.28" r="0.5" />
    <circle cx="42.92" cy="50.94" r="0.5" />
    <circle cx="30.51" cy="50.94" r="0.5" />
    <circle cx="67.74" cy="21.77" r="0.5" />
    <circle cx="65.26" cy="10.1" r="0.5" />
    <circle cx="57.81" cy="24.69" r="0.5" />
    <circle cx="50.37" cy="36.36" r="0.5" />
    <circle cx="65.26" cy="27.61" r="0.5" />
    <circle cx="50.37" cy="27.61" r="0.5" />
    <circle cx="57.81" cy="39.28" r="0.5" />
    <circle cx="50.37" cy="30.52" r="0.5" />
    <circle cx="37.96" cy="33.44" r="0.5" />
    <circle cx="50.37" cy="42.19" r="0.5" />
    <circle cx="42.92" cy="39.28" r="0.5" />
    <circle cx="47.88" cy="50.94" r="0.5" />
    <circle cx="47.88" cy="39.28" r="0.5" />
    <circle cx="52.85" cy="36.36" r="0.5" />
    <circle cx="52.85" cy="39.28" r="0.5" />
    <circle cx="40.44" cy="45.11" r="0.5" />
    <circle cx="42.92" cy="48.03" r="0.5" />
    <circle cx="57.81" cy="39.28" r="0.5" />
    <circle cx="52.85" cy="18.86" r="0.5" />
    <circle cx="60.29" cy="15.94" r="0.5" />
    <circle cx="45.4" cy="48.03" r="0.5" />
    <circle cx="47.88" cy="45.11" r="0.5" />
    <circle cx="60.29" cy="36.36" r="0.5" />
    <circle cx="45.4" cy="33.44" r="0.5" />
    <circle cx="33" cy="50.94" r="0.5" />
    <circle cx="50.37" cy="39.28" r="0.5" />
    <circle cx="47.88" cy="36.36" r="0.5" />
    <circle cx="35.48" cy="71.36" r="0.5" />
    <circle cx="33" cy="45.11" r="0.5" />
    <circle cx="47.88" cy="36.36" r="0.5" />
    <circle cx="50.37" cy="27.61" r="0.5" />
    <circle cx="42.92" cy="50.94" r="0.5" />
    <circle cx="50.37" cy="27.61" r="0.5" />
    <circle cx="37.96" cy="45.11" r="0.5" />
    <circle cx="55.33" cy="30.52" r="0.5" />
    <circle cx="47.88" cy="42.19" r="0.5" />
  </g>
</g>
<g font-size="3.18" font-family="PT Sans Caption">
  <a xlink:href="#"><g onclick="js_chunk_be201efc70e1eef9(evt)" id="color_key_versicolor">
    <g fill="#96B752" stroke="#6D8E2C" stroke-width="0.3">
      <path d="M 127.31 46.57 L 131.05 46.57 131.05 50.3 127.31 50.3 z" />
    </g>
    <g fill="#4C404B" stroke="none">
      <text x="132.05" y="48.43" style="dominant-baseline:central">versicolor</text>
    </g>
  </g></a>
  <a xlink:href="#"><g onclick="js_chunk_d25e6f8d995ea003(evt)" id="color_key_setosa">
    <g fill="#FF81AD" stroke="#D65886" stroke-width="0.3">
      <path d="M 127.31 41.83 L 131.05 41.83 131.05 45.57 127.31 45.57 z" />
    </g>
    <g fill="#4C404B" stroke="none">
      <text x="132.05" y="43.7" style="dominant-baseline:central">setosa</text>
    </g>
  </g></a>
  <a xlink:href="#"><g onclick="js_chunk_7ec8ddd9f23362ad(evt)" id="color_key_virginica">
    <g fill="#00BDFF" stroke="#0094D4" stroke-width="0.3">
      <path d="M 127.31 51.3 L 131.05 51.3 131.05 55.03 127.31 55.03 z" />
    </g>
    <g fill="#4C404B" stroke="none">
      <text x="132.05" y="53.17" style="dominant-baseline:central">virginica</text>
    </g>
  </g></a>
</g>
<g fill="#362A35" font-size="3.88" font-family="PT Sans" stroke="none">
  <text x="136.36" y="39.83" text-anchor="middle">Species</text>
</g>
<g fill="#4C404B" font-size="3.18" font-family="PT Sans Caption" stroke="none">
  <text x="97.52" y="87.04" text-anchor="middle">7</text>
  <text x="23.07" y="87.04" text-anchor="middle">4</text>
  <text x="47.88" y="87.04" text-anchor="middle">5</text>
  <text x="72.7" y="87.04" text-anchor="middle">6</text>
  <text x="122.33" y="87.04" text-anchor="middle">8</text>
</g>
<g fill="#362A35" font-size="3.88" font-family="PT Sans" stroke="none">
  <text x="72.7" y="94.6" text-anchor="middle">Sepal.Length</text>
</g>
<g fill="#362A35" font-size="3.88" font-family="PT Sans" stroke="none">
  <text x="9.28" y="43.65" text-anchor="middle" style="dominant-baseline:central" transform="rotate(-90, 9.28, 43.65)">Sepal.Width</text>
</g>
<g fill="#4C404B" font-size="3.18" font-family="PT Sans Caption" stroke="none">
  <text x="19.09" y="50.94" text-anchor="end" style="dominant-baseline:central">3</text>
  <text x="19.09" y="36.36" text-anchor="end" style="dominant-baseline:central">3.5</text>
  <text x="19.09" y="21.77" text-anchor="end" style="dominant-baseline:central">4</text>
  <text x="19.09" y="80.12" text-anchor="end" style="dominant-baseline:central">2</text>
  <text x="19.09" y="65.53" text-anchor="end" style="dominant-baseline:central">2.5</text>
  <text x="19.09" y="7.19" text-anchor="end" style="dominant-baseline:central">4.5</text>
</g>
<script type="application/ecmascript"><![CDATA[
function js_chunk_d25e6f8d995ea003(evt) {
  geoms = document.getElementsByClassName('color_group_setosa');
                        entry = document.getElementById('color_key_setosa');
                        state = geoms[0].getAttribute('visibility');
                        if (!state || state == 'visible') {
                            for (i = 0; i < geoms.length; ++i) {
                                geoms[i].setAttribute('visibility', 'hidden');
                            }
                            entry.setAttribute('opacity', 0.5);
                        } else {
                            for (i = 0; i < geoms.length; ++i) {
                                geoms[i].setAttribute('visibility', 'visible');
                            }
                            entry.setAttribute('opacity', 1.0);
                        }
}

function js_chunk_7ec8ddd9f23362ad(evt) {
  geoms = document.getElementsByClassName('color_group_virginica');
                        entry = document.getElementById('color_key_virginica');
                        state = geoms[0].getAttribute('visibility');
                        if (!state || state == 'visible') {
                            for (i = 0; i < geoms.length; ++i) {
                                geoms[i].setAttribute('visibility', 'hidden');
                            }
                            entry.setAttribute('opacity', 0.5);
                        } else {
                            for (i = 0; i < geoms.length; ++i) {
                                geoms[i].setAttribute('visibility', 'visible');
                            }
                            entry.setAttribute('opacity', 1.0);
                        }
}

function js_chunk_be201efc70e1eef9(evt) {
  geoms = document.getElementsByClassName('color_group_versicolor');
                        entry = document.getElementById('color_key_versicolor');
                        state = geoms[0].getAttribute('visibility');
                        if (!state || state == 'visible') {
                            for (i = 0; i < geoms.length; ++i) {
                                geoms[i].setAttribute('visibility', 'hidden');
                            }
                            entry.setAttribute('opacity', 0.5);
                        } else {
                            for (i = 0; i < geoms.length; ++i) {
                                geoms[i].setAttribute('visibility', 'visible');
                            }
                            entry.setAttribute('opacity', 1.0);
                        }
}

]]></script></svg>
