<?xml version="1.0" encoding="UTF-8"?>
<svg xmlns="http://www.w3.org/2000/svg" xmlns:xlink="http://www.w3.org/1999/xlink" version="1.1" width="127mm" height="127mm" viewBox="0 0 127 127" style="stroke:black;fill:black" stroke-width="0.5">
<g fill="#F5F5F5" stroke="#F2F2F2">
  <path d="M 23.11 5 L 122 5 122 107.7 23.11 107.7 z" />
  <g stroke="#FFFFFF" stroke-width="0.3">
    <path d="M119.2,5 L 119.2 107.7" />
    <path d="M72.55,5 L 72.55 107.7" />
    <path d="M25.91,5 L 25.91 107.7" />
    <path d="M49.23,5 L 49.23 107.7" />
    <path d="M95.88,5 L 95.88 107.7" />
  </g>
  <g stroke="#FFFFFF" stroke-width="0.3">
    <path d="M23.11,88.65 L 122 88.65" />
    <path d="M23.11,72.5 L 122 72.5" />
    <path d="M23.11,40.2 L 122 40.2" />
    <path d="M23.11,104.8 L 122 104.8" />
    <path d="M23.11,56.35 L 122 56.35" />
    <path d="M23.11,24.05 L 122 24.05" />
    <path d="M23.11,7.91 L 122 7.91" />
  </g>
</g>
<g stroke="none" stroke-width="0.3">
  <g fill="#4682B4" class="color_group_RGB(0.27450980392156865,0.5098039215686274,0.7058823529411765)" stroke="#0F5D8C">
    <circle cx="25.95" cy="104.08" r="0.5" />
    <circle cx="25.91" cy="104.55" r="0.5" />
    <circle cx="25.92" cy="104.67" r="0.5" />
    <circle cx="31.33" cy="97.97" r="0.5" />
    <circle cx="26.33" cy="102.87" r="0.5" />
    <circle cx="26.23" cy="102.94" r="0.5" />
    <circle cx="26.08" cy="103.21" r="0.5" />
    <circle cx="25.92" cy="104.71" r="0.5" />
    <circle cx="25.95" cy="103.86" r="0.5" />
    <circle cx="25.91" cy="104.69" r="0.5" />
    <circle cx="25.91" cy="104.73" r="0.5" />
    <circle cx="25.92" cy="104.7" r="0.5" />
    <circle cx="25.92" cy="104.69" r="0.5" />
    <circle cx="25.91" cy="104.79" r="0.5" />
    <circle cx="25.91" cy="104.78" r="0.5" />
    <circle cx="25.95" cy="104.62" r="0.5" />
    <circle cx="25.93" cy="104.6" r="0.5" />
    <circle cx="25.93" cy="104.69" r="0.5" />
    <circle cx="55.61" cy="30.47" r="0.5" />
    <circle cx="25.91" cy="104.79" r="0.5" />
    <circle cx="28.09" cy="98.03" r="0.5" />
    <circle cx="31.98" cy="94.22" r="0.5" />
    <circle cx="25.91" cy="104.74" r="0.5" />
    <circle cx="26.02" cy="102.94" r="0.5" />
    <circle cx="25.94" cy="104.38" r="0.5" />
    <circle cx="25.91" cy="104.72" r="0.5" />
    <circle cx="25.92" cy="104.51" r="0.5" />
    <circle cx="32.07" cy="93.82" r="0.5" />
    <circle cx="28.32" cy="98.24" r="0.5" />
    <circle cx="26.9" cy="99.55" r="0.5" />
    <circle cx="25.91" cy="104.6" r="0.5" />
    <circle cx="26.63" cy="83.48" r="0.5" />
    <circle cx="103.5" cy="12.56" r="0.5" />
    <circle cx="25.95" cy="104.73" r="0.5" />
    <circle cx="25.98" cy="101.91" r="0.5" />
    <circle cx="26.31" cy="103.89" r="0.5" />
    <circle cx="25.95" cy="104.52" r="0.5" />
    <circle cx="25.91" cy="104.78" r="0.5" />
    <circle cx="25.91" cy="104.79" r="0.5" />
    <circle cx="25.91" cy="104.79" r="0.5" />
    <circle cx="25.92" cy="104.59" r="0.5" />
    <circle cx="28.82" cy="96.88" r="0.5" />
    <circle cx="25.93" cy="104.6" r="0.5" />
    <circle cx="26.55" cy="101.97" r="0.5" />
    <circle cx="27.07" cy="102.26" r="0.5" />
    <circle cx="26.51" cy="97.69" r="0.5" />
    <circle cx="26.03" cy="101.9" r="0.5" />
    <circle cx="25.91" cy="104.76" r="0.5" />
    <circle cx="26.61" cy="103.49" r="0.5" />
    <circle cx="25.95" cy="104.46" r="0.5" />
    <circle cx="25.96" cy="104.16" r="0.5" />
    <circle cx="25.91" cy="104.77" r="0.5" />
    <circle cx="25.91" cy="104.78" r="0.5" />
    <circle cx="25.91" cy="104.75" r="0.5" />
    <circle cx="25.91" cy="104.79" r="0.5" />
    <circle cx="28.14" cy="101.89" r="0.5" />
    <circle cx="25.94" cy="104.39" r="0.5" />
    <circle cx="27.77" cy="102.07" r="0.5" />
    <circle cx="25.92" cy="104.75" r="0.5" />
    <circle cx="25.92" cy="104.61" r="0.5" />
    <circle cx="25.91" cy="104.76" r="0.5" />
    <circle cx="25.96" cy="103.98" r="0.5" />
  </g>
</g>
<g fill="#4C404B" font-size="3.18" font-family="PT Sans Caption" stroke="none">
  <text x="119.2" y="112.44" text-anchor="middle">8000</text>
  <text x="72.55" y="112.44" text-anchor="middle">4000</text>
  <text x="25.91" y="112.44" text-anchor="middle">0</text>
  <text x="49.23" y="112.44" text-anchor="middle">2000</text>
  <text x="95.88" y="112.44" text-anchor="middle">6000</text>
</g>
<g fill="#362A35" font-size="3.88" font-family="PT Sans" stroke="none">
  <text x="72.55" y="120" text-anchor="middle">body</text>
</g>
<g fill="#362A35" font-size="3.88" font-family="PT Sans" stroke="none">
  <text x="9.28" y="56.35" text-anchor="middle" style="dominant-baseline:central" transform="rotate(-90, 9.28, 56.35)">brain</text>
</g>
<g fill="#4C404B" font-size="3.18" font-family="PT Sans Caption" stroke="none">
  <text x="22.11" y="88.65" text-anchor="end" style="dominant-baseline:central">1000</text>
  <text x="22.11" y="72.5" text-anchor="end" style="dominant-baseline:central">2000</text>
  <text x="22.11" y="40.2" text-anchor="end" style="dominant-baseline:central">4000</text>
  <text x="22.11" y="104.8" text-anchor="end" style="dominant-baseline:central">0</text>
  <text x="22.11" y="56.35" text-anchor="end" style="dominant-baseline:central">3000</text>
  <text x="22.11" y="24.05" text-anchor="end" style="dominant-baseline:central">5000</text>
  <text x="22.11" y="7.91" text-anchor="end" style="dominant-baseline:central">6000</text>
</g>
</svg>
