<?xml version="1.0" encoding="UTF-8"?>
<svg xmlns="http://www.w3.org/2000/svg" xmlns:xlink="http://www.w3.org/1999/xlink" version="1.1" width="177.8mm" height="101.6mm" viewBox="0 0 177.8 101.6" style="stroke:black;fill:black" stroke-width="0.5">
<g stroke="none" fill="#F2F2F2">
  <path d="M 12.35 0 L 177.8 0 177.8 90.9 12.35 90.9 z" />
</g>
<g stroke="#FFFFFF">
  <path d="M56.05,0 L 56.05 90.9" />
  <path d="M17.03,0 L 17.03 90.9" />
  <path d="M95.07,0 L 95.07 90.9" />
  <path d="M134.1,0 L 134.1 90.9" />
  <path d="M173.12,0 L 173.12 90.9" />
</g>
<g stroke="#FFFFFF">
  <path d="M12.35,88.32 L 177.8 88.32" />
  <path d="M12.35,19.72 L 177.8 19.72" />
  <path d="M12.35,2.57 L 177.8 2.57" />
  <path d="M12.35,54.02 L 177.8 54.02" />
  <path d="M12.35,36.87 L 177.8 36.87" />
  <path d="M12.35,71.17 L 177.8 71.17" />
</g>
<g fill="#4682B4" stroke="none">
  <circle cx="59.96" cy="28.3" r="0.75" />
  <circle cx="52.15" cy="36.87" r="0.75" />
  <circle cx="44.35" cy="33.44" r="0.75" />
  <circle cx="40.45" cy="35.16" r="0.75" />
  <circle cx="56.05" cy="26.58" r="0.75" />
  <circle cx="71.66" cy="21.44" r="0.75" />
  <circle cx="40.45" cy="30.01" r="0.75" />
  <circle cx="56.05" cy="30.01" r="0.75" />
  <circle cx="32.64" cy="38.59" r="0.75" />
  <circle cx="52.15" cy="35.16" r="0.75" />
  <circle cx="71.66" cy="24.87" r="0.75" />
  <circle cx="48.25" cy="30.01" r="0.75" />
  <circle cx="48.25" cy="36.87" r="0.75" />
  <circle cx="28.74" cy="36.87" r="0.75" />
  <circle cx="87.27" cy="19.72" r="0.75" />
  <circle cx="83.37" cy="12.86" r="0.75" />
  <circle cx="71.66" cy="21.44" r="0.75" />
  <circle cx="59.96" cy="28.3" r="0.75" />
  <circle cx="83.37" cy="23.15" r="0.75" />
  <circle cx="59.96" cy="23.15" r="0.75" />
  <circle cx="71.66" cy="30.01" r="0.75" />
  <circle cx="59.96" cy="24.87" r="0.75" />
  <circle cx="40.45" cy="26.58" r="0.75" />
  <circle cx="59.96" cy="31.73" r="0.75" />
  <circle cx="48.25" cy="30.01" r="0.75" />
  <circle cx="56.05" cy="36.87" r="0.75" />
  <circle cx="56.05" cy="30.01" r="0.75" />
  <circle cx="63.86" cy="28.3" r="0.75" />
  <circle cx="63.86" cy="30.01" r="0.75" />
  <circle cx="44.35" cy="33.44" r="0.75" />
  <circle cx="48.25" cy="35.16" r="0.75" />
  <circle cx="71.66" cy="30.01" r="0.75" />
  <circle cx="63.86" cy="18.01" r="0.75" />
  <circle cx="75.56" cy="16.29" r="0.75" />
  <circle cx="52.15" cy="35.16" r="0.75" />
  <circle cx="56.05" cy="33.44" r="0.75" />
  <circle cx="75.56" cy="28.3" r="0.75" />
  <circle cx="52.15" cy="26.58" r="0.75" />
  <circle cx="32.64" cy="36.87" r="0.75" />
  <circle cx="59.96" cy="30.01" r="0.75" />
  <circle cx="56.05" cy="28.3" r="0.75" />
  <circle cx="36.54" cy="48.88" r="0.75" />
  <circle cx="32.64" cy="33.44" r="0.75" />
  <circle cx="56.05" cy="28.3" r="0.75" />
  <circle cx="59.96" cy="23.15" r="0.75" />
  <circle cx="48.25" cy="36.87" r="0.75" />
  <circle cx="59.96" cy="23.15" r="0.75" />
  <circle cx="40.45" cy="33.44" r="0.75" />
  <circle cx="67.76" cy="24.87" r="0.75" />
  <circle cx="56.05" cy="31.73" r="0.75" />
  <circle cx="134.1" cy="33.44" r="0.75" />
  <circle cx="110.68" cy="33.44" r="0.75" />
  <circle cx="130.19" cy="35.16" r="0.75" />
  <circle cx="75.56" cy="48.88" r="0.75" />
  <circle cx="114.59" cy="40.3" r="0.75" />
  <circle cx="83.37" cy="40.3" r="0.75" />
  <circle cx="106.78" cy="31.73" r="0.75" />
  <circle cx="52.15" cy="47.16" r="0.75" />
  <circle cx="118.49" cy="38.59" r="0.75" />
  <circle cx="63.86" cy="42.02" r="0.75" />
  <circle cx="56.05" cy="54.02" r="0.75" />
  <circle cx="91.17" cy="36.87" r="0.75" />
  <circle cx="95.07" cy="50.59" r="0.75" />
  <circle cx="98.98" cy="38.59" r="0.75" />
  <circle cx="79.47" cy="38.59" r="0.75" />
  <circle cx="122.39" cy="35.16" r="0.75" />
  <circle cx="79.47" cy="36.87" r="0.75" />
  <circle cx="87.27" cy="42.02" r="0.75" />
  <circle cx="102.88" cy="50.59" r="0.75" />
  <circle cx="79.47" cy="45.45" r="0.75" />
  <circle cx="91.17" cy="33.44" r="0.75" />
  <circle cx="98.98" cy="40.3" r="0.75" />
  <circle cx="106.78" cy="45.45" r="0.75" />
  <circle cx="98.98" cy="40.3" r="0.75" />
  <circle cx="110.68" cy="38.59" r="0.75" />
  <circle cx="118.49" cy="36.87" r="0.75" />
  <circle cx="126.29" cy="40.3" r="0.75" />
  <circle cx="122.39" cy="36.87" r="0.75" />
  <circle cx="95.07" cy="38.59" r="0.75" />
  <circle cx="83.37" cy="43.73" r="0.75" />
  <circle cx="75.56" cy="47.16" r="0.75" />
  <circle cx="75.56" cy="47.16" r="0.75" />
  <circle cx="87.27" cy="42.02" r="0.75" />
  <circle cx="95.07" cy="42.02" r="0.75" />
  <circle cx="71.66" cy="36.87" r="0.75" />
  <circle cx="95.07" cy="30.01" r="0.75" />
  <circle cx="122.39" cy="35.16" r="0.75" />
  <circle cx="106.78" cy="48.88" r="0.75" />
  <circle cx="79.47" cy="36.87" r="0.75" />
  <circle cx="75.56" cy="45.45" r="0.75" />
  <circle cx="75.56" cy="43.73" r="0.75" />
  <circle cx="98.98" cy="36.87" r="0.75" />
  <circle cx="87.27" cy="43.73" r="0.75" />
  <circle cx="56.05" cy="48.88" r="0.75" />
  <circle cx="79.47" cy="42.02" r="0.75" />
  <circle cx="83.37" cy="36.87" r="0.75" />
  <circle cx="83.37" cy="38.59" r="0.75" />
  <circle cx="102.88" cy="38.59" r="0.75" />
  <circle cx="59.96" cy="45.45" r="0.75" />
  <circle cx="83.37" cy="40.3" r="0.75" />
  <circle cx="106.78" cy="31.73" r="0.75" />
  <circle cx="87.27" cy="42.02" r="0.75" />
  <circle cx="138" cy="36.87" r="0.75" />
  <circle cx="106.78" cy="38.59" r="0.75" />
  <circle cx="114.59" cy="36.87" r="0.75" />
  <circle cx="157.51" cy="36.87" r="0.75" />
  <circle cx="52.15" cy="45.45" r="0.75" />
  <circle cx="145.8" cy="38.59" r="0.75" />
  <circle cx="122.39" cy="45.45" r="0.75" />
  <circle cx="141.9" cy="26.58" r="0.75" />
  <circle cx="114.59" cy="33.44" r="0.75" />
  <circle cx="110.68" cy="42.02" r="0.75" />
  <circle cx="126.29" cy="36.87" r="0.75" />
  <circle cx="83.37" cy="45.45" r="0.75" />
  <circle cx="87.27" cy="40.3" r="0.75" />
  <circle cx="110.68" cy="33.44" r="0.75" />
  <circle cx="114.59" cy="36.87" r="0.75" />
  <circle cx="161.41" cy="23.15" r="0.75" />
  <circle cx="161.41" cy="43.73" r="0.75" />
  <circle cx="95.07" cy="50.59" r="0.75" />
  <circle cx="130.19" cy="33.44" r="0.75" />
  <circle cx="79.47" cy="40.3" r="0.75" />
  <circle cx="161.41" cy="40.3" r="0.75" />
  <circle cx="106.78" cy="42.02" r="0.75" />
  <circle cx="122.39" cy="31.73" r="0.75" />
  <circle cx="141.9" cy="33.44" r="0.75" />
  <circle cx="102.88" cy="40.3" r="0.75" />
  <circle cx="98.98" cy="36.87" r="0.75" />
  <circle cx="110.68" cy="40.3" r="0.75" />
  <circle cx="141.9" cy="36.87" r="0.75" />
  <circle cx="149.7" cy="40.3" r="0.75" />
  <circle cx="169.22" cy="23.15" r="0.75" />
  <circle cx="110.68" cy="40.3" r="0.75" />
  <circle cx="106.78" cy="40.3" r="0.75" />
  <circle cx="98.98" cy="43.73" r="0.75" />
  <circle cx="161.41" cy="36.87" r="0.75" />
  <circle cx="106.78" cy="30.01" r="0.75" />
  <circle cx="110.68" cy="35.16" r="0.75" />
  <circle cx="95.07" cy="36.87" r="0.75" />
  <circle cx="130.19" cy="35.16" r="0.75" />
  <circle cx="122.39" cy="35.16" r="0.75" />
  <circle cx="130.19" cy="35.16" r="0.75" />
  <circle cx="87.27" cy="42.02" r="0.75" />
  <circle cx="126.29" cy="33.44" r="0.75" />
  <circle cx="122.39" cy="31.73" r="0.75" />
  <circle cx="122.39" cy="36.87" r="0.75" />
  <circle cx="106.78" cy="45.45" r="0.75" />
  <circle cx="114.59" cy="36.87" r="0.75" />
  <circle cx="102.88" cy="30.01" r="0.75" />
  <circle cx="91.17" cy="36.87" r="0.75" />
</g>
<g stroke="none" fill="#4D4D4D" font-family="Helvetica" font-size="3.53">
  <text x="56.05" y="94.37" text-anchor="middle">5</text>
  <text x="17.03" y="94.37" text-anchor="middle">4</text>
  <text x="95.07" y="94.37" text-anchor="middle">6</text>
  <text x="134.1" y="94.37" text-anchor="middle">7</text>
  <text x="173.12" y="94.37" text-anchor="middle">8</text>
</g>
<g stroke="none" fill="#4D4D4D" font-family="Helvetica" font-size="4.23">
  <text x="95.07" y="99.6" text-anchor="middle">Sepal.Length</text>
</g>
<g stroke="none" fill="#4D4D4D" font-family="Helvetica" font-size="4.23">
  <text x="4.12" y="45.45" text-anchor="middle" style="dominant-baseline:central" transform="rotate(-90, 4.12, 45.45)">Sepal.Width</text>
</g>
<g stroke="none" fill="#4D4D4D" font-family="Helvetica" font-size="3.53">
  <text x="11.35" y="88.32" text-anchor="end" style="dominant-baseline:central">0</text>
  <text x="11.35" y="19.72" text-anchor="end" style="dominant-baseline:central">4</text>
  <text x="11.35" y="2.57" text-anchor="end" style="dominant-baseline:central">5</text>
  <text x="11.35" y="54.02" text-anchor="end" style="dominant-baseline:central">2</text>
  <text x="11.35" y="36.87" text-anchor="end" style="dominant-baseline:central">3</text>
  <text x="11.35" y="71.17" text-anchor="end" style="dominant-baseline:central">1</text>
</g>
</svg>
