<?xml version="1.0" encoding="UTF-8"?>
<svg xmlns="http://www.w3.org/2000/svg" xmlns:xlink="http://www.w3.org/1999/xlink" version="1.1" width="177.8mm" height="101.6mm" viewBox="0 0 177.8 101.6" style="stroke:black;fill:black" stroke-width="0.5">
<g stroke="none" fill="#F2F2F2">
  <path d="M 5.88 0 L 88.9 0 88.9 90.9 5.88 90.9 z" />
</g>
<g stroke="#FFFFFF">
  <path d="M8.23,0 L 8.23 90.9" />
  <path d="M70.89,0 L 70.89 90.9" />
  <path d="M23.89,0 L 23.89 90.9" />
  <path d="M55.22,0 L 55.22 90.9" />
  <path d="M86.55,0 L 86.55 90.9" />
  <path d="M39.56,0 L 39.56 90.9" />
</g>
<g stroke="#FFFFFF">
  <path d="M5.88,88.32 L 88.9 88.32" />
  <path d="M5.88,2.57 L 88.9 2.57" />
  <path d="M5.88,54.02 L 88.9 54.02" />
  <path d="M5.88,71.17 L 88.9 71.17" />
  <path d="M5.88,36.87 L 88.9 36.87" />
  <path d="M5.88,19.72 L 88.9 19.72" />
</g>
<g fill="#4682B4" stroke="none">
  <path d="M 12.37 88.32 L 19.13 88.32 19.13 81.46 12.37 81.46 z" />
  <path d="M 19.88 88.32 L 26.65 88.32 26.65 76.32 19.88 76.32 z" />
  <path d="M 27.4 88.32 L 34.17 88.32 34.17 50.59 27.4 50.59 z" />
  <path d="M 34.92 88.32 L 41.69 88.32 41.69 47.16 34.92 47.16 z" />
  <path d="M 42.44 88.32 L 49.21 88.32 49.21 2.57 42.44 2.57 z" />
  <path d="M 49.96 88.32 L 56.73 88.32 56.73 57.45 49.96 57.45 z" />
  <path d="M 57.48 88.32 L 64.24 88.32 64.24 71.17 57.48 71.17 z" />
  <path d="M 65 88.32 L 71.76 88.32 71.76 69.46 65 69.46 z" />
  <path d="M 72.52 88.32 L 79.28 88.32 79.28 84.89 72.52 84.89 z" />
  <path d="M 80.03 88.32 L 86.8 88.32 86.8 86.61 80.03 86.61 z" />
</g>
<g stroke="none" fill="#4D4D4D" font-family="Helvetica" font-size="3.53">
  <text x="8.23" y="94.37" text-anchor="middle">0</text>
  <text x="70.89" y="94.37" text-anchor="middle">2</text>
  <text x="23.89" y="94.37" text-anchor="middle">0.5</text>
  <text x="55.22" y="94.37" text-anchor="middle">1.5</text>
  <text x="86.55" y="94.37" text-anchor="middle">2.5</text>
  <text x="39.56" y="94.37" text-anchor="middle">1</text>
</g>
<g stroke="none" fill="#4D4D4D" font-family="Helvetica" font-size="4.23">
  <text x="47.39" y="99.6" text-anchor="middle">Sepal.Width</text>
</g>
<g stroke="none" fill="#4D4D4D" font-family="Helvetica" font-size="3.53">
  <text x="4.88" y="88.32" text-anchor="end" style="dominant-baseline:central">0</text>
  <text x="4.88" y="2.57" text-anchor="end" style="dominant-baseline:central">50</text>
  <text x="4.88" y="54.02" text-anchor="end" style="dominant-baseline:central">20</text>
  <text x="4.88" y="71.17" text-anchor="end" style="dominant-baseline:central">10</text>
  <text x="4.88" y="36.87" text-anchor="end" style="dominant-baseline:central">30</text>
  <text x="4.88" y="19.72" text-anchor="end" style="dominant-baseline:central">40</text>
</g>
<g stroke="none" fill="#F2F2F2">
  <path d="M 101.25 0 L 177.8 0 177.8 90.9 101.25 90.9 z" />
</g>
<g stroke="#FFFFFF">
  <path d="M121.47,0 L 121.47 90.9" />
  <path d="M103.42,0 L 103.42 90.9" />
  <path d="M139.52,0 L 139.52 90.9" />
  <path d="M157.58,0 L 157.58 90.9" />
  <path d="M175.63,0 L 175.63 90.9" />
</g>
<g stroke="#FFFFFF">
  <path d="M101.25,88.32 L 177.8 88.32" />
  <path d="M101.25,19.72 L 177.8 19.72" />
  <path d="M101.25,2.57 L 177.8 2.57" />
  <path d="M101.25,54.02 L 177.8 54.02" />
  <path d="M101.25,36.87 L 177.8 36.87" />
  <path d="M101.25,71.17 L 177.8 71.17" />
</g>
<g fill="#4682B4" stroke="none">
  <circle cx="123.28" cy="28.3" r="0.75" />
  <circle cx="119.67" cy="36.87" r="0.75" />
  <circle cx="116.05" cy="33.44" r="0.75" />
  <circle cx="114.25" cy="35.16" r="0.75" />
  <circle cx="121.47" cy="26.58" r="0.75" />
  <circle cx="128.69" cy="21.44" r="0.75" />
  <circle cx="114.25" cy="30.01" r="0.75" />
  <circle cx="121.47" cy="30.01" r="0.75" />
  <circle cx="110.64" cy="38.59" r="0.75" />
  <circle cx="119.67" cy="35.16" r="0.75" />
  <circle cx="128.69" cy="24.87" r="0.75" />
  <circle cx="117.86" cy="30.01" r="0.75" />
  <circle cx="117.86" cy="36.87" r="0.75" />
  <circle cx="108.83" cy="36.87" r="0.75" />
  <circle cx="135.91" cy="19.72" r="0.75" />
  <circle cx="134.11" cy="12.86" r="0.75" />
  <circle cx="128.69" cy="21.44" r="0.75" />
  <circle cx="123.28" cy="28.3" r="0.75" />
  <circle cx="134.11" cy="23.15" r="0.75" />
  <circle cx="123.28" cy="23.15" r="0.75" />
  <circle cx="128.69" cy="30.01" r="0.75" />
  <circle cx="123.28" cy="24.87" r="0.75" />
  <circle cx="114.25" cy="26.58" r="0.75" />
  <circle cx="123.28" cy="31.73" r="0.75" />
  <circle cx="117.86" cy="30.01" r="0.75" />
  <circle cx="121.47" cy="36.87" r="0.75" />
  <circle cx="121.47" cy="30.01" r="0.75" />
  <circle cx="125.08" cy="28.3" r="0.75" />
  <circle cx="125.08" cy="30.01" r="0.75" />
  <circle cx="116.05" cy="33.44" r="0.75" />
  <circle cx="117.86" cy="35.16" r="0.75" />
  <circle cx="128.69" cy="30.01" r="0.75" />
  <circle cx="125.08" cy="18.01" r="0.75" />
  <circle cx="130.5" cy="16.29" r="0.75" />
  <circle cx="119.67" cy="35.16" r="0.75" />
  <circle cx="121.47" cy="33.44" r="0.75" />
  <circle cx="130.5" cy="28.3" r="0.75" />
  <circle cx="119.67" cy="26.58" r="0.75" />
  <circle cx="110.64" cy="36.87" r="0.75" />
  <circle cx="123.28" cy="30.01" r="0.75" />
  <circle cx="121.47" cy="28.3" r="0.75" />
  <circle cx="112.44" cy="48.88" r="0.75" />
  <circle cx="110.64" cy="33.44" r="0.75" />
  <circle cx="121.47" cy="28.3" r="0.75" />
  <circle cx="123.28" cy="23.15" r="0.75" />
  <circle cx="117.86" cy="36.87" r="0.75" />
  <circle cx="123.28" cy="23.15" r="0.75" />
  <circle cx="114.25" cy="33.44" r="0.75" />
  <circle cx="126.89" cy="24.87" r="0.75" />
  <circle cx="121.47" cy="31.73" r="0.75" />
  <circle cx="157.58" cy="33.44" r="0.75" />
  <circle cx="146.75" cy="33.44" r="0.75" />
  <circle cx="155.77" cy="35.16" r="0.75" />
  <circle cx="130.5" cy="48.88" r="0.75" />
  <circle cx="148.55" cy="40.3" r="0.75" />
  <circle cx="134.11" cy="40.3" r="0.75" />
  <circle cx="144.94" cy="31.73" r="0.75" />
  <circle cx="119.67" cy="47.16" r="0.75" />
  <circle cx="150.36" cy="38.59" r="0.75" />
  <circle cx="125.08" cy="42.02" r="0.75" />
  <circle cx="121.47" cy="54.02" r="0.75" />
  <circle cx="137.72" cy="36.87" r="0.75" />
  <circle cx="139.52" cy="50.59" r="0.75" />
  <circle cx="141.33" cy="38.59" r="0.75" />
  <circle cx="132.3" cy="38.59" r="0.75" />
  <circle cx="152.16" cy="35.16" r="0.75" />
  <circle cx="132.3" cy="36.87" r="0.75" />
  <circle cx="135.91" cy="42.02" r="0.75" />
  <circle cx="143.14" cy="50.59" r="0.75" />
  <circle cx="132.3" cy="45.45" r="0.75" />
  <circle cx="137.72" cy="33.44" r="0.75" />
  <circle cx="141.33" cy="40.3" r="0.75" />
  <circle cx="144.94" cy="45.45" r="0.75" />
  <circle cx="141.33" cy="40.3" r="0.75" />
  <circle cx="146.75" cy="38.59" r="0.75" />
  <circle cx="150.36" cy="36.87" r="0.75" />
  <circle cx="153.97" cy="40.3" r="0.75" />
  <circle cx="152.16" cy="36.87" r="0.75" />
  <circle cx="139.52" cy="38.59" r="0.75" />
  <circle cx="134.11" cy="43.73" r="0.75" />
  <circle cx="130.5" cy="47.16" r="0.75" />
  <circle cx="130.5" cy="47.16" r="0.75" />
  <circle cx="135.91" cy="42.02" r="0.75" />
  <circle cx="139.52" cy="42.02" r="0.75" />
  <circle cx="128.69" cy="36.87" r="0.75" />
  <circle cx="139.52" cy="30.01" r="0.75" />
  <circle cx="152.16" cy="35.16" r="0.75" />
  <circle cx="144.94" cy="48.88" r="0.75" />
  <circle cx="132.3" cy="36.87" r="0.75" />
  <circle cx="130.5" cy="45.45" r="0.75" />
  <circle cx="130.5" cy="43.73" r="0.75" />
  <circle cx="141.33" cy="36.87" r="0.75" />
  <circle cx="135.91" cy="43.73" r="0.75" />
  <circle cx="121.47" cy="48.88" r="0.75" />
  <circle cx="132.3" cy="42.02" r="0.75" />
  <circle cx="134.11" cy="36.87" r="0.75" />
  <circle cx="134.11" cy="38.59" r="0.75" />
  <circle cx="143.14" cy="38.59" r="0.75" />
  <circle cx="123.28" cy="45.45" r="0.75" />
  <circle cx="134.11" cy="40.3" r="0.75" />
  <circle cx="144.94" cy="31.73" r="0.75" />
  <circle cx="135.91" cy="42.02" r="0.75" />
  <circle cx="159.38" cy="36.87" r="0.75" />
  <circle cx="144.94" cy="38.59" r="0.75" />
  <circle cx="148.55" cy="36.87" r="0.75" />
  <circle cx="168.41" cy="36.87" r="0.75" />
  <circle cx="119.67" cy="45.45" r="0.75" />
  <circle cx="163" cy="38.59" r="0.75" />
  <circle cx="152.16" cy="45.45" r="0.75" />
  <circle cx="161.19" cy="26.58" r="0.75" />
  <circle cx="148.55" cy="33.44" r="0.75" />
  <circle cx="146.75" cy="42.02" r="0.75" />
  <circle cx="153.97" cy="36.87" r="0.75" />
  <circle cx="134.11" cy="45.45" r="0.75" />
  <circle cx="135.91" cy="40.3" r="0.75" />
  <circle cx="146.75" cy="33.44" r="0.75" />
  <circle cx="148.55" cy="36.87" r="0.75" />
  <circle cx="170.22" cy="23.15" r="0.75" />
  <circle cx="170.22" cy="43.73" r="0.75" />
  <circle cx="139.52" cy="50.59" r="0.75" />
  <circle cx="155.77" cy="33.44" r="0.75" />
  <circle cx="132.3" cy="40.3" r="0.75" />
  <circle cx="170.22" cy="40.3" r="0.75" />
  <circle cx="144.94" cy="42.02" r="0.75" />
  <circle cx="152.16" cy="31.73" r="0.75" />
  <circle cx="161.19" cy="33.44" r="0.75" />
  <circle cx="143.14" cy="40.3" r="0.75" />
  <circle cx="141.33" cy="36.87" r="0.75" />
  <circle cx="146.75" cy="40.3" r="0.75" />
  <circle cx="161.19" cy="36.87" r="0.75" />
  <circle cx="164.8" cy="40.3" r="0.75" />
  <circle cx="173.83" cy="23.15" r="0.75" />
  <circle cx="146.75" cy="40.3" r="0.75" />
  <circle cx="144.94" cy="40.3" r="0.75" />
  <circle cx="141.33" cy="43.73" r="0.75" />
  <circle cx="170.22" cy="36.87" r="0.75" />
  <circle cx="144.94" cy="30.01" r="0.75" />
  <circle cx="146.75" cy="35.16" r="0.75" />
  <circle cx="139.52" cy="36.87" r="0.75" />
  <circle cx="155.77" cy="35.16" r="0.75" />
  <circle cx="152.16" cy="35.16" r="0.75" />
  <circle cx="155.77" cy="35.16" r="0.75" />
  <circle cx="135.91" cy="42.02" r="0.75" />
  <circle cx="153.97" cy="33.44" r="0.75" />
  <circle cx="152.16" cy="31.73" r="0.75" />
  <circle cx="152.16" cy="36.87" r="0.75" />
  <circle cx="144.94" cy="45.45" r="0.75" />
  <circle cx="148.55" cy="36.87" r="0.75" />
  <circle cx="143.14" cy="30.01" r="0.75" />
  <circle cx="137.72" cy="36.87" r="0.75" />
</g>
<g stroke="none" fill="#4D4D4D" font-family="Helvetica" font-size="3.53">
  <text x="121.47" y="94.37" text-anchor="middle">5</text>
  <text x="103.42" y="94.37" text-anchor="middle">4</text>
  <text x="139.52" y="94.37" text-anchor="middle">6</text>
  <text x="157.58" y="94.37" text-anchor="middle">7</text>
  <text x="175.63" y="94.37" text-anchor="middle">8</text>
</g>
<g stroke="none" fill="#4D4D4D" font-family="Helvetica" font-size="4.23">
  <text x="139.52" y="99.6" text-anchor="middle">Sepal.Length</text>
</g>
<g stroke="none" fill="#4D4D4D" font-family="Helvetica" font-size="4.23">
  <text x="93.02" y="45.45" text-anchor="middle" style="dominant-baseline:central" transform="rotate(-90, 93.02, 45.45)">Sepal.Width</text>
</g>
<g stroke="none" fill="#4D4D4D" font-family="Helvetica" font-size="3.53">
  <text x="100.25" y="88.32" text-anchor="end" style="dominant-baseline:central">0</text>
  <text x="100.25" y="19.72" text-anchor="end" style="dominant-baseline:central">4</text>
  <text x="100.25" y="2.57" text-anchor="end" style="dominant-baseline:central">5</text>
  <text x="100.25" y="54.02" text-anchor="end" style="dominant-baseline:central">2</text>
  <text x="100.25" y="36.87" text-anchor="end" style="dominant-baseline:central">3</text>
  <text x="100.25" y="71.17" text-anchor="end" style="dominant-baseline:central">1</text>
</g>
</svg>
