<?xml version="1.0" encoding="UTF-8" standalone="no"?>
<svg
   xmlns:sketch="http://www.bohemiancoding.com/sketch/ns"
   xmlns:dc="http://purl.org/dc/elements/1.1/"
   xmlns:cc="http://creativecommons.org/ns#"
   xmlns:rdf="http://www.w3.org/1999/02/22-rdf-syntax-ns#"
   xmlns:svg="http://www.w3.org/2000/svg"
   xmlns="http://www.w3.org/2000/svg"
   xmlns:xlink="http://www.w3.org/1999/xlink"
   xmlns:sodipodi="http://sodipodi.sourceforge.net/DTD/sodipodi-0.dtd"
   xmlns:inkscape="http://www.inkscape.org/namespaces/inkscape"
   width="76.684631mm"
   height="71.703484mm"
   viewBox="0 0 271.71721 254.06746"
   version="1.1"
   id="svg2"
   inkscape:version="0.91 r13725"
   sodipodi:docname="logo.svg">
  <metadata
     id="metadata33">
    <rdf:RDF>
      <cc:Work
         rdf:about="">
        <dc:format>image/svg+xml</dc:format>
        <dc:type
           rdf:resource="http://purl.org/dc/dcmitype/StillImage" />
        <dc:title>logo</dc:title>
      </cc:Work>
    </rdf:RDF>
  </metadata>
  <sodipodi:namedview
     pagecolor="#ffffff"
     bordercolor="#666666"
     borderopacity="1"
     objecttolerance="10"
     gridtolerance="10"
     guidetolerance="10"
     inkscape:pageopacity="0"
     inkscape:pageshadow="2"
     inkscape:window-width="1049"
     inkscape:window-height="751"
     id="namedview31"
     showgrid="false"
     fit-margin-top="5"
     fit-margin-left="5"
     fit-margin-right="5"
     fit-margin-bottom="5"
     units="mm"
     inkscape:zoom="0.8768354"
     inkscape:cx="96.662496"
     inkscape:cy="182.98123"
     inkscape:window-x="0"
     inkscape:window-y="0"
     inkscape:window-maximized="0"
     inkscape:current-layer="svg2" />
  <!-- Generator: Sketch 3.0.4 (8053) - http://www.bohemiancoding.com/sketch -->
  <title
     id="title4">logo</title>
  <desc
     id="desc6">Created with Sketch.</desc>
  <defs
     id="defs8">
    <linearGradient
       x1="0.5"
       y1="0"
       x2="1"
       y2="1.0610912"
       id="linearGradient-1">
      <stop
         stop-color="#F88383"
         offset="0%"
         id="stop11" />
      <stop
         stop-color="#FF6767"
         offset="100%"
         id="stop13" />
    </linearGradient>
    <linearGradient
       x1="0.5"
       y1="0"
       x2="0.5"
       y2="1"
       id="linearGradient-2">
      <stop
         stop-color="#E74747"
         offset="0%"
         id="stop16" />
      <stop
         stop-color="#FF8787"
         offset="100%"
         id="stop18" />
    </linearGradient>
    <linearGradient
       inkscape:collect="always"
       xlink:href="#linearGradient-1"
       id="linearGradient10725"
       x1="120.41718"
       y1="24.500452"
       x2="166.14806"
       y2="121.54972"
       gradientTransform="scale(0.76507205,1.3070664)"
       gradientUnits="userSpaceOnUse" />
    <linearGradient
       inkscape:collect="always"
       xlink:href="#linearGradient-1"
       id="linearGradient10727"
       x1="218.77893"
       y1="25.019386"
       x2="264.68747"
       y2="122.44566"
       gradientTransform="scale(0.77595939,1.2887272)"
       gradientUnits="userSpaceOnUse" />
    <linearGradient
       inkscape:collect="always"
       xlink:href="#linearGradient-2"
       id="linearGradient10729"
       x1="124.77114"
       y1="22.018629"
       x2="124.77114"
       y2="102.92212"
       gradientTransform="scale(0.680266,1.4700132)"
       gradientUnits="userSpaceOnUse" />
    <linearGradient
       inkscape:collect="always"
       xlink:href="#linearGradient-2"
       id="linearGradient10731"
       x1="247.61066"
       y1="20.649874"
       x2="247.61066"
       y2="95.633224"
       gradientTransform="scale(0.63560993,1.573292)"
       gradientUnits="userSpaceOnUse" />
  </defs>
  <g
     id="Page-1"
     sketch:type="MSPage"
     style="fill:none;fill-rule:evenodd;stroke:none;stroke-width:1"
     transform="translate(5.2165365,-14.260066)">
    <path
       d="m 127.11524,72.995117 c 0,0 -10.6411,-27.211188 -15.01465,-40.96875 -0.15965,-0.502204 -54.960184,70.573173 -54.960184,70.573173 l 23.683813,48.97077 39.345701,-19.03125 6.94532,-59.543943 z"
       id="Path-2"
       sketch:type="MSShapeGroup"
       transform="matrix(1,0,0,-1,0,184)"
       inkscape:connector-curvature="0"
       style="fill:url(#linearGradient10725)" />
    <path
       d="m 205.38672,72.132812 -17.14648,-39.889648 -54.09983,69.356376 23.68381,48.97077 39.3457,-19.03125 8.2168,-59.406248 z"
       id="Path-5"
       sketch:type="MSShapeGroup"
       transform="matrix(-1,0,0,-1,339,183)"
       inkscape:connector-curvature="0"
       style="fill:url(#linearGradient10727)" />
    <path
       d="M 112.39551,151.29687 107.22722,127.32847 80.657471,32.367676 57.359619,81.446045 112.39551,151.29687 Z"
       id="Path-6"
       sketch:type="MSShapeGroup"
       inkscape:connector-curvature="0"
       style="fill:url(#linearGradient10729)" />
    <path
       d="m 150.88135,150.45898 30.33252,-117.970699 -38.6543,18.56543 -9.00586,60.518559 17.32764,38.88671 z"
       id="Path-7"
       sketch:type="MSShapeGroup"
       inkscape:connector-curvature="0"
       style="fill:url(#linearGradient10731)" />
    <path
       d="m 131.09824,112.98753 -15.56308,21.01833 14.94482,41.58203 16.85522,-41.04614 -16.23696,-21.55422 z"
       id="Path-8"
       sketch:type="MSShapeGroup"
       transform="matrix(1,0,0,-1,0,289)"
       inkscape:connector-curvature="0"
       style="fill:#505050" />
    <path
       d="m 130.51074,113.4624 16.98291,40.9458 -16.45459,21.47364 -0.52832,-62.41944 z"
       id="Path-18"
       sketch:type="MSShapeGroup"
       inkscape:connector-curvature="0"
       style="fill:#7a7a7a" />
    <path
       d="m 43.412,233.637 0,4.761 c -1.587,1.173 -4.554,2.001 -6.9,2.001 -11.178,0 -12.765,-11.178 -12.765,-14.766 0,-3.588 1.587,-14.214 12.765,-14.214 3.381,0 7.728,2.07 10.626,4.623 0.483,0.414 1.242,0.414 1.725,-0.069 l 5.175,-5.658 c 0.483,-0.483 0.483,-1.311 0,-1.794 C 49.346,203.898 43.895,201 36.512,201 18.158,201 12.5,215.697 12.5,225.771 c 0,10.35 5.658,24.84 24.012,24.84 7.107,0 12.558,-2.346 17.112,-6.555 0.552,-0.552 0.897,-1.311 0.897,-2.139 l 0,-17.181 c 0,-0.69 -0.552,-1.242 -1.242,-1.242 l -17.802,0 c -0.69,0 -1.242,0.552 -1.242,1.242 l 0,7.659 c 0,0.69 0.552,1.242 1.242,1.242 l 7.935,0 z m 44.85,15.18 c 0.276,0.69 0.966,1.173 1.725,1.173 l 8.901,0 c 0.552,0 0.966,-0.621 0.69,-1.104 L 81.362,209.901 c -0.138,-0.276 -0.414,-0.483 -0.759,-0.483 -0.345,0 -0.621,0.207 -0.759,0.483 l -18.216,38.985 c -0.276,0.483 0.138,1.104 0.69,1.104 l 8.901,0 c 0.759,0 1.449,-0.483 1.725,-1.173 l 2.346,-6.003 10.557,0 2.415,6.003 z m -7.728,-19.113 2.691,6.693 -5.382,0 2.691,-6.693 z m 41.676,20.286 c 14.904,0 19.527,-12.213 19.527,-20.631 0,-8.142 -4.623,-19.734 -19.527,-19.734 l -13.248,0 c -0.69,0 -1.242,0.552 -1.242,1.242 l 0,37.881 c 0,0.69 0.552,1.242 1.242,1.242 l 13.248,0 z m -4.071,-9.867 0,-20.769 4.071,0 c 7.866,0 9.039,7.452 9.039,10.005 0,2.622 -1.173,10.764 -9.039,10.764 l -4.071,0 z m 55.338,-5.451 c 0.69,0 1.242,-0.552 1.242,-1.242 l 0,-7.383 c 0,-0.69 -0.552,-1.242 -1.242,-1.242 l -12.351,0 0,-5.313 16.215,0 c 0.69,0 1.242,-0.552 1.242,-1.242 l 0,-7.314 c 0,-0.69 -0.552,-1.242 -1.242,-1.242 l -25.392,0 c -0.69,0 -1.242,0.552 -1.242,1.242 l 0,37.812 c 0,0.69 0.552,1.242 1.242,1.242 l 7.935,0 c 0.69,0 1.242,-0.552 1.242,-1.242 l 0,-14.076 12.351,0 z M 198.8,210.867 c 0,-0.69 -0.552,-1.242 -1.242,-1.242 l -8.073,0 c -0.69,0 -1.242,0.552 -1.242,1.242 l 0,37.881 c 0,0.69 0.552,1.242 1.242,1.242 l 23.46,0 c 0.69,0 1.242,-0.552 1.242,-1.242 l 0,-7.383 c 0,-0.69 -0.552,-1.242 -1.242,-1.242 l -14.145,0 0,-29.256 z m 36.777,21.597 13.11,-21.735 c 0.276,-0.414 -0.069,-1.035 -0.621,-1.035 l -9.453,0 c -0.759,0 -1.449,0.414 -1.863,1.104 l -6.486,11.592 -6.279,-11.592 c -0.414,-0.69 -1.104,-1.104 -1.863,-1.104 l -9.453,0 c -0.552,0 -0.897,0.621 -0.621,1.035 l 13.11,21.804 0,16.215 c 0,0.69 0.552,1.242 1.242,1.242 l 7.935,0 c 0.69,0 1.242,-0.552 1.242,-1.242 l 0,-16.284 z"
       id="Gadfly"
       sketch:type="MSShapeGroup"
       inkscape:connector-curvature="0"
       style="fill:#505050" />
    <path
       d="M 150.75293,150.61523 181.59961,32.102539"
       id="Path-23"
       sketch:type="MSShapeGroup"
       inkscape:connector-curvature="0"
       style="opacity:0.31238337;stroke:#fffbfb" />
    <path
       d="m 130.5,178.5 0,-69"
       id="Path-25"
       sketch:type="MSShapeGroup"
       inkscape:connector-curvature="0"
       style="opacity:0.31238337;stroke:#fffbfb" />
    <path
       d="M 80.75293,150.61523 111.59961,32.102539"
       id="Path-24"
       sketch:type="MSShapeGroup"
       transform="matrix(-1,0,0,1,193,0)"
       inkscape:connector-curvature="0"
       style="opacity:0.31238337;stroke:#fffbfb" />
  </g>
</svg>
